{"glyphs":{"0":{"ha":825,"x_min":90,"x_max":757,"o":"m 368 -18 q 214 15 276 -18 q 121 115 151 47 q 90 286 90 182 q 99 467 90 371 q 131 653 108 563 q 199 816 154 743 q 310 933 243 889 q 478 976 378 976 q 633 944 571 976 q 726 844 694 911 q 757 674 757 778 q 749 490 757 586 q 717 303 740 393 q 651 140 694 213 q 538 25 607 68 q 368 -18 469 -18 m 371 63 q 510 103 456 63 q 597 212 564 144 q 644 360 629 279 q 665 522 660 440 q 669 671 669 604 q 620 843 669 790 q 474 896 571 896 q 338 855 392 896 q 252 747 285 814 q 203 599 219 679 q 183 436 188 518 q 178 288 178 354 q 226 115 178 168 q 371 63 275 63 z "},"1":{"ha":538,"x_min":99,"x_max":453,"o":"m 453 958 l 318 0 l 228 0 l 340 797 q 347 835 343 815 q 356 874 350 854 l 101 793 l 99 858 l 363 958 l 453 958 z "},"2":{"ha":769,"x_min":21,"x_max":714,"o":"m 444 975 q 586 963 526 975 q 680 915 646 950 q 714 810 714 879 q 683 666 714 733 q 601 537 653 599 q 485 411 549 475 l 149 83 q 226 86 188 85 q 303 88 265 88 l 653 88 l 640 0 l 21 0 l 29 58 q 34 81 31 71 q 46 99 38 90 l 392 438 q 505 556 453 496 q 588 678 557 617 q 619 799 619 739 q 598 862 619 842 q 536 888 576 882 q 442 894 496 894 q 355 892 396 894 q 268 885 314 890 q 161 868 222 879 l 157 939 q 274 962 225 954 q 365 972 324 969 q 444 975 406 975 z "},"3":{"ha":761,"x_min":22,"x_max":694,"o":"m 426 976 q 633 933 571 976 q 694 796 694 890 q 674 667 694 731 q 615 560 654 604 q 515 508 575 517 l 514 503 q 622 443 588 490 q 657 324 657 396 q 615 146 657 221 q 492 28 572 71 q 299 -18 413 -14 q 169 -13 240 -19 q 22 7 97 -7 l 36 76 q 124 68 81 72 q 211 63 168 64 q 290 64 254 61 q 495 142 424 74 q 567 326 567 211 q 551 397 567 364 q 495 449 535 429 q 385 469 456 469 l 204 471 l 214 540 l 390 542 q 554 607 503 543 q 606 785 606 671 q 563 872 606 850 q 410 894 521 894 q 288 890 353 894 q 171 882 222 886 l 165 951 q 303 970 239 964 q 426 976 368 976 z "},"4":{"ha":838,"x_min":46,"x_max":763,"o":"m 522 958 l 158 382 q 149 340 142 356 q 182 324 157 324 l 763 324 l 753 258 l 622 249 l 143 249 q 78 270 103 249 q 49 325 53 292 q 67 390 46 358 l 428 958 l 522 958 m 706 776 l 596 0 l 510 0 l 596 617 l 636 776 l 706 776 z "},"5":{"ha":736,"x_min":28,"x_max":706,"o":"m 706 958 l 689 881 l 276 881 l 219 581 l 310 576 q 490 550 415 571 q 602 481 564 529 q 640 347 640 433 q 549 86 640 181 q 290 -17 458 -8 q 168 -12 235 -19 q 28 19 101 -4 l 46 92 q 165 68 107 75 q 271 64 224 61 q 480 142 407 71 q 553 346 553 213 q 519 443 553 411 q 416 487 486 475 q 236 501 346 499 l 172 506 q 142 522 153 508 q 135 554 131 535 l 213 958 l 706 958 z "},"6":{"ha":788,"x_min":86,"x_max":722,"o":"m 525 975 q 577 974 544 975 q 649 969 610 974 q 722 956 689 965 l 703 889 q 647 894 675 893 q 589 896 619 896 q 521 896 558 896 q 396 878 449 896 q 306 813 343 861 q 241 674 268 764 q 193 439 214 583 q 176 265 179 336 q 188 148 172 193 q 246 82 204 103 q 363 61 288 61 q 512 106 457 61 q 590 227 567 150 q 613 403 613 304 q 583 508 613 469 q 463 546 553 546 q 314 509 388 546 q 156 374 240 472 l 154 432 q 258 545 207 504 q 363 603 308 586 q 483 621 418 621 q 649 569 599 621 q 700 422 700 518 q 665 190 700 289 q 554 38 631 92 q 351 -17 478 -17 q 203 8 260 -17 q 118 86 146 32 q 88 228 90 140 q 103 443 86 315 q 162 718 128 613 q 247 879 196 824 q 366 955 297 935 q 525 975 435 975 z "},"7":{"ha":703,"x_min":122,"x_max":728,"o":"m 664 958 q 717 939 706 958 q 711 882 728 919 l 285 0 l 192 0 l 588 818 q 605 851 596 835 q 624 882 614 867 l 122 881 l 128 958 l 664 958 z "},"8":{"ha":844,"x_min":67,"x_max":776,"o":"m 494 971 q 678 944 617 972 q 758 860 740 917 q 764 715 776 804 q 734 606 754 653 q 681 531 714 558 q 597 499 647 504 l 593 493 q 682 456 651 488 q 720 368 713 424 q 715 235 728 313 q 671 93 704 147 q 567 14 638 39 q 368 -12 496 -11 q 180 14 247 -12 q 90 97 113 40 q 79 243 67 153 q 112 373 90 318 q 172 459 133 428 q 271 496 210 490 l 274 501 q 179 567 204 510 q 168 724 154 625 q 213 865 181 810 q 311 946 244 919 q 494 971 378 972 m 431 461 q 313 453 360 461 q 238 423 267 444 q 193 360 210 401 q 168 251 176 319 q 171 142 158 182 q 232 83 183 101 q 375 65 281 65 q 521 85 468 65 q 599 146 574 104 q 632 260 624 188 q 638 363 642 324 q 611 424 633 403 q 545 453 589 444 q 431 461 501 461 m 490 896 q 353 878 401 896 q 282 819 304 860 q 250 708 260 779 q 252 598 240 636 q 309 547 264 560 q 443 533 354 533 q 552 542 510 533 q 619 569 594 550 q 658 624 644 589 q 679 715 671 660 q 678 823 689 783 q 624 879 668 863 q 490 896 581 896 z "},"9":{"ha":788,"x_min":71,"x_max":722,"o":"m 460 975 q 612 948 554 975 q 696 863 669 921 q 722 711 722 804 q 701 488 722 618 q 642 228 676 328 q 559 76 608 129 q 440 3 510 22 q 275 -17 371 -17 q 185 -13 239 -17 q 71 4 132 -10 l 86 69 q 146 65 117 67 q 204 63 175 64 q 265 61 233 61 q 408 81 350 63 q 503 147 465 100 q 565 278 540 193 q 613 496 590 363 q 635 680 631 604 q 625 804 640 756 q 569 875 610 853 q 454 897 528 897 q 319 869 369 897 q 242 786 268 842 q 203 644 215 731 q 203 506 192 558 q 253 432 214 454 q 360 411 292 410 q 456 430 413 414 q 547 483 500 446 q 651 585 594 519 l 653 529 q 556 418 603 460 q 458 358 508 376 q 343 338 407 340 q 220 356 269 335 q 144 418 171 376 q 113 519 118 460 q 118 654 107 578 q 153 797 129 736 q 219 897 178 858 q 321 956 261 936 q 460 975 381 975 z "},"A":{"ha":850,"x_min":-37,"x_max":779,"o":"m 556 958 q 578 951 568 958 q 589 931 588 943 l 779 0 l 688 0 l 532 807 q 526 848 529 828 q 519 888 524 868 l 478 888 q 460 847 469 868 q 442 807 450 826 l 60 0 l -37 0 l 415 933 q 429 953 419 947 q 451 958 439 958 l 556 958 m 669 397 l 658 317 l 172 317 l 183 397 l 669 397 z "},"Á":{"ha":850,"x_min":-37,"x_max":779,"o":"m 556 958 q 578 951 568 958 q 589 931 588 943 l 779 0 l 688 0 l 532 807 q 526 848 529 828 q 519 888 524 868 l 478 888 q 460 847 469 868 q 442 807 450 826 l 60 0 l -37 0 l 415 933 q 429 953 419 947 q 451 958 439 958 l 556 958 m 669 397 l 658 317 l 172 317 l 183 397 l 669 397 m 689 1261 l 733 1193 l 464 1015 l 433 1057 l 689 1261 z "},"Ă":{"ha":850,"x_min":-37,"x_max":779,"o":"m 556 958 q 578 951 568 958 q 589 931 588 943 l 779 0 l 688 0 l 532 807 q 526 848 529 828 q 519 888 524 868 l 478 888 q 460 847 469 868 q 442 807 450 826 l 60 0 l -37 0 l 415 933 q 429 953 419 947 q 451 958 439 958 l 556 958 m 669 397 l 658 317 l 172 317 l 183 397 l 669 397 m 693 1224 l 740 1213 q 706 1122 735 1160 q 631 1062 678 1083 q 521 1040 583 1040 q 411 1063 456 1040 q 347 1125 367 1085 q 338 1217 328 1165 l 386 1221 q 415 1138 378 1167 q 521 1108 451 1108 q 640 1140 594 1108 q 693 1224 686 1171 z "},"Ắ":{"ha":850,"x_min":-37,"x_max":779,"o":"m 556 958 q 578 951 568 958 q 589 931 588 943 l 779 0 l 688 0 l 532 807 q 526 848 529 828 q 519 888 524 868 l 478 888 q 460 847 469 868 q 442 807 450 826 l 60 0 l -37 0 l 415 933 q 429 953 419 947 q 451 958 439 958 l 556 958 m 669 397 l 658 317 l 172 317 l 183 397 l 669 397 m 693 1224 l 740 1213 q 706 1122 735 1160 q 631 1062 678 1083 q 521 1040 583 1040 q 411 1063 456 1040 q 347 1125 367 1085 q 338 1217 328 1165 l 386 1221 q 415 1138 378 1167 q 521 1108 451 1108 q 640 1140 594 1108 q 693 1224 686 1171 m 658 1399 l 701 1336 l 504 1210 l 476 1249 l 658 1399 z "},"Ặ":{"ha":850,"x_min":-37,"x_max":779,"o":"m 556 958 q 578 951 568 958 q 589 931 588 943 l 779 0 l 688 0 l 532 807 q 526 848 529 828 q 519 888 524 868 l 478 888 q 460 847 469 868 q 442 807 450 826 l 60 0 l -37 0 l 415 933 q 429 953 419 947 q 451 958 439 958 l 556 958 m 669 397 l 658 317 l 172 317 l 183 397 l 669 397 m 392 -78 q 414 -85 407 -78 q 419 -108 421 -93 l 408 -189 q 376 -217 404 -217 l 347 -217 q 326 -208 333 -217 q 321 -186 319 -200 l 332 -106 q 340 -84 333 -90 q 361 -78 346 -78 l 392 -78 m 693 1224 l 740 1213 q 706 1122 735 1160 q 630 1062 678 1083 q 519 1040 582 1040 q 411 1063 456 1040 q 347 1125 367 1085 q 338 1217 328 1165 l 386 1221 q 415 1138 378 1167 q 519 1108 451 1108 q 640 1140 593 1108 q 693 1224 686 1171 z "},"Ằ":{"ha":850,"x_min":-37,"x_max":779,"o":"m 556 958 q 578 951 568 958 q 589 931 588 943 l 779 0 l 688 0 l 532 807 q 526 848 529 828 q 519 888 524 868 l 478 888 q 460 847 469 868 q 442 807 450 826 l 60 0 l -37 0 l 415 933 q 429 953 419 947 q 451 958 439 958 l 556 958 m 669 397 l 658 317 l 172 317 l 183 397 l 669 397 m 693 1224 l 740 1213 q 706 1122 735 1160 q 631 1062 678 1083 q 521 1040 583 1040 q 411 1063 456 1040 q 347 1125 367 1085 q 338 1217 328 1165 l 386 1221 q 415 1138 378 1167 q 521 1108 451 1108 q 640 1140 594 1108 q 693 1224 686 1171 m 435 1388 l 582 1243 l 551 1207 l 389 1331 l 435 1388 z "},"Ẳ":{"ha":850,"x_min":-37,"x_max":779,"o":"m 556 958 q 578 951 568 958 q 589 931 588 943 l 779 0 l 688 0 l 532 807 q 526 848 529 828 q 519 888 524 868 l 478 888 q 460 847 469 868 q 442 807 450 826 l 60 0 l -37 0 l 415 933 q 429 953 419 947 q 451 958 439 958 l 556 958 m 669 397 l 658 317 l 172 317 l 183 397 l 669 397 m 693 1224 l 740 1213 q 706 1122 735 1160 q 631 1062 678 1083 q 521 1040 583 1040 q 411 1063 456 1040 q 347 1125 367 1085 q 338 1217 328 1165 l 386 1221 q 415 1138 378 1167 q 521 1108 451 1108 q 640 1140 594 1108 q 693 1224 686 1171 m 496 1236 q 574 1270 551 1247 q 597 1329 597 1293 q 572 1365 597 1360 q 504 1356 546 1369 l 503 1401 q 612 1411 567 1426 q 657 1342 657 1396 q 616 1244 657 1283 q 500 1196 575 1206 l 496 1236 z "},"Ẵ":{"ha":850,"x_min":-37,"x_max":779,"o":"m 556 958 q 578 951 568 958 q 589 931 588 943 l 779 0 l 688 0 l 532 807 q 526 848 529 828 q 519 888 524 868 l 478 888 q 460 847 469 868 q 442 807 450 826 l 60 0 l -37 0 l 415 933 q 429 953 419 947 q 451 958 439 958 l 556 958 m 669 397 l 658 317 l 172 317 l 183 397 l 669 397 m 693 1224 l 740 1213 q 706 1122 735 1160 q 631 1062 678 1083 q 521 1040 583 1040 q 411 1063 456 1040 q 347 1125 367 1085 q 338 1217 328 1165 l 386 1221 q 415 1138 378 1167 q 521 1108 451 1108 q 640 1140 594 1108 q 693 1224 686 1171 m 460 1408 q 511 1394 490 1406 q 549 1368 532 1382 q 586 1342 567 1354 q 632 1328 606 1331 q 692 1344 674 1325 q 714 1403 711 1363 l 756 1399 q 722 1297 753 1331 q 643 1267 690 1263 q 585 1281 608 1269 q 544 1306 563 1292 q 509 1333 526 1321 q 469 1346 492 1344 q 410 1330 429 1350 q 388 1267 392 1310 l 344 1271 q 381 1378 349 1343 q 460 1408 413 1413 z "},"Â":{"ha":850,"x_min":-37,"x_max":779,"o":"m 556 958 q 578 951 568 958 q 589 931 588 943 l 779 0 l 688 0 l 532 807 q 526 848 529 828 q 519 888 524 868 l 478 888 q 460 847 469 868 q 442 807 450 826 l 60 0 l -37 0 l 415 933 q 429 953 419 947 q 451 958 439 958 l 556 958 m 669 397 l 658 317 l 172 317 l 183 397 l 669 397 m 572 1238 l 743 1060 l 708 1025 l 544 1165 l 533 1165 l 328 1025 l 300 1065 l 508 1238 l 572 1238 z "},"Ấ":{"ha":850,"x_min":-37,"x_max":892,"o":"m 556 958 q 578 951 568 958 q 589 931 588 943 l 779 0 l 688 0 l 532 807 q 526 848 529 828 q 519 888 524 868 l 478 888 q 460 847 469 868 q 442 807 450 826 l 60 0 l -37 0 l 415 933 q 429 953 419 947 q 451 958 439 958 l 556 958 m 669 397 l 658 317 l 172 317 l 183 397 l 669 397 m 576 1221 l 728 1063 l 693 1026 l 549 1149 l 538 1149 l 354 1026 l 326 1065 l 513 1221 l 576 1221 m 844 1357 l 892 1299 l 703 1161 l 671 1196 l 844 1357 z "},"Ậ":{"ha":850,"x_min":-37,"x_max":779,"o":"m 556 958 q 578 951 568 958 q 589 931 588 943 l 779 0 l 688 0 l 532 807 q 526 848 529 828 q 519 888 524 868 l 478 888 q 460 847 469 868 q 442 807 450 826 l 60 0 l -37 0 l 415 933 q 429 953 419 947 q 451 958 439 958 l 556 958 m 669 397 l 658 317 l 172 317 l 183 397 l 669 397 m 392 -78 q 414 -85 407 -78 q 419 -108 421 -93 l 408 -189 q 376 -217 404 -217 l 347 -217 q 326 -208 333 -217 q 321 -186 319 -200 l 332 -106 q 340 -84 333 -90 q 361 -78 346 -78 l 392 -78 m 572 1238 l 743 1060 l 708 1025 l 544 1165 l 532 1165 l 328 1025 l 301 1065 l 508 1238 l 572 1238 z "},"Ầ":{"ha":850,"x_min":-37,"x_max":779,"o":"m 556 958 q 578 951 568 958 q 589 931 588 943 l 779 0 l 688 0 l 532 807 q 526 848 529 828 q 519 888 524 868 l 478 888 q 460 847 469 868 q 442 807 450 826 l 60 0 l -37 0 l 415 933 q 429 953 419 947 q 451 958 439 958 l 556 958 m 669 397 l 658 317 l 172 317 l 183 397 l 669 397 m 560 1221 l 711 1063 l 676 1026 l 532 1149 l 521 1149 l 338 1026 l 310 1065 l 496 1221 l 560 1221 m 251 1354 l 390 1200 l 356 1165 l 200 1300 l 251 1354 z "},"Ẩ":{"ha":850,"x_min":-37,"x_max":831,"o":"m 556 958 q 578 951 568 958 q 589 931 588 943 l 779 0 l 688 0 l 532 807 q 526 848 529 828 q 519 888 524 868 l 478 888 q 460 847 469 868 q 442 807 450 826 l 60 0 l -37 0 l 415 933 q 429 953 419 947 q 451 958 439 958 l 556 958 m 669 397 l 658 317 l 172 317 l 183 397 l 669 397 m 565 1221 l 717 1063 l 682 1026 l 538 1149 l 526 1149 l 343 1026 l 315 1065 l 501 1221 l 565 1221 m 669 1194 q 747 1228 724 1206 q 771 1286 771 1251 q 745 1324 771 1319 q 676 1314 719 1328 l 675 1360 q 784 1369 739 1383 q 829 1300 829 1354 q 789 1204 829 1243 q 672 1156 749 1165 l 669 1194 z "},"Ẫ":{"ha":850,"x_min":-37,"x_max":779,"o":"m 556 958 q 578 951 568 958 q 589 931 588 943 l 779 0 l 688 0 l 532 807 q 526 848 529 828 q 519 888 524 868 l 478 888 q 460 847 469 868 q 442 807 450 826 l 60 0 l -37 0 l 415 933 q 429 953 419 947 q 451 958 439 958 l 556 958 m 669 397 l 658 317 l 172 317 l 183 397 l 669 397 m 567 1221 l 718 1063 l 683 1026 l 539 1149 l 528 1149 l 344 1026 l 317 1065 l 503 1221 l 567 1221 m 454 1404 q 506 1390 486 1401 q 544 1363 526 1378 q 581 1338 563 1349 q 628 1325 600 1328 q 687 1340 668 1321 q 710 1400 706 1358 l 751 1396 q 717 1292 749 1326 q 639 1261 686 1258 q 581 1276 604 1264 q 540 1303 558 1288 q 504 1330 522 1318 q 464 1343 486 1342 q 406 1326 424 1346 q 382 1263 388 1306 l 340 1267 q 376 1374 344 1340 q 454 1404 408 1408 z "},"Ȁ":{"ha":850,"x_min":-37,"x_max":779,"o":"m 556 958 q 578 951 568 958 q 589 931 588 943 l 779 0 l 688 0 l 532 807 q 526 848 529 828 q 519 888 524 868 l 478 888 q 460 847 469 868 q 442 807 450 826 l 60 0 l -37 0 l 415 933 q 429 953 419 947 q 451 958 439 958 l 556 958 m 669 397 l 658 317 l 172 317 l 183 397 l 669 397 m 486 1268 l 678 1040 l 638 1010 l 431 1226 l 486 1268 m 271 1268 l 460 1040 l 422 1010 l 214 1226 l 271 1268 z "},"Ä":{"ha":850,"x_min":-37,"x_max":779,"o":"m 556 958 q 578 951 568 958 q 589 931 588 943 l 779 0 l 688 0 l 532 807 q 526 848 529 828 q 519 888 524 868 l 478 888 q 460 847 469 868 q 442 807 450 826 l 60 0 l -37 0 l 415 933 q 429 953 419 947 q 451 958 439 958 l 556 958 m 669 397 l 658 317 l 172 317 l 183 397 l 669 397 m 433 1201 q 454 1194 449 1201 q 457 1175 460 1188 l 446 1099 q 438 1078 444 1085 q 415 1071 431 1071 l 386 1071 q 363 1097 360 1071 l 374 1175 q 383 1194 376 1188 q 406 1201 390 1201 l 433 1201 m 671 1201 q 692 1194 688 1201 q 696 1175 697 1188 l 685 1099 q 676 1078 683 1085 q 654 1071 669 1071 l 625 1071 q 601 1097 599 1071 l 613 1175 q 622 1194 615 1188 q 643 1201 629 1201 l 671 1201 z "},"Ạ":{"ha":850,"x_min":-37,"x_max":779,"o":"m 556 958 q 578 951 568 958 q 589 931 588 943 l 779 0 l 688 0 l 532 807 q 526 848 529 828 q 519 888 524 868 l 478 888 q 460 847 469 868 q 442 807 450 826 l 60 0 l -37 0 l 415 933 q 429 953 419 947 q 451 958 439 958 l 556 958 m 669 397 l 658 317 l 172 317 l 183 397 l 669 397 m 392 -78 q 413 -85 406 -78 q 418 -108 421 -93 l 407 -189 q 376 -217 403 -217 l 347 -217 q 326 -208 333 -217 q 319 -186 318 -200 l 331 -106 q 340 -84 333 -90 q 361 -78 346 -78 l 392 -78 z "},"À":{"ha":850,"x_min":-37,"x_max":779,"o":"m 556 958 q 578 951 568 958 q 589 931 588 943 l 779 0 l 688 0 l 532 807 q 526 848 529 828 q 519 888 524 868 l 478 888 q 460 847 469 868 q 442 807 450 826 l 60 0 l -37 0 l 415 933 q 429 953 419 947 q 451 958 439 958 l 556 958 m 669 397 l 658 317 l 172 317 l 183 397 l 669 397 m 363 1260 l 579 1056 l 544 1015 l 313 1197 l 363 1260 z "},"Ả":{"ha":850,"x_min":-37,"x_max":779,"o":"m 556 958 q 578 951 568 958 q 589 931 588 943 l 779 0 l 688 0 l 532 807 q 526 848 529 828 q 519 888 524 868 l 478 888 q 460 847 469 868 q 442 807 450 826 l 60 0 l -37 0 l 415 933 q 429 953 419 947 q 451 958 439 958 l 556 958 m 669 397 l 658 317 l 172 317 l 183 397 l 669 397 m 482 1081 q 567 1126 542 1093 q 593 1201 593 1160 q 567 1247 593 1236 q 490 1243 542 1257 l 489 1293 q 611 1294 564 1315 q 658 1213 658 1274 q 613 1097 658 1147 q 486 1036 567 1047 l 482 1081 z "},"Ȃ":{"ha":850,"x_min":-37,"x_max":779,"o":"m 556 958 q 578 951 568 958 q 589 931 588 943 l 779 0 l 688 0 l 532 807 q 526 848 529 828 q 519 888 524 868 l 478 888 q 460 847 469 868 q 442 807 450 826 l 60 0 l -37 0 l 415 933 q 429 953 419 947 q 451 958 439 958 l 556 958 m 669 397 l 658 317 l 172 317 l 183 397 l 669 397 m 363 1040 l 314 1051 q 349 1143 321 1104 q 425 1203 378 1182 q 533 1224 472 1224 q 644 1202 600 1224 q 708 1141 689 1181 q 717 1049 726 1101 l 668 1044 q 640 1127 676 1099 q 535 1156 603 1156 q 415 1125 461 1156 q 363 1040 368 1094 z "},"Ā":{"ha":850,"x_min":-37,"x_max":779,"o":"m 556 958 q 578 951 568 958 q 589 931 588 943 l 779 0 l 688 0 l 532 807 q 526 848 529 828 q 519 888 524 868 l 478 888 q 460 847 469 868 q 442 807 450 826 l 60 0 l -37 0 l 415 933 q 429 953 419 947 q 451 958 439 958 l 556 958 m 669 397 l 658 317 l 172 317 l 183 397 l 669 397 m 722 1168 l 714 1101 l 335 1101 l 343 1168 l 722 1168 z "},"Ą":{"ha":850,"x_min":-37,"x_max":779,"o":"m 556 958 q 578 951 568 958 q 589 931 588 943 l 779 0 l 688 0 l 532 807 q 526 848 529 828 q 519 888 524 868 l 478 888 q 460 847 469 868 q 442 807 450 826 l 60 0 l -37 0 l 415 933 q 429 953 419 947 q 451 958 439 958 l 556 958 m 669 397 l 658 317 l 172 317 l 183 397 l 669 397 m 735 4 l 779 0 q 709 -77 742 -36 q 649 -168 676 -118 q 649 -238 621 -222 q 751 -231 678 -254 l 763 -269 q 654 -297 697 -296 q 589 -278 611 -297 q 566 -229 567 -260 q 582 -162 565 -199 q 635 -86 600 -128 q 735 4 671 -44 z "},"Å":{"ha":850,"x_min":-37,"x_max":779,"o":"m 556 958 q 578 951 568 958 q 589 931 588 943 l 779 0 l 688 0 l 532 807 q 526 848 529 828 q 519 888 524 868 l 478 888 q 460 847 469 868 q 442 807 450 826 l 60 0 l -37 0 l 415 933 q 429 953 419 947 q 451 958 439 958 l 556 958 m 669 397 l 658 317 l 172 317 l 183 397 l 669 397 m 540 1278 q 637 1242 600 1278 q 674 1150 674 1207 q 630 1040 674 1085 q 519 996 586 996 q 422 1031 458 996 q 385 1124 385 1067 q 429 1233 385 1189 q 540 1278 474 1278 m 539 1229 q 466 1199 493 1229 q 439 1128 439 1169 q 460 1069 439 1093 q 521 1044 481 1044 q 594 1075 567 1044 q 621 1147 621 1106 q 599 1206 621 1182 q 539 1229 578 1229 z "},"Ǻ":{"ha":850,"x_min":-37,"x_max":779,"o":"m 538 875 q 559 867 550 875 q 571 847 568 860 l 779 0 l 688 0 l 514 724 q 508 765 510 744 q 501 804 506 785 l 460 804 q 442 764 451 785 q 424 724 432 743 l 60 0 l -37 0 l 397 850 q 433 875 408 875 l 538 875 m 676 328 l 664 247 l 157 247 l 167 328 l 676 328 m 521 1203 q 617 1167 581 1203 q 654 1075 654 1132 q 610 966 654 1011 q 500 921 567 921 q 402 956 439 921 q 365 1049 365 992 q 410 1159 365 1115 q 521 1203 454 1203 m 519 1154 q 447 1124 474 1154 q 419 1054 419 1094 q 440 994 419 1018 q 501 969 461 969 q 574 1001 547 969 q 601 1074 601 1032 q 580 1131 601 1107 q 519 1154 558 1154 m 626 1399 l 664 1332 l 454 1231 l 429 1271 l 626 1399 z "},"Ã":{"ha":850,"x_min":-37,"x_max":779,"o":"m 556 958 q 578 951 568 958 q 589 931 588 943 l 779 0 l 688 0 l 532 807 q 526 848 529 828 q 519 888 524 868 l 478 888 q 460 847 469 868 q 442 807 450 826 l 60 0 l -37 0 l 415 933 q 429 953 419 947 q 451 958 439 958 l 556 958 m 669 397 l 658 317 l 172 317 l 183 397 l 669 397 m 429 1215 q 485 1201 463 1213 q 528 1174 508 1189 q 569 1147 549 1160 q 619 1132 590 1135 q 683 1148 663 1128 q 708 1210 703 1168 l 751 1207 q 715 1098 749 1135 q 631 1065 681 1061 q 569 1081 594 1068 q 524 1108 544 1093 q 483 1135 503 1122 q 439 1150 464 1147 q 377 1133 397 1154 q 351 1067 357 1111 l 307 1071 q 347 1183 311 1147 q 429 1215 382 1219 z "},"Æ":{"ha":1263,"x_min":-53,"x_max":1265,"o":"m 865 960 q 1088 958 996 960 q 1265 951 1179 957 l 1254 881 l 893 881 q 816 856 847 881 q 778 778 785 831 l 694 175 q 708 103 688 128 q 778 78 729 78 l 1142 78 l 1138 7 q 949 0 1043 1 q 761 -1 856 -1 q 638 46 681 -1 q 607 174 594 93 l 693 792 q 715 851 697 822 q 754 892 732 881 l 749 892 q 699 859 726 882 q 644 797 672 836 l 47 0 l -53 0 l 567 821 q 630 891 599 864 q 696 933 661 918 q 772 953 731 947 q 865 960 813 960 m 668 413 l 656 335 l 250 335 l 276 415 l 668 413 m 679 546 l 1151 544 l 1142 472 l 668 472 l 679 546 z "},"Ǽ":{"ha":1263,"x_min":-53,"x_max":1265,"o":"m 865 960 q 1088 958 996 960 q 1265 951 1179 957 l 1254 881 l 893 881 q 816 856 847 881 q 778 778 785 831 l 694 175 q 708 103 688 128 q 778 78 729 78 l 1142 78 l 1138 7 q 949 0 1043 1 q 761 -1 856 -1 q 638 46 681 -1 q 607 174 594 93 l 693 792 q 715 851 697 822 q 754 892 732 881 l 749 892 q 699 859 726 882 q 644 797 672 836 l 47 0 l -53 0 l 567 821 q 630 891 599 864 q 696 933 661 918 q 772 953 731 947 q 865 960 813 960 m 668 413 l 656 335 l 250 335 l 276 415 l 668 413 m 679 546 l 1151 544 l 1142 472 l 668 472 l 679 546 m 1014 1261 l 1060 1193 l 789 1015 l 758 1057 l 1014 1261 z "},"B":{"ha":854,"x_min":71,"x_max":797,"o":"m 499 969 q 681 947 614 969 q 773 869 749 925 q 783 715 797 814 q 724 560 769 614 q 592 499 679 507 l 590 493 q 728 415 696 483 q 744 235 761 347 q 694 83 731 138 q 591 9 658 29 q 415 -11 524 -11 q 278 -10 335 -11 q 172 -7 221 -10 q 71 0 124 -4 l 99 72 q 210 69 129 71 q 403 68 292 68 q 540 83 488 68 q 619 140 592 99 q 656 256 646 181 q 652 381 668 338 q 589 442 636 425 q 456 461 542 460 l 154 461 l 165 532 l 460 532 q 585 549 536 533 q 659 603 633 564 q 694 714 685 643 q 690 826 706 788 q 626 877 674 864 q 496 890 579 890 q 375 890 429 890 q 282 890 321 890 q 219 889 243 890 l 206 958 q 294 966 253 964 q 385 969 336 968 q 499 969 433 969 m 294 958 l 160 0 l 71 0 l 206 958 l 294 958 z "},"C":{"ha":782,"x_min":76,"x_max":788,"o":"m 533 975 q 637 972 593 975 q 715 964 681 969 q 788 947 750 958 l 771 879 q 697 888 732 885 q 624 893 663 892 q 533 894 586 894 q 399 874 454 894 q 303 806 343 853 q 238 678 264 758 q 197 475 213 597 q 187 231 175 321 q 252 103 199 142 q 406 64 306 65 q 555 68 494 64 q 674 81 615 72 l 681 13 q 558 -10 619 -3 q 406 -17 496 -17 q 194 34 269 -17 q 98 195 119 85 q 101 483 76 306 q 153 714 121 619 q 236 866 186 808 q 359 949 286 924 q 533 975 432 975 z "},"Ć":{"ha":782,"x_min":76,"x_max":788,"o":"m 533 975 q 637 972 593 975 q 715 964 681 969 q 788 947 750 958 l 771 879 q 697 888 732 885 q 624 893 663 892 q 533 894 586 894 q 399 874 454 894 q 303 806 343 853 q 238 678 264 758 q 197 475 213 597 q 187 231 175 321 q 252 103 199 142 q 406 64 306 65 q 555 68 494 64 q 674 81 615 72 l 681 13 q 558 -10 619 -3 q 406 -17 496 -17 q 194 34 269 -17 q 98 195 119 85 q 101 483 76 306 q 153 714 121 619 q 236 866 186 808 q 359 949 286 924 q 533 975 432 975 m 708 1261 l 753 1193 l 483 1015 l 453 1057 l 708 1261 z "},"Č":{"ha":782,"x_min":76,"x_max":788,"o":"m 533 975 q 637 972 593 975 q 715 964 681 969 q 788 947 750 958 l 771 879 q 697 888 732 885 q 624 893 663 892 q 533 894 586 894 q 399 874 454 894 q 303 806 343 853 q 238 678 264 758 q 197 475 213 597 q 187 231 175 321 q 252 103 199 142 q 406 64 306 65 q 555 68 494 64 q 674 81 615 72 l 681 13 q 558 -10 619 -3 q 406 -17 496 -17 q 194 34 269 -17 q 98 195 119 85 q 101 483 76 306 q 153 714 121 619 q 236 866 186 808 q 359 949 286 924 q 533 975 432 975 m 749 1247 l 778 1208 l 568 1036 l 503 1036 l 339 1214 l 376 1247 l 535 1108 l 546 1108 l 749 1247 z "},"Ç":{"ha":782,"x_min":76,"x_max":788,"o":"m 533 975 q 637 972 593 975 q 715 964 681 969 q 788 947 750 958 l 771 879 q 697 888 732 885 q 624 893 663 892 q 533 894 586 894 q 399 874 454 894 q 303 806 343 853 q 238 678 264 758 q 197 475 213 597 q 187 231 175 321 q 252 103 199 142 q 406 64 306 65 q 555 68 494 64 q 674 81 615 72 l 681 13 q 558 -10 619 -3 q 406 -17 496 -17 q 194 34 269 -17 q 98 195 119 85 q 101 483 76 306 q 153 714 121 619 q 236 866 186 808 q 359 949 286 924 q 533 975 432 975 m 328 -79 q 406 -83 375 -75 q 450 -112 438 -90 q 456 -174 463 -133 q 415 -265 449 -228 q 331 -320 382 -303 q 217 -329 279 -337 l 233 -282 q 340 -251 297 -283 q 390 -171 383 -218 q 380 -133 394 -143 q 317 -122 365 -124 l 328 -79 z "},"Ḉ":{"ha":782,"x_min":76,"x_max":788,"o":"m 533 975 q 637 972 593 975 q 715 964 681 969 q 788 947 750 958 l 771 879 q 697 888 732 885 q 624 893 663 892 q 533 894 586 894 q 399 874 454 894 q 303 806 343 853 q 238 678 264 758 q 197 475 213 597 q 187 231 175 321 q 252 103 199 142 q 406 64 306 65 q 555 68 494 64 q 674 81 615 72 l 681 13 q 558 -10 619 -3 q 406 -17 496 -17 q 194 34 269 -17 q 98 195 119 85 q 101 483 76 306 q 153 714 121 619 q 236 866 186 808 q 359 949 286 924 q 533 975 432 975 m 329 -79 q 408 -83 376 -75 q 451 -112 439 -90 q 457 -174 464 -133 q 415 -265 449 -228 q 331 -320 382 -303 q 218 -329 281 -337 l 235 -282 q 341 -251 299 -283 q 392 -171 383 -218 q 381 -133 396 -143 q 318 -122 367 -124 l 329 -79 m 707 1261 l 753 1193 l 482 1015 l 451 1057 l 707 1261 z "},"Ĉ":{"ha":782,"x_min":76,"x_max":788,"o":"m 533 975 q 637 972 593 975 q 715 964 681 969 q 788 947 750 958 l 771 879 q 697 888 732 885 q 624 893 663 892 q 533 894 586 894 q 399 874 454 894 q 303 806 343 853 q 238 678 264 758 q 197 475 213 597 q 187 231 175 321 q 252 103 199 142 q 406 64 306 65 q 555 68 494 64 q 674 81 615 72 l 681 13 q 558 -10 619 -3 q 406 -17 496 -17 q 194 34 269 -17 q 98 195 119 85 q 101 483 76 306 q 153 714 121 619 q 236 866 186 808 q 359 949 286 924 q 533 975 432 975 m 590 1238 l 761 1060 l 726 1025 l 563 1165 l 551 1165 l 346 1025 l 318 1065 l 526 1238 l 590 1238 z "},"Ċ":{"ha":782,"x_min":76,"x_max":788,"o":"m 533 975 q 637 972 593 975 q 715 964 681 969 q 788 947 750 958 l 771 879 q 697 888 732 885 q 624 893 663 892 q 533 894 586 894 q 399 874 454 894 q 303 806 343 853 q 238 678 264 758 q 197 475 213 597 q 187 231 175 321 q 252 103 199 142 q 406 64 306 65 q 555 68 494 64 q 674 81 615 72 l 681 13 q 558 -10 619 -3 q 406 -17 496 -17 q 194 34 269 -17 q 98 195 119 85 q 101 483 76 306 q 153 714 121 619 q 236 866 186 808 q 359 949 286 924 q 533 975 432 975 m 569 1201 q 590 1194 583 1201 q 596 1171 597 1186 l 585 1090 q 553 1063 581 1063 l 525 1063 q 503 1071 510 1063 q 497 1093 496 1079 l 508 1174 q 517 1195 510 1189 q 539 1201 524 1201 l 569 1201 z "},"D":{"ha":918,"x_min":71,"x_max":861,"o":"m 521 971 q 739 924 661 971 q 839 768 817 876 q 836 475 861 660 q 781 231 815 326 q 694 82 746 135 q 568 8 643 29 q 389 -12 493 -12 q 227 -9 310 -12 q 71 0 144 -6 l 119 72 q 252 69 181 71 q 388 68 324 68 q 531 86 472 68 q 631 150 590 104 q 698 277 672 196 q 742 483 724 358 q 756 684 758 604 q 727 809 753 764 q 651 873 701 854 q 519 892 600 892 q 426 891 476 892 q 327 889 376 890 q 239 886 278 888 l 206 958 q 308 965 253 963 q 417 969 363 968 q 521 971 472 971 m 297 958 l 163 0 l 71 0 l 206 958 l 297 958 z "},"Ǆ":{"ha":1686,"x_min":71,"x_max":1692,"o":"m 521 971 q 739 924 661 971 q 839 768 817 876 q 836 475 861 660 q 781 231 815 326 q 694 82 746 135 q 568 8 643 29 q 389 -12 493 -12 q 227 -9 310 -12 q 71 0 144 -6 l 119 72 q 252 69 181 71 q 388 68 324 68 q 531 86 472 68 q 631 150 590 104 q 698 277 672 196 q 742 483 724 358 q 756 684 758 604 q 727 809 753 764 q 651 873 701 854 q 519 892 600 892 q 426 891 476 892 q 327 889 376 890 q 239 886 278 888 l 206 958 q 308 965 253 963 q 417 969 363 968 q 521 971 472 971 m 297 958 l 163 0 l 71 0 l 206 958 l 297 958 m 1578 881 l 1681 879 l 1031 78 l 931 79 l 1578 881 m 1576 79 l 1564 0 l 919 0 l 931 79 l 1576 79 m 1692 958 l 1681 879 l 1049 879 l 1060 958 l 1692 958 m 1593 1247 l 1622 1208 l 1413 1036 l 1347 1036 l 1183 1214 l 1221 1247 l 1379 1108 l 1390 1108 l 1593 1247 z "},"Ð":{"ha":918,"x_min":39,"x_max":861,"o":"m 465 538 l 458 485 l 39 485 l 47 538 l 465 538 m 521 971 q 739 924 661 971 q 839 768 817 876 q 836 475 861 660 q 781 231 815 326 q 694 82 746 135 q 568 8 643 29 q 389 -12 493 -12 q 227 -9 310 -12 q 71 0 144 -6 l 119 72 q 252 69 181 71 q 388 68 324 68 q 531 86 472 68 q 631 150 590 104 q 698 277 672 196 q 742 483 724 358 q 756 684 758 604 q 727 809 753 764 q 651 873 701 854 q 519 892 600 892 q 426 891 476 892 q 327 889 376 890 q 239 886 278 888 l 206 958 q 308 965 253 963 q 417 969 363 968 q 521 971 472 971 m 297 958 l 163 0 l 71 0 l 206 958 l 297 958 z "},"Ď":{"ha":918,"x_min":71,"x_max":861,"o":"m 521 971 q 739 924 661 971 q 839 768 817 876 q 836 475 861 660 q 781 231 815 326 q 694 82 746 135 q 568 8 643 29 q 389 -12 493 -12 q 227 -9 310 -12 q 71 0 144 -6 l 119 72 q 252 69 181 71 q 388 68 324 68 q 531 86 472 68 q 631 150 590 104 q 698 277 672 196 q 742 483 724 358 q 756 684 758 604 q 727 809 753 764 q 651 873 701 854 q 519 892 600 892 q 426 891 476 892 q 327 889 376 890 q 239 886 278 888 l 206 958 q 308 965 253 963 q 417 969 363 968 q 521 971 472 971 m 297 958 l 163 0 l 71 0 l 206 958 l 297 958 m 742 1247 l 771 1208 l 561 1036 l 496 1036 l 332 1214 l 369 1247 l 528 1108 l 539 1108 l 742 1247 z "},"Đ":{"ha":918,"x_min":39,"x_max":861,"o":"m 465 538 l 458 485 l 39 485 l 47 538 l 465 538 m 521 971 q 739 924 661 971 q 839 768 817 876 q 836 475 861 660 q 781 231 815 326 q 694 82 746 135 q 568 8 643 29 q 389 -12 493 -12 q 227 -9 310 -12 q 71 0 144 -6 l 119 72 q 252 69 181 71 q 388 68 324 68 q 531 86 472 68 q 631 150 590 104 q 698 277 672 196 q 742 483 724 358 q 756 684 758 604 q 727 809 753 764 q 651 873 701 854 q 519 892 600 892 q 426 891 476 892 q 327 889 376 890 q 239 886 278 888 l 206 958 q 308 965 253 963 q 417 969 363 968 q 521 971 472 971 m 297 958 l 163 0 l 71 0 l 206 958 l 297 958 z "},"Ḍ":{"ha":918,"x_min":71,"x_max":861,"o":"m 521 971 q 739 924 661 971 q 839 768 817 876 q 836 475 861 660 q 781 231 815 326 q 694 82 746 135 q 568 8 643 29 q 389 -12 493 -12 q 227 -9 310 -12 q 71 0 144 -6 l 119 72 q 252 69 181 71 q 388 68 324 68 q 531 86 472 68 q 631 150 590 104 q 698 277 672 196 q 742 483 724 358 q 756 684 758 604 q 727 809 753 764 q 651 873 701 854 q 519 892 600 892 q 426 891 476 892 q 327 889 376 890 q 239 886 278 888 l 206 958 q 308 965 253 963 q 417 969 363 968 q 521 971 472 971 m 297 958 l 163 0 l 71 0 l 206 958 l 297 958 m 394 -94 q 417 -102 410 -94 q 422 -125 424 -110 l 411 -206 q 379 -233 407 -233 l 350 -233 q 329 -225 336 -233 q 324 -203 322 -217 l 335 -122 q 342 -101 336 -107 q 364 -94 349 -94 l 394 -94 z "},"Ḏ":{"ha":918,"x_min":71,"x_max":861,"o":"m 521 971 q 739 924 661 971 q 839 768 817 876 q 836 475 861 660 q 781 231 815 326 q 694 82 746 135 q 568 8 643 29 q 389 -12 493 -12 q 227 -9 310 -12 q 71 0 144 -6 l 119 72 q 252 69 181 71 q 388 68 324 68 q 531 86 472 68 q 631 150 590 104 q 698 277 672 196 q 742 483 724 358 q 756 684 758 604 q 727 809 753 764 q 651 873 701 854 q 519 892 600 892 q 426 891 476 892 q 327 889 376 890 q 239 886 278 888 l 206 958 q 308 965 253 963 q 417 969 363 968 q 521 971 472 971 m 297 958 l 163 0 l 71 0 l 206 958 l 297 958 m 567 -129 l 557 -197 l 179 -197 l 189 -129 l 567 -129 z "},"ǅ":{"ha":1608,"x_min":71,"x_max":1574,"o":"m 521 971 q 739 924 661 971 q 839 768 817 876 q 836 475 861 660 q 781 231 815 326 q 694 82 746 135 q 568 8 643 29 q 389 -12 493 -12 q 227 -9 310 -12 q 71 0 144 -6 l 119 72 q 252 69 181 71 q 388 68 324 68 q 531 86 472 68 q 631 150 590 104 q 698 277 672 196 q 742 483 724 358 q 756 684 758 604 q 727 809 753 764 q 651 873 701 854 q 519 892 600 892 q 426 891 476 892 q 327 889 376 890 q 239 886 278 888 l 206 958 q 308 965 253 963 q 417 969 363 968 q 521 971 472 971 m 297 958 l 163 0 l 71 0 l 206 958 l 297 958 m 1461 601 l 1565 600 l 1042 71 l 938 72 l 1461 601 m 1494 72 l 1485 0 l 928 0 l 939 72 l 1494 72 m 1575 674 l 1564 600 l 1018 600 l 1028 674 l 1575 674 m 1524 996 l 1553 957 l 1343 785 l 1278 785 l 1114 963 l 1151 996 l 1310 857 l 1321 857 l 1524 996 z "},"E":{"ha":769,"x_min":75,"x_max":774,"o":"m 361 960 q 501 960 431 960 q 640 958 571 960 q 774 951 708 956 l 761 881 l 374 881 q 296 856 322 881 q 263 779 269 831 l 179 175 q 193 103 172 128 q 263 78 214 78 l 647 78 l 646 7 q 515 1 582 3 q 382 -1 449 0 q 250 -1 315 -1 q 117 47 160 -1 q 86 174 75 94 l 175 804 q 232 917 185 875 q 361 960 279 960 m 164 544 l 658 544 l 649 474 l 153 472 l 164 544 z "},"É":{"ha":769,"x_min":75,"x_max":774,"o":"m 361 960 q 501 960 431 960 q 640 958 571 960 q 774 951 708 956 l 761 881 l 374 881 q 296 856 322 881 q 263 779 269 831 l 179 175 q 193 103 172 128 q 263 78 214 78 l 647 78 l 646 7 q 515 1 582 3 q 382 -1 449 0 q 250 -1 315 -1 q 117 47 160 -1 q 86 174 75 94 l 175 804 q 232 917 185 875 q 361 960 279 960 m 164 544 l 658 544 l 649 474 l 153 472 l 164 544 m 690 1292 l 735 1224 l 465 1046 l 435 1088 l 690 1292 z "},"Ĕ":{"ha":769,"x_min":75,"x_max":774,"o":"m 361 960 q 501 960 431 960 q 640 958 571 960 q 774 951 708 956 l 761 881 l 374 881 q 296 856 322 881 q 263 779 269 831 l 179 175 q 193 103 172 128 q 263 78 214 78 l 647 78 l 646 7 q 515 1 582 3 q 382 -1 449 0 q 250 -1 315 -1 q 117 47 160 -1 q 86 174 75 94 l 175 804 q 232 917 185 875 q 361 960 279 960 m 164 544 l 658 544 l 649 474 l 153 472 l 164 544 m 694 1254 l 742 1243 q 708 1152 736 1190 q 632 1092 679 1114 q 522 1071 585 1071 q 413 1093 457 1071 q 349 1156 368 1115 q 339 1247 329 1196 l 388 1251 q 416 1168 379 1197 q 522 1139 453 1139 q 642 1170 596 1139 q 694 1254 688 1201 z "},"Ě":{"ha":769,"x_min":75,"x_max":774,"o":"m 361 960 q 501 960 431 960 q 640 958 571 960 q 774 951 708 956 l 761 881 l 374 881 q 296 856 322 881 q 263 779 269 831 l 179 175 q 193 103 172 128 q 263 78 214 78 l 647 78 l 646 7 q 515 1 582 3 q 382 -1 449 0 q 250 -1 315 -1 q 117 47 160 -1 q 86 174 75 94 l 175 804 q 232 917 185 875 q 361 960 279 960 m 164 544 l 658 544 l 649 474 l 153 472 l 164 544 m 731 1278 l 760 1239 l 550 1067 l 485 1067 l 321 1244 l 358 1278 l 517 1139 l 528 1139 l 731 1278 z "},"Ḝ":{"ha":769,"x_min":75,"x_max":774,"o":"m 361 960 q 501 960 431 960 q 640 958 571 960 q 774 951 708 956 l 761 881 l 374 881 q 296 856 322 881 q 263 779 269 831 l 179 175 q 193 103 172 128 q 263 78 214 78 l 647 78 l 646 7 q 515 1 582 3 q 382 -1 449 0 q 250 -1 315 -1 q 117 47 160 -1 q 86 174 75 94 l 175 804 q 232 917 185 875 q 361 960 279 960 m 164 544 l 658 544 l 649 474 l 153 472 l 164 544 m 300 -62 q 378 -66 347 -58 q 422 -95 410 -74 q 428 -157 435 -117 q 386 -249 419 -211 q 302 -303 353 -286 q 189 -312 251 -321 l 206 -265 q 312 -234 269 -267 q 363 -154 354 -201 q 352 -117 367 -126 q 289 -106 338 -107 l 300 -62 m 694 1254 l 742 1243 q 708 1152 736 1190 q 631 1092 679 1114 q 521 1071 583 1071 q 413 1093 457 1071 q 349 1156 368 1115 q 339 1247 329 1196 l 388 1251 q 416 1168 379 1197 q 521 1139 453 1139 q 641 1170 594 1139 q 694 1254 688 1201 z "},"Ê":{"ha":769,"x_min":75,"x_max":774,"o":"m 361 960 q 501 960 431 960 q 640 958 571 960 q 774 951 708 956 l 761 881 l 374 881 q 296 856 322 881 q 263 779 269 831 l 179 175 q 193 103 172 128 q 263 78 214 78 l 647 78 l 646 7 q 515 1 582 3 q 382 -1 449 0 q 250 -1 315 -1 q 117 47 160 -1 q 86 174 75 94 l 175 804 q 232 917 185 875 q 361 960 279 960 m 164 544 l 658 544 l 649 474 l 153 472 l 164 544 m 572 1268 l 743 1090 l 708 1056 l 544 1196 l 533 1196 l 328 1056 l 300 1096 l 508 1268 l 572 1268 z "},"Ế":{"ha":769,"x_min":75,"x_max":893,"o":"m 361 960 q 501 960 431 960 q 640 958 571 960 q 774 951 708 956 l 761 881 l 374 881 q 296 856 322 881 q 263 779 269 831 l 179 175 q 193 103 172 128 q 263 78 214 78 l 647 78 l 646 7 q 515 1 582 3 q 382 -1 449 0 q 250 -1 315 -1 q 117 47 160 -1 q 86 174 75 94 l 175 804 q 232 917 185 875 q 361 960 279 960 m 164 544 l 658 544 l 649 474 l 153 472 l 164 544 m 578 1251 l 729 1093 l 694 1057 l 550 1179 l 539 1179 l 356 1057 l 328 1096 l 514 1251 l 578 1251 m 846 1388 l 893 1329 l 704 1192 l 672 1226 l 846 1388 z "},"Ệ":{"ha":769,"x_min":75,"x_max":774,"o":"m 361 960 q 501 960 431 960 q 640 958 571 960 q 774 951 708 956 l 761 881 l 374 881 q 296 856 322 881 q 263 779 269 831 l 179 175 q 193 103 172 128 q 263 78 214 78 l 647 78 l 646 7 q 515 1 582 3 q 382 -1 449 0 q 250 -1 315 -1 q 117 47 160 -1 q 86 174 75 94 l 175 804 q 232 917 185 875 q 361 960 279 960 m 164 544 l 658 544 l 649 474 l 153 472 l 164 544 m 371 -78 q 393 -85 386 -78 q 399 -108 400 -93 l 388 -189 q 356 -217 383 -217 l 326 -217 q 306 -208 313 -217 q 300 -186 299 -200 l 311 -106 q 319 -84 313 -90 q 340 -78 325 -78 l 371 -78 m 574 1268 l 744 1090 l 710 1056 l 546 1196 l 533 1196 l 329 1056 l 303 1096 l 510 1268 l 574 1268 z "},"Ề":{"ha":769,"x_min":75,"x_max":774,"o":"m 361 960 q 501 960 431 960 q 640 958 571 960 q 774 951 708 956 l 761 881 l 374 881 q 296 856 322 881 q 263 779 269 831 l 179 175 q 193 103 172 128 q 263 78 214 78 l 647 78 l 646 7 q 515 1 582 3 q 382 -1 449 0 q 250 -1 315 -1 q 117 47 160 -1 q 86 174 75 94 l 175 804 q 232 917 185 875 q 361 960 279 960 m 164 544 l 658 544 l 649 474 l 153 472 l 164 544 m 561 1251 l 713 1093 l 678 1057 l 533 1179 l 522 1179 l 339 1057 l 311 1096 l 497 1251 l 561 1251 m 253 1385 l 392 1231 l 357 1196 l 201 1331 l 253 1385 z "},"Ể":{"ha":769,"x_min":75,"x_max":832,"o":"m 361 960 q 501 960 431 960 q 640 958 571 960 q 774 951 708 956 l 761 881 l 374 881 q 296 856 322 881 q 263 779 269 831 l 179 175 q 193 103 172 128 q 263 78 214 78 l 647 78 l 646 7 q 515 1 582 3 q 382 -1 449 0 q 250 -1 315 -1 q 117 47 160 -1 q 86 174 75 94 l 175 804 q 232 917 185 875 q 361 960 279 960 m 164 544 l 658 544 l 649 474 l 153 472 l 164 544 m 567 1251 l 718 1093 l 683 1057 l 539 1179 l 528 1179 l 344 1057 l 317 1096 l 503 1251 l 567 1251 m 671 1225 q 749 1259 725 1236 q 772 1317 772 1282 q 747 1354 772 1350 q 678 1344 721 1358 l 676 1390 q 785 1399 740 1414 q 831 1331 831 1385 q 790 1235 831 1274 q 674 1186 750 1196 l 671 1225 z "},"Ễ":{"ha":769,"x_min":75,"x_max":774,"o":"m 361 960 q 501 960 431 960 q 640 958 571 960 q 774 951 708 956 l 761 881 l 374 881 q 296 856 322 881 q 263 779 269 831 l 179 175 q 193 103 172 128 q 263 78 214 78 l 647 78 l 646 7 q 515 1 582 3 q 382 -1 449 0 q 250 -1 315 -1 q 117 47 160 -1 q 86 174 75 94 l 175 804 q 232 917 185 875 q 361 960 279 960 m 164 544 l 658 544 l 649 474 l 153 472 l 164 544 m 568 1251 l 719 1093 l 685 1057 l 540 1179 l 529 1179 l 346 1057 l 318 1096 l 504 1251 l 568 1251 m 456 1435 q 508 1420 488 1432 q 546 1394 528 1408 q 583 1369 564 1379 q 629 1356 601 1358 q 688 1370 669 1351 q 711 1431 707 1389 l 753 1426 q 719 1323 750 1357 q 640 1292 688 1289 q 583 1306 606 1294 q 542 1333 560 1318 q 506 1360 524 1349 q 465 1374 488 1372 q 407 1356 425 1376 q 383 1293 389 1336 l 342 1297 q 378 1405 346 1371 q 456 1435 410 1439 z "},"Ȅ":{"ha":769,"x_min":75,"x_max":774,"o":"m 361 960 q 501 960 431 960 q 640 958 571 960 q 774 951 708 956 l 761 881 l 374 881 q 296 856 322 881 q 263 779 269 831 l 179 175 q 193 103 172 128 q 263 78 214 78 l 647 78 l 646 7 q 515 1 582 3 q 382 -1 449 0 q 250 -1 315 -1 q 117 47 160 -1 q 86 174 75 94 l 175 804 q 232 917 185 875 q 361 960 279 960 m 164 544 l 658 544 l 649 474 l 153 472 l 164 544 m 488 1299 l 679 1071 l 639 1040 l 432 1257 l 488 1299 m 272 1299 l 461 1071 l 424 1040 l 215 1257 l 272 1299 z "},"Ë":{"ha":769,"x_min":75,"x_max":774,"o":"m 361 960 q 501 960 431 960 q 640 958 571 960 q 774 951 708 956 l 761 881 l 374 881 q 296 856 322 881 q 263 779 269 831 l 179 175 q 193 103 172 128 q 263 78 214 78 l 647 78 l 646 7 q 515 1 582 3 q 382 -1 449 0 q 250 -1 315 -1 q 117 47 160 -1 q 86 174 75 94 l 175 804 q 232 917 185 875 q 361 960 279 960 m 164 544 l 658 544 l 649 474 l 153 472 l 164 544 m 433 1231 q 454 1224 449 1231 q 457 1204 460 1217 l 446 1128 q 438 1107 444 1114 q 415 1100 431 1100 l 386 1100 q 363 1126 360 1100 l 374 1204 q 383 1224 376 1217 q 406 1231 390 1231 l 433 1231 m 671 1231 q 692 1224 688 1231 q 696 1204 697 1217 l 685 1128 q 676 1107 683 1114 q 654 1100 669 1100 l 625 1100 q 601 1126 599 1100 l 613 1204 q 622 1224 615 1217 q 643 1231 629 1231 l 671 1231 z "},"Ė":{"ha":769,"x_min":75,"x_max":774,"o":"m 361 960 q 501 960 431 960 q 640 958 571 960 q 774 951 708 956 l 761 881 l 374 881 q 296 856 322 881 q 263 779 269 831 l 179 175 q 193 103 172 128 q 263 78 214 78 l 647 78 l 646 7 q 515 1 582 3 q 382 -1 449 0 q 250 -1 315 -1 q 117 47 160 -1 q 86 174 75 94 l 175 804 q 232 917 185 875 q 361 960 279 960 m 164 544 l 658 544 l 649 474 l 153 472 l 164 544 m 553 1231 q 574 1223 567 1231 q 579 1200 581 1215 l 568 1119 q 536 1092 564 1092 l 508 1092 q 486 1100 493 1092 q 481 1122 479 1108 l 492 1203 q 500 1224 493 1218 q 522 1231 507 1231 l 553 1231 z "},"Ẹ":{"ha":769,"x_min":75,"x_max":774,"o":"m 361 960 q 501 960 431 960 q 640 958 571 960 q 774 951 708 956 l 761 881 l 374 881 q 296 856 322 881 q 263 779 269 831 l 179 175 q 193 103 172 128 q 263 78 214 78 l 647 78 l 646 7 q 515 1 582 3 q 382 -1 449 0 q 250 -1 315 -1 q 117 47 160 -1 q 86 174 75 94 l 175 804 q 232 917 185 875 q 361 960 279 960 m 164 544 l 658 544 l 649 474 l 153 472 l 164 544 m 372 -78 q 394 -85 386 -78 q 399 -108 401 -93 l 388 -189 q 357 -217 383 -217 l 328 -217 q 306 -208 314 -217 q 300 -186 299 -200 l 311 -106 q 320 -84 314 -90 q 342 -78 326 -78 l 372 -78 z "},"È":{"ha":769,"x_min":75,"x_max":774,"o":"m 361 960 q 501 960 431 960 q 640 958 571 960 q 774 951 708 956 l 761 881 l 374 881 q 296 856 322 881 q 263 779 269 831 l 179 175 q 193 103 172 128 q 263 78 214 78 l 647 78 l 646 7 q 515 1 582 3 q 382 -1 449 0 q 250 -1 315 -1 q 117 47 160 -1 q 86 174 75 94 l 175 804 q 232 917 185 875 q 361 960 279 960 m 164 544 l 658 544 l 649 474 l 153 472 l 164 544 m 364 1290 l 581 1086 l 546 1046 l 314 1228 l 364 1290 z "},"Ẻ":{"ha":769,"x_min":75,"x_max":774,"o":"m 361 960 q 501 960 431 960 q 640 958 571 960 q 774 951 708 956 l 761 881 l 374 881 q 296 856 322 881 q 263 779 269 831 l 179 175 q 193 103 172 128 q 263 78 214 78 l 647 78 l 646 7 q 515 1 582 3 q 382 -1 449 0 q 250 -1 315 -1 q 117 47 160 -1 q 86 174 75 94 l 175 804 q 232 917 185 875 q 361 960 279 960 m 164 544 l 658 544 l 649 474 l 153 472 l 164 544 m 483 1111 q 569 1157 543 1124 q 594 1232 594 1190 q 569 1277 594 1267 q 492 1274 543 1288 l 490 1324 q 613 1325 565 1346 q 660 1243 660 1304 q 614 1128 660 1178 q 488 1067 568 1078 l 483 1111 z "},"Ȇ":{"ha":769,"x_min":75,"x_max":774,"o":"m 361 960 q 501 960 431 960 q 640 958 571 960 q 774 951 708 956 l 761 881 l 374 881 q 296 856 322 881 q 263 779 269 831 l 179 175 q 193 103 172 128 q 263 78 214 78 l 647 78 l 646 7 q 515 1 582 3 q 382 -1 449 0 q 250 -1 315 -1 q 117 47 160 -1 q 86 174 75 94 l 175 804 q 232 917 185 875 q 361 960 279 960 m 164 544 l 658 544 l 649 474 l 153 472 l 164 544 m 363 1071 l 314 1082 q 349 1174 321 1135 q 425 1233 378 1213 q 533 1254 472 1254 q 644 1233 600 1254 q 708 1172 689 1211 q 717 1079 726 1132 l 668 1075 q 640 1158 676 1129 q 535 1186 603 1186 q 415 1156 461 1186 q 363 1071 368 1125 z "},"Ē":{"ha":769,"x_min":75,"x_max":774,"o":"m 361 960 q 501 960 431 960 q 640 958 571 960 q 774 951 708 956 l 761 881 l 374 881 q 296 856 322 881 q 263 779 269 831 l 179 175 q 193 103 172 128 q 263 78 214 78 l 647 78 l 646 7 q 515 1 582 3 q 382 -1 449 0 q 250 -1 315 -1 q 117 47 160 -1 q 86 174 75 94 l 175 804 q 232 917 185 875 q 361 960 279 960 m 164 544 l 658 544 l 649 474 l 153 472 l 164 544 m 724 1197 l 715 1131 l 336 1131 l 344 1197 l 724 1197 z "},"Ḗ":{"ha":769,"x_min":75,"x_max":774,"o":"m 361 960 q 501 960 431 960 q 640 958 571 960 q 774 951 708 956 l 761 881 l 374 881 q 296 856 322 881 q 263 779 269 831 l 179 175 q 193 103 172 128 q 263 78 214 78 l 647 78 l 646 7 q 515 1 582 3 q 382 -1 449 0 q 250 -1 315 -1 q 117 47 160 -1 q 86 174 75 94 l 175 804 q 232 917 185 875 q 361 960 279 960 m 164 544 l 658 544 l 649 474 l 153 472 l 164 544 m 715 1156 l 707 1089 l 328 1089 l 338 1156 l 715 1156 m 619 1396 l 668 1338 l 479 1199 l 446 1235 l 619 1396 z "},"Ḕ":{"ha":769,"x_min":75,"x_max":774,"o":"m 361 960 q 501 960 431 960 q 640 958 571 960 q 774 951 708 956 l 761 881 l 374 881 q 296 856 322 881 q 263 779 269 831 l 179 175 q 193 103 172 128 q 263 78 214 78 l 647 78 l 646 7 q 515 1 582 3 q 382 -1 449 0 q 250 -1 315 -1 q 117 47 160 -1 q 86 174 75 94 l 175 804 q 232 917 185 875 q 361 960 279 960 m 164 544 l 658 544 l 649 474 l 153 472 l 164 544 m 715 1156 l 707 1089 l 328 1089 l 338 1156 l 715 1156 m 444 1389 l 583 1235 l 549 1201 l 393 1336 l 444 1389 z "},"Ę":{"ha":769,"x_min":75,"x_max":774,"o":"m 361 960 q 501 960 431 960 q 640 958 571 960 q 774 951 708 956 l 761 881 l 374 881 q 296 856 322 881 q 263 779 269 831 l 179 175 q 193 103 172 128 q 263 78 214 78 l 647 78 l 646 7 q 515 1 582 3 q 382 -1 449 0 q 250 -1 315 -1 q 117 47 160 -1 q 86 174 75 94 l 175 804 q 232 917 185 875 q 361 960 279 960 m 164 544 l 658 544 l 649 474 l 153 472 l 164 544 m 600 11 l 644 7 q 574 -70 607 -29 q 514 -161 542 -111 q 515 -231 486 -215 q 617 -224 543 -247 l 628 -262 q 519 -290 563 -289 q 454 -272 476 -290 q 431 -222 432 -253 q 447 -156 431 -192 q 501 -79 465 -121 q 600 11 536 -37 z "},"Ẽ":{"ha":769,"x_min":75,"x_max":774,"o":"m 361 960 q 501 960 431 960 q 640 958 571 960 q 774 951 708 956 l 761 881 l 374 881 q 296 856 322 881 q 263 779 269 831 l 179 175 q 193 103 172 128 q 263 78 214 78 l 647 78 l 646 7 q 515 1 582 3 q 382 -1 449 0 q 250 -1 315 -1 q 117 47 160 -1 q 86 174 75 94 l 175 804 q 232 917 185 875 q 361 960 279 960 m 164 544 l 658 544 l 649 474 l 153 472 l 164 544 m 429 1246 q 485 1231 463 1243 q 528 1205 508 1219 q 569 1178 549 1190 q 619 1163 590 1165 q 683 1178 663 1158 q 708 1240 703 1199 l 751 1238 q 715 1128 749 1165 q 631 1096 681 1092 q 569 1111 594 1099 q 524 1138 544 1124 q 483 1165 503 1153 q 439 1181 464 1178 q 377 1163 397 1185 q 351 1097 357 1142 l 307 1101 q 347 1214 311 1178 q 429 1246 382 1250 z "},"F":{"ha":743,"x_min":68,"x_max":767,"o":"m 367 960 q 570 958 468 960 q 767 951 672 957 l 754 881 l 386 881 q 304 858 333 881 q 268 779 275 835 l 158 0 l 68 0 l 179 800 q 240 918 190 876 q 367 960 289 960 m 165 532 l 650 532 l 640 463 l 156 461 l 165 532 z "},"G":{"ha":865,"x_min":81,"x_max":818,"o":"m 546 976 q 645 974 599 976 q 735 965 692 971 q 818 947 778 958 l 804 881 q 719 889 761 886 q 638 893 678 892 q 556 894 597 894 q 407 875 468 894 q 305 809 346 856 q 238 681 264 763 q 196 475 213 600 q 190 234 179 325 q 243 103 200 143 q 369 64 286 64 q 473 84 425 64 q 566 140 521 104 q 658 222 611 176 l 668 160 q 597 85 633 118 q 519 30 560 53 q 435 -6 479 7 q 343 -18 390 -18 q 177 34 238 -18 q 99 197 117 86 q 101 483 81 307 q 156 724 121 628 q 244 874 190 819 q 373 953 299 929 q 546 976 447 976 m 788 556 l 708 0 l 643 0 l 650 156 l 647 179 l 699 556 l 788 556 z "},"Ğ":{"ha":865,"x_min":81,"x_max":818,"o":"m 546 976 q 645 974 599 976 q 735 965 692 971 q 818 947 778 958 l 804 881 q 719 889 761 886 q 638 893 678 892 q 556 894 597 894 q 407 875 468 894 q 305 809 346 856 q 238 681 264 763 q 196 475 213 600 q 190 234 179 325 q 243 103 200 143 q 369 64 286 64 q 473 84 425 64 q 566 140 521 104 q 658 222 611 176 l 668 160 q 597 85 633 118 q 519 30 560 53 q 435 -6 479 7 q 343 -18 390 -18 q 177 34 238 -18 q 99 197 117 86 q 101 483 81 307 q 156 724 121 628 q 244 874 190 819 q 373 953 299 929 q 546 976 447 976 m 788 556 l 708 0 l 643 0 l 650 156 l 647 179 l 699 556 l 788 556 m 725 1224 l 772 1213 q 738 1122 767 1160 q 663 1062 710 1083 q 553 1040 615 1040 q 443 1063 488 1040 q 379 1125 399 1085 q 369 1217 360 1165 l 418 1221 q 447 1138 410 1167 q 553 1108 483 1108 q 672 1140 626 1108 q 725 1224 718 1171 z "},"Ǧ":{"ha":865,"x_min":81,"x_max":818,"o":"m 546 976 q 645 974 599 976 q 735 965 692 971 q 818 947 778 958 l 804 881 q 719 889 761 886 q 638 893 678 892 q 556 894 597 894 q 407 875 468 894 q 305 809 346 856 q 238 681 264 763 q 196 475 213 600 q 190 234 179 325 q 243 103 200 143 q 369 64 286 64 q 473 84 425 64 q 566 140 521 104 q 658 222 611 176 l 668 160 q 597 85 633 118 q 519 30 560 53 q 435 -6 479 7 q 343 -18 390 -18 q 177 34 238 -18 q 99 197 117 86 q 101 483 81 307 q 156 724 121 628 q 244 874 190 819 q 373 953 299 929 q 546 976 447 976 m 788 556 l 708 0 l 643 0 l 650 156 l 647 179 l 699 556 l 788 556 m 763 1247 l 792 1208 l 582 1036 l 517 1036 l 353 1214 l 390 1247 l 549 1108 l 560 1108 l 763 1247 z "},"Ĝ":{"ha":865,"x_min":81,"x_max":818,"o":"m 546 976 q 645 974 599 976 q 735 965 692 971 q 818 947 778 958 l 804 881 q 719 889 761 886 q 638 893 678 892 q 556 894 597 894 q 407 875 468 894 q 305 809 346 856 q 238 681 264 763 q 196 475 213 600 q 190 234 179 325 q 243 103 200 143 q 369 64 286 64 q 473 84 425 64 q 566 140 521 104 q 658 222 611 176 l 668 160 q 597 85 633 118 q 519 30 560 53 q 435 -6 479 7 q 343 -18 390 -18 q 177 34 238 -18 q 99 197 117 86 q 101 483 81 307 q 156 724 121 628 q 244 874 190 819 q 373 953 299 929 q 546 976 447 976 m 788 556 l 708 0 l 643 0 l 650 156 l 647 179 l 699 556 l 788 556 m 604 1238 l 775 1060 l 740 1025 l 576 1165 l 565 1165 l 360 1025 l 332 1065 l 540 1238 l 604 1238 z "},"Ģ":{"ha":865,"x_min":81,"x_max":818,"o":"m 546 976 q 645 974 599 976 q 735 965 692 971 q 818 947 778 958 l 804 881 q 719 889 761 886 q 638 893 678 892 q 556 894 597 894 q 407 875 468 894 q 305 809 346 856 q 238 681 264 763 q 196 475 213 600 q 190 234 179 325 q 243 103 200 143 q 369 64 286 64 q 473 84 425 64 q 566 140 521 104 q 658 222 611 176 l 668 160 q 597 85 633 118 q 519 30 560 53 q 435 -6 479 7 q 343 -18 390 -18 q 177 34 238 -18 q 99 197 117 86 q 101 483 81 307 q 156 724 121 628 q 244 874 190 819 q 373 953 299 929 q 546 976 447 976 m 788 556 l 708 0 l 643 0 l 650 156 l 647 179 l 699 556 l 788 556 m 405 -86 q 427 -94 421 -86 q 430 -117 434 -101 l 418 -194 q 406 -250 415 -221 q 384 -309 397 -279 q 357 -365 372 -338 l 315 -352 q 336 -285 328 -316 q 354 -212 345 -254 q 334 -206 340 -213 q 330 -186 329 -198 l 340 -115 q 352 -93 344 -100 q 378 -86 359 -86 l 405 -86 z "},"Ġ":{"ha":865,"x_min":81,"x_max":818,"o":"m 546 976 q 645 974 599 976 q 735 965 692 971 q 818 947 778 958 l 804 881 q 719 889 761 886 q 638 893 678 892 q 556 894 597 894 q 407 875 468 894 q 305 809 346 856 q 238 681 264 763 q 196 475 213 600 q 190 234 179 325 q 243 103 200 143 q 369 64 286 64 q 473 84 425 64 q 566 140 521 104 q 658 222 611 176 l 668 160 q 597 85 633 118 q 519 30 560 53 q 435 -6 479 7 q 343 -18 390 -18 q 177 34 238 -18 q 99 197 117 86 q 101 483 81 307 q 156 724 121 628 q 244 874 190 819 q 373 953 299 929 q 546 976 447 976 m 788 556 l 708 0 l 643 0 l 650 156 l 647 179 l 699 556 l 788 556 m 585 1201 q 606 1194 599 1201 q 611 1171 613 1186 l 600 1090 q 568 1063 596 1063 l 540 1063 q 518 1071 525 1063 q 513 1093 511 1079 l 524 1174 q 532 1195 525 1189 q 554 1201 539 1201 l 585 1201 z "},"Ḡ":{"ha":865,"x_min":81,"x_max":818,"o":"m 546 976 q 645 974 599 976 q 735 965 692 971 q 818 947 778 958 l 804 881 q 719 889 761 886 q 638 893 678 892 q 556 894 597 894 q 407 875 468 894 q 305 809 346 856 q 238 681 264 763 q 196 475 213 600 q 190 234 179 325 q 243 103 200 143 q 369 64 286 64 q 473 84 425 64 q 566 140 521 104 q 658 222 611 176 l 668 160 q 597 85 633 118 q 519 30 560 53 q 435 -6 479 7 q 343 -18 390 -18 q 177 34 238 -18 q 99 197 117 86 q 101 483 81 307 q 156 724 121 628 q 244 874 190 819 q 373 953 299 929 q 546 976 447 976 m 788 556 l 708 0 l 643 0 l 650 156 l 647 179 l 699 556 l 788 556 m 756 1168 l 746 1101 l 368 1101 l 378 1168 l 756 1168 z "},"H":{"ha":921,"x_min":71,"x_max":871,"o":"m 297 958 l 163 0 l 71 0 l 206 958 l 297 958 m 738 551 l 728 472 l 218 472 l 229 551 l 738 551 m 871 958 l 736 0 l 646 0 l 781 958 l 871 958 z "},"Ħ":{"ha":921,"x_min":71,"x_max":950,"o":"m 950 776 l 943 724 l 74 724 l 81 776 l 950 776 m 297 958 l 163 0 l 71 0 l 206 958 l 297 958 m 738 551 l 728 472 l 218 472 l 229 551 l 738 551 m 871 958 l 736 0 l 646 0 l 781 958 l 871 958 z "},"Ḫ":{"ha":921,"x_min":71,"x_max":871,"o":"m 297 958 l 163 0 l 71 0 l 206 958 l 297 958 m 738 551 l 728 472 l 218 472 l 229 551 l 738 551 m 871 958 l 736 0 l 646 0 l 781 958 l 871 958 m 560 -56 l 607 -68 q 573 -158 601 -119 q 497 -219 544 -197 q 388 -240 450 -240 q 278 -218 322 -240 q 214 -156 233 -196 q 204 -64 194 -117 l 253 -60 q 282 -142 246 -114 q 386 -171 318 -171 q 506 -140 460 -171 q 560 -56 553 -110 z "},"Ĥ":{"ha":921,"x_min":71,"x_max":871,"o":"m 297 958 l 163 0 l 71 0 l 206 958 l 297 958 m 738 551 l 728 472 l 218 472 l 229 551 l 738 551 m 871 958 l 736 0 l 646 0 l 781 958 l 871 958 m 596 1238 l 767 1060 l 732 1025 l 568 1165 l 557 1165 l 351 1025 l 324 1065 l 532 1238 l 596 1238 z "},"Ḥ":{"ha":921,"x_min":71,"x_max":871,"o":"m 297 958 l 163 0 l 71 0 l 206 958 l 297 958 m 738 551 l 728 472 l 218 472 l 229 551 l 738 551 m 871 958 l 736 0 l 646 0 l 781 958 l 871 958 m 415 -78 q 438 -85 431 -78 q 443 -108 444 -93 l 432 -189 q 400 -217 428 -217 l 371 -217 q 350 -208 357 -217 q 344 -186 343 -200 l 356 -106 q 363 -84 357 -90 q 385 -78 369 -78 l 415 -78 z "},"I":{"ha":347,"x_min":71,"x_max":297,"o":"m 297 958 l 163 0 l 71 0 l 206 958 l 297 958 z "},"Ĳ":{"ha":810,"x_min":71,"x_max":765,"o":"m 297 958 l 163 0 l 71 0 l 206 958 l 297 958 m 764 958 l 654 185 q 590 38 642 88 q 453 -11 539 -11 q 415 -9 436 -11 q 372 -3 393 -7 q 338 4 351 0 l 356 67 l 425 67 q 522 97 486 67 q 565 186 557 128 l 672 958 l 764 958 z "},"Í":{"ha":347,"x_min":71,"x_max":482,"o":"m 297 958 l 163 0 l 71 0 l 206 958 l 297 958 m 438 1261 l 482 1193 l 213 1015 l 182 1057 l 438 1261 z "},"Ĭ":{"ha":347,"x_min":71,"x_max":486,"o":"m 297 958 l 163 0 l 71 0 l 206 958 l 297 958 m 440 1224 l 488 1213 q 453 1122 482 1160 q 378 1062 425 1083 q 268 1040 331 1040 q 158 1063 203 1040 q 94 1125 114 1085 q 85 1217 75 1165 l 133 1221 q 162 1138 125 1167 q 268 1108 199 1108 q 388 1140 342 1108 q 440 1224 433 1171 z "},"Î":{"ha":347,"x_min":47,"x_max":489,"o":"m 297 958 l 163 0 l 71 0 l 206 958 l 297 958 m 319 1238 l 490 1060 l 456 1025 l 292 1165 l 281 1165 l 75 1025 l 47 1065 l 256 1238 l 319 1238 z "},"Ȉ":{"ha":347,"x_min":-39,"x_max":424,"o":"m 297 958 l 163 0 l 71 0 l 206 958 l 297 958 m 232 1268 l 424 1040 l 383 1010 l 176 1226 l 232 1268 m 17 1268 l 206 1040 l 168 1010 l -40 1226 l 17 1268 z "},"Ï":{"ha":347,"x_min":71,"x_max":444,"o":"m 297 958 l 163 0 l 71 0 l 206 958 l 297 958 m 181 1201 q 201 1194 196 1201 q 204 1175 207 1188 l 193 1099 q 185 1078 192 1085 q 163 1071 178 1071 l 133 1071 q 110 1097 107 1071 l 121 1175 q 131 1194 124 1188 q 153 1201 138 1201 l 181 1201 m 418 1201 q 440 1194 435 1201 q 443 1175 444 1188 l 432 1099 q 424 1078 431 1085 q 401 1071 417 1071 l 372 1071 q 349 1097 346 1071 l 360 1175 q 369 1194 363 1188 q 390 1201 376 1201 l 418 1201 z "},"Ḯ":{"ha":347,"x_min":71,"x_max":469,"o":"m 297 958 l 163 0 l 71 0 l 206 958 l 297 958 m 182 1157 q 204 1132 208 1157 l 194 1064 q 186 1044 193 1050 q 167 1039 179 1039 l 142 1039 q 118 1063 115 1039 l 128 1132 q 138 1151 131 1144 q 157 1157 144 1157 l 182 1157 m 399 1157 q 421 1132 425 1157 l 411 1064 q 403 1044 408 1050 q 383 1039 397 1039 l 357 1039 q 335 1063 332 1039 l 346 1132 q 375 1157 350 1157 l 399 1157 m 429 1425 l 469 1364 l 239 1215 l 211 1254 l 429 1425 z "},"İ":{"ha":347,"x_min":71,"x_max":328,"o":"m 297 958 l 163 0 l 71 0 l 206 958 l 297 958 m 299 1201 q 319 1194 313 1201 q 325 1171 326 1186 l 314 1090 q 282 1063 310 1063 l 254 1063 q 232 1071 239 1063 q 226 1093 225 1079 l 238 1174 q 246 1195 239 1189 q 268 1201 253 1201 l 299 1201 z "},"Ị":{"ha":347,"x_min":47,"x_max":297,"o":"m 297 958 l 163 0 l 71 0 l 206 958 l 297 958 m 121 -78 q 142 -85 135 -78 q 147 -108 150 -93 l 136 -189 q 106 -217 132 -217 l 76 -217 q 55 -208 63 -217 q 49 -186 47 -200 l 60 -106 q 69 -84 63 -90 q 90 -78 75 -78 l 121 -78 z "},"Ì":{"ha":347,"x_min":60,"x_max":326,"o":"m 297 958 l 163 0 l 71 0 l 206 958 l 297 958 m 110 1260 l 326 1056 l 292 1015 l 60 1197 l 110 1260 z "},"Ỉ":{"ha":347,"x_min":71,"x_max":407,"o":"m 297 958 l 163 0 l 71 0 l 206 958 l 297 958 m 231 1081 q 316 1126 290 1093 q 342 1201 342 1160 q 316 1247 342 1236 q 239 1243 290 1257 l 238 1293 q 360 1294 313 1315 q 407 1213 407 1274 q 361 1097 407 1147 q 235 1036 315 1047 l 231 1081 z "},"Ȋ":{"ha":347,"x_min":60,"x_max":472,"o":"m 297 958 l 163 0 l 71 0 l 206 958 l 297 958 m 108 1040 l 60 1051 q 95 1143 67 1104 q 171 1203 124 1182 q 279 1224 218 1224 q 390 1202 346 1224 q 453 1141 435 1181 q 463 1049 472 1101 l 414 1044 q 385 1127 422 1099 q 281 1156 349 1156 q 160 1125 207 1156 q 108 1040 114 1094 z "},"Ī":{"ha":347,"x_min":71,"x_max":468,"o":"m 297 958 l 163 0 l 71 0 l 206 958 l 297 958 m 469 1168 l 461 1101 l 82 1101 l 90 1168 l 469 1168 z "},"Į":{"ha":347,"x_min":-62,"x_max":297,"o":"m 297 958 l 163 0 l 71 0 l 206 958 l 297 958 m 108 4 l 153 0 q 83 -77 115 -36 q 22 -168 50 -118 q 23 -238 -6 -222 q 125 -231 51 -254 l 136 -269 q 28 -297 71 -296 q -37 -278 -15 -297 q -60 -229 -60 -260 q -44 -162 -61 -199 q 9 -86 -26 -128 q 108 4 44 -44 z "},"Ĩ":{"ha":347,"x_min":54,"x_max":499,"o":"m 297 958 l 163 0 l 71 0 l 206 958 l 297 958 m 176 1215 q 233 1201 210 1213 q 276 1174 256 1189 q 317 1147 296 1160 q 367 1132 338 1135 q 430 1148 410 1128 q 456 1210 450 1168 l 499 1207 q 462 1098 496 1135 q 378 1065 428 1061 q 317 1081 342 1068 q 271 1108 292 1093 q 231 1135 250 1122 q 186 1150 211 1147 q 124 1133 144 1154 q 99 1067 104 1111 l 54 1071 q 94 1183 58 1147 q 176 1215 129 1219 z "},"J":{"ha":463,"x_min":-10,"x_max":417,"o":"m 417 958 l 307 185 q 243 38 294 88 q 106 -11 192 -11 q 67 -9 89 -11 q 25 -3 46 -7 q -10 4 4 0 l 8 67 l 78 67 q 174 97 139 67 q 218 186 210 128 l 325 958 l 417 958 z "},"Ĵ":{"ha":463,"x_min":-10,"x_max":600,"o":"m 417 958 l 307 185 q 243 38 294 88 q 106 -11 192 -11 q 67 -9 89 -11 q 25 -3 46 -7 q -10 4 4 0 l 8 67 l 78 67 q 174 97 139 67 q 218 186 210 128 l 325 958 l 417 958 m 431 1238 l 601 1060 l 567 1025 l 403 1165 l 392 1165 l 186 1025 l 158 1065 l 367 1238 l 431 1238 z "},"K":{"ha":807,"x_min":71,"x_max":833,"o":"m 833 958 l 488 556 q 461 528 475 542 q 429 500 447 514 l 429 496 q 449 468 439 483 q 468 438 460 453 l 719 0 l 615 0 l 329 503 l 722 958 l 833 958 m 296 958 l 253 647 q 240 572 247 607 q 219 497 232 538 q 218 424 221 460 q 210 353 215 388 l 161 0 l 71 0 l 206 958 l 296 958 m 392 536 l 382 463 l 192 463 l 201 536 l 392 536 z "},"Ķ":{"ha":807,"x_min":71,"x_max":833,"o":"m 833 958 l 488 556 q 461 528 475 542 q 429 500 447 514 l 429 496 q 449 468 439 483 q 468 438 460 453 l 719 0 l 615 0 l 329 503 l 722 958 l 833 958 m 296 958 l 253 647 q 240 572 247 607 q 219 497 232 538 q 218 424 221 460 q 210 353 215 388 l 161 0 l 71 0 l 206 958 l 296 958 m 392 536 l 382 463 l 192 463 l 201 536 l 392 536 m 389 -86 q 412 -94 406 -86 q 415 -117 418 -101 l 403 -194 q 391 -250 399 -221 q 369 -309 382 -279 q 341 -365 356 -338 l 300 -352 q 321 -285 312 -316 q 339 -212 330 -254 q 319 -206 325 -213 q 315 -186 314 -198 l 325 -115 q 336 -93 329 -100 q 363 -86 344 -86 l 389 -86 z "},"L":{"ha":703,"x_min":86,"x_max":626,"o":"m 293 958 l 185 175 q 198 104 178 131 q 268 78 218 78 l 626 78 l 624 7 q 435 0 531 1 q 247 -1 340 -1 q 158 20 196 -1 q 103 82 119 42 q 94 178 86 122 l 201 958 l 293 958 z "},"Ǉ":{"ha":1165,"x_min":86,"x_max":1119,"o":"m 293 958 l 185 175 q 198 104 178 131 q 268 78 218 78 l 626 78 l 624 7 q 435 0 531 1 q 247 -1 340 -1 q 158 20 196 -1 q 103 82 119 42 q 94 178 86 122 l 201 958 l 293 958 m 1119 958 l 1010 185 q 946 38 997 88 q 808 -11 894 -11 q 770 -9 792 -11 q 728 -3 749 -7 q 693 4 707 0 l 711 67 l 781 67 q 877 97 842 67 q 921 186 913 128 l 1028 958 l 1119 958 z "},"Ĺ":{"ha":703,"x_min":86,"x_max":626,"o":"m 293 958 l 185 175 q 198 104 178 131 q 268 78 218 78 l 626 78 l 624 7 q 435 0 531 1 q 247 -1 340 -1 q 158 20 196 -1 q 103 82 119 42 q 94 178 86 122 l 201 958 l 293 958 m 433 1261 l 478 1193 l 208 1015 l 178 1057 l 433 1261 z "},"Ľ":{"ha":703,"x_min":86,"x_max":626,"o":"m 293 958 l 185 175 q 198 104 178 131 q 268 78 218 78 l 626 78 l 624 7 q 435 0 531 1 q 247 -1 340 -1 q 158 20 196 -1 q 103 82 119 42 q 94 178 86 122 l 201 958 l 293 958 m 535 957 q 556 950 550 957 q 558 926 561 943 l 547 846 q 524 759 543 808 q 486 674 506 710 l 447 686 q 471 754 460 719 q 488 829 482 789 q 470 835 476 828 q 465 854 464 843 l 476 929 q 486 951 479 944 q 511 957 493 957 l 535 957 z "},"Ļ":{"ha":703,"x_min":86,"x_max":626,"o":"m 293 958 l 185 175 q 198 104 178 131 q 268 78 218 78 l 626 78 l 624 7 q 435 0 531 1 q 247 -1 340 -1 q 158 20 196 -1 q 103 82 119 42 q 94 178 86 122 l 201 958 l 293 958 m 371 -93 q 394 -100 388 -93 q 396 -124 400 -108 l 385 -201 q 372 -257 381 -228 q 351 -316 364 -286 q 323 -372 338 -345 l 282 -359 q 303 -292 294 -323 q 321 -218 312 -261 q 301 -212 307 -220 q 297 -193 295 -205 l 307 -122 q 318 -100 311 -106 q 345 -93 326 -93 l 371 -93 z "},"Ŀ":{"ha":703,"x_min":86,"x_max":626,"o":"m 293 958 l 185 175 q 198 104 178 131 q 268 78 218 78 l 626 78 l 624 7 q 435 0 531 1 q 247 -1 340 -1 q 158 20 196 -1 q 103 82 119 42 q 94 178 86 122 l 201 958 l 293 958 m 485 482 q 464 490 471 482 q 458 513 457 497 l 469 593 q 501 621 474 621 l 529 621 q 551 613 544 621 q 557 590 558 604 l 546 510 q 538 488 544 494 q 515 482 531 482 l 485 482 z "},"Ḷ":{"ha":703,"x_min":86,"x_max":626,"o":"m 293 958 l 185 175 q 198 104 178 131 q 268 78 218 78 l 626 78 l 624 7 q 435 0 531 1 q 247 -1 340 -1 q 158 20 196 -1 q 103 82 119 42 q 94 178 86 122 l 201 958 l 293 958 m 375 -78 q 397 -85 390 -78 q 403 -108 404 -93 l 392 -189 q 360 -217 388 -217 l 331 -217 q 310 -208 317 -217 q 304 -186 303 -200 l 315 -106 q 323 -84 317 -90 q 344 -78 329 -78 l 375 -78 z "},"ǈ":{"ha":1032,"x_min":86,"x_max":992,"o":"m 293 958 l 185 175 q 198 104 178 131 q 268 78 218 78 l 626 78 l 624 7 q 435 0 531 1 q 247 -1 340 -1 q 158 20 196 -1 q 103 82 119 42 q 94 178 86 122 l 201 958 l 293 958 m 947 674 l 849 -36 q 822 -133 842 -86 q 770 -217 801 -179 q 700 -286 739 -256 l 653 -246 q 725 -148 699 -199 q 761 -31 751 -97 l 861 674 l 947 674 m 963 957 q 985 948 978 957 q 989 925 992 939 l 978 843 q 947 817 974 817 l 907 817 q 879 849 875 817 l 890 929 q 921 957 894 957 l 963 957 z "},"Ḻ":{"ha":703,"x_min":86,"x_max":626,"o":"m 293 958 l 185 175 q 198 104 178 131 q 268 78 218 78 l 626 78 l 624 7 q 435 0 531 1 q 247 -1 340 -1 q 158 20 196 -1 q 103 82 119 42 q 94 178 86 122 l 201 958 l 293 958 m 547 -112 l 538 -181 l 160 -181 l 169 -112 l 547 -112 z "},"Ł":{"ha":703,"x_min":35,"x_max":625,"o":"m 422 643 l 415 586 l 35 432 l 40 490 l 422 643 m 293 958 l 183 175 q 198 104 178 131 q 267 78 218 78 l 625 78 l 622 7 q 435 0 531 1 q 247 -1 339 -1 q 156 20 194 -1 q 101 82 118 42 q 93 178 85 122 l 200 958 l 293 958 z "},"M":{"ha":1207,"x_min":51,"x_max":1131,"o":"m 1092 958 q 1121 947 1111 958 q 1129 915 1131 935 l 1040 0 l 949 0 l 1038 882 l 1008 882 l 654 129 q 638 107 647 114 q 611 100 628 100 l 519 100 q 493 109 503 100 q 479 133 483 118 l 332 882 l 301 882 l 142 0 l 51 0 l 219 919 q 234 949 224 939 q 263 958 244 958 l 369 958 q 394 949 385 958 q 406 925 404 940 l 532 300 q 544 234 539 267 q 554 169 549 201 l 585 169 q 614 236 599 203 q 643 300 629 269 l 939 928 q 957 951 947 944 q 983 957 967 957 l 1092 958 z "},"Ṃ":{"ha":1207,"x_min":51,"x_max":1131,"o":"m 1092 958 q 1121 947 1111 958 q 1129 915 1131 935 l 1040 0 l 949 0 l 1038 882 l 1008 882 l 654 129 q 638 107 647 114 q 611 100 628 100 l 519 100 q 493 109 503 100 q 479 133 483 118 l 332 882 l 301 882 l 142 0 l 51 0 l 219 919 q 234 949 224 939 q 263 958 244 958 l 369 958 q 394 949 385 958 q 406 925 404 940 l 532 300 q 544 234 539 267 q 554 169 549 201 l 585 169 q 614 236 599 203 q 643 300 629 269 l 939 928 q 957 951 947 944 q 983 957 967 957 l 1092 958 m 561 -78 q 583 -85 576 -78 q 589 -108 590 -93 l 578 -189 q 546 -217 574 -217 l 517 -217 q 496 -208 503 -217 q 490 -186 489 -200 l 501 -106 q 509 -84 503 -90 q 531 -78 515 -78 l 561 -78 z "},"N":{"ha":969,"x_min":71,"x_max":919,"o":"m 919 958 l 789 36 q 777 9 786 18 q 750 0 768 0 l 658 0 q 632 8 642 0 q 617 33 622 17 l 344 761 q 325 817 335 786 q 307 874 315 847 l 279 874 q 274 815 276 844 q 267 754 271 785 l 163 0 l 71 0 l 200 922 q 214 950 204 942 q 242 958 224 958 l 329 958 q 356 950 346 958 q 371 925 365 942 l 636 215 q 659 152 647 186 q 681 86 671 118 l 711 86 q 718 152 715 119 q 726 218 721 185 l 829 958 l 919 958 z "},"Ǌ":{"ha":1432,"x_min":71,"x_max":1386,"o":"m 919 958 l 789 36 q 777 9 786 18 q 750 0 768 0 l 658 0 q 632 8 642 0 q 617 33 622 17 l 344 761 q 325 817 335 786 q 307 874 315 847 l 279 874 q 274 815 276 844 q 267 754 271 785 l 163 0 l 71 0 l 200 922 q 214 950 204 942 q 242 958 224 958 l 329 958 q 356 950 346 958 q 371 925 365 942 l 636 215 q 659 152 647 186 q 681 86 671 118 l 711 86 q 718 152 715 119 q 726 218 721 185 l 829 958 l 919 958 m 1386 958 l 1276 185 q 1213 38 1264 88 q 1075 -11 1161 -11 q 1037 -9 1058 -11 q 994 -3 1015 -7 q 960 4 974 0 l 978 67 l 1047 67 q 1144 97 1108 67 q 1188 186 1179 128 l 1294 958 l 1386 958 z "},"Ń":{"ha":969,"x_min":71,"x_max":919,"o":"m 919 958 l 789 36 q 777 9 786 18 q 750 0 768 0 l 658 0 q 632 8 642 0 q 617 33 622 17 l 344 761 q 325 817 335 786 q 307 874 315 847 l 279 874 q 274 815 276 844 q 267 754 271 785 l 163 0 l 71 0 l 200 922 q 214 950 204 942 q 242 958 224 958 l 329 958 q 356 950 346 958 q 371 925 365 942 l 636 215 q 659 152 647 186 q 681 86 671 118 l 711 86 q 718 152 715 119 q 726 218 721 185 l 829 958 l 919 958 m 758 1261 l 803 1193 l 533 1015 l 503 1057 l 758 1261 z "},"Ň":{"ha":969,"x_min":71,"x_max":919,"o":"m 919 958 l 789 36 q 777 9 786 18 q 750 0 768 0 l 658 0 q 632 8 642 0 q 617 33 622 17 l 344 761 q 325 817 335 786 q 307 874 315 847 l 279 874 q 274 815 276 844 q 267 754 271 785 l 163 0 l 71 0 l 200 922 q 214 950 204 942 q 242 958 224 958 l 329 958 q 356 950 346 958 q 371 925 365 942 l 636 215 q 659 152 647 186 q 681 86 671 118 l 711 86 q 718 152 715 119 q 726 218 721 185 l 829 958 l 919 958 m 799 1247 l 828 1208 l 618 1036 l 553 1036 l 389 1214 l 426 1247 l 585 1108 l 596 1108 l 799 1247 z "},"Ņ":{"ha":969,"x_min":71,"x_max":919,"o":"m 919 958 l 789 36 q 777 9 786 18 q 750 0 768 0 l 658 0 q 632 8 642 0 q 617 33 622 17 l 344 761 q 325 817 335 786 q 307 874 315 847 l 279 874 q 274 815 276 844 q 267 754 271 785 l 163 0 l 71 0 l 200 922 q 214 950 204 942 q 242 958 224 958 l 329 958 q 356 950 346 958 q 371 925 365 942 l 636 215 q 659 152 647 186 q 681 86 671 118 l 711 86 q 718 152 715 119 q 726 218 721 185 l 829 958 l 919 958 m 450 -86 q 473 -94 467 -86 q 476 -117 479 -101 l 464 -194 q 452 -250 460 -221 q 430 -309 443 -279 q 402 -365 418 -338 l 361 -352 q 382 -285 373 -316 q 400 -212 391 -254 q 380 -206 386 -213 q 376 -186 375 -198 l 386 -115 q 397 -93 390 -100 q 424 -86 405 -86 l 450 -86 z "},"Ṅ":{"ha":969,"x_min":71,"x_max":919,"o":"m 919 958 l 789 36 q 777 9 786 18 q 750 0 768 0 l 658 0 q 632 8 642 0 q 617 33 622 17 l 344 761 q 325 817 335 786 q 307 874 315 847 l 279 874 q 274 815 276 844 q 267 754 271 785 l 163 0 l 71 0 l 200 922 q 214 950 204 942 q 242 958 224 958 l 329 958 q 356 950 346 958 q 371 925 365 942 l 636 215 q 659 152 647 186 q 681 86 671 118 l 711 86 q 718 152 715 119 q 726 218 721 185 l 829 958 l 919 958 m 619 1201 q 642 1194 635 1201 q 647 1171 650 1186 l 636 1090 q 606 1063 633 1063 l 576 1063 q 555 1071 563 1063 q 550 1093 547 1079 l 560 1174 q 569 1195 563 1189 q 590 1201 575 1201 l 619 1201 z "},"Ṇ":{"ha":969,"x_min":71,"x_max":919,"o":"m 919 958 l 789 36 q 777 9 786 18 q 750 0 768 0 l 658 0 q 632 8 642 0 q 617 33 622 17 l 344 761 q 325 817 335 786 q 307 874 315 847 l 279 874 q 274 815 276 844 q 267 754 271 785 l 163 0 l 71 0 l 200 922 q 214 950 204 942 q 242 958 224 958 l 329 958 q 356 950 346 958 q 371 925 365 942 l 636 215 q 659 152 647 186 q 681 86 671 118 l 711 86 q 718 152 715 119 q 726 218 721 185 l 829 958 l 919 958 m 435 -78 q 457 -85 450 -78 q 463 -108 464 -93 l 451 -189 q 419 -217 447 -217 l 390 -217 q 369 -208 376 -217 q 364 -186 363 -200 l 375 -106 q 383 -84 376 -90 q 404 -78 389 -78 l 435 -78 z "},"Ŋ":{"ha":969,"x_min":71,"x_max":919,"o":"m 919 958 l 767 -122 q 702 -258 754 -212 q 567 -303 650 -304 q 509 -299 542 -303 q 454 -289 476 -294 l 469 -231 l 540 -231 q 638 -201 603 -231 q 682 -112 674 -171 l 697 1 l 658 0 q 640 8 647 -1 q 628 31 633 18 l 344 747 q 325 802 335 772 q 307 863 315 832 l 281 863 q 274 804 278 833 q 267 746 271 775 l 163 0 l 71 0 l 200 922 q 214 950 204 942 q 242 958 224 958 l 321 958 q 347 950 338 958 q 363 925 357 942 l 635 228 q 658 166 646 200 q 682 99 671 132 l 711 99 q 717 166 714 132 q 725 232 721 200 l 828 958 l 919 958 z "},"ǋ":{"ha":1297,"x_min":71,"x_max":1257,"o":"m 919 958 l 789 36 q 777 9 786 18 q 750 0 768 0 l 658 0 q 632 8 642 0 q 617 33 622 17 l 344 761 q 325 817 335 786 q 307 874 315 847 l 279 874 q 274 815 276 844 q 267 754 271 785 l 163 0 l 71 0 l 200 922 q 214 950 204 942 q 242 958 224 958 l 329 958 q 356 950 346 958 q 371 925 365 942 l 636 215 q 659 152 647 186 q 681 86 671 118 l 711 86 q 718 152 715 119 q 726 218 721 185 l 829 958 l 919 958 m 1214 674 l 1115 -36 q 1088 -133 1108 -86 q 1037 -217 1068 -179 q 967 -286 1006 -256 l 919 -246 q 992 -148 965 -199 q 1028 -31 1018 -97 l 1128 674 l 1214 674 m 1229 957 q 1251 948 1244 957 q 1256 925 1258 939 l 1244 843 q 1214 817 1240 817 l 1174 817 q 1146 849 1142 817 l 1157 929 q 1188 957 1161 957 l 1229 957 z "},"Ṉ":{"ha":969,"x_min":71,"x_max":919,"o":"m 919 958 l 789 36 q 777 9 786 18 q 750 0 768 0 l 658 0 q 632 8 642 0 q 617 33 622 17 l 344 761 q 325 817 335 786 q 307 874 315 847 l 279 874 q 274 815 276 844 q 267 754 271 785 l 163 0 l 71 0 l 200 922 q 214 950 204 942 q 242 958 224 958 l 329 958 q 356 950 346 958 q 371 925 365 942 l 636 215 q 659 152 647 186 q 681 86 671 118 l 711 86 q 718 152 715 119 q 726 218 721 185 l 829 958 l 919 958 m 606 -112 l 596 -181 l 218 -181 l 228 -112 l 606 -112 z "},"Ñ":{"ha":969,"x_min":71,"x_max":919,"o":"m 919 958 l 789 36 q 777 9 786 18 q 750 0 768 0 l 658 0 q 632 8 642 0 q 617 33 622 17 l 344 761 q 325 817 335 786 q 307 874 315 847 l 279 874 q 274 815 276 844 q 267 754 271 785 l 163 0 l 71 0 l 200 922 q 214 950 204 942 q 242 958 224 958 l 329 958 q 356 950 346 958 q 371 925 365 942 l 636 215 q 659 152 647 186 q 681 86 671 118 l 711 86 q 718 152 715 119 q 726 218 721 185 l 829 958 l 919 958 m 497 1215 q 553 1201 531 1213 q 597 1174 576 1189 q 638 1147 617 1160 q 688 1132 658 1135 q 751 1148 731 1128 q 776 1210 771 1168 l 819 1207 q 783 1098 817 1135 q 699 1065 749 1061 q 638 1081 663 1068 q 592 1108 613 1093 q 551 1135 571 1122 q 507 1150 532 1147 q 445 1133 465 1154 q 419 1067 425 1111 l 375 1071 q 415 1183 379 1147 q 497 1215 450 1219 z "},"O":{"ha":922,"x_min":76,"x_max":867,"o":"m 538 976 q 745 928 669 976 q 844 769 821 879 q 840 475 867 660 q 790 242 822 338 q 707 90 757 147 q 583 8 657 33 q 410 -18 510 -18 q 201 30 278 -18 q 100 188 124 78 q 101 483 76 297 q 153 713 121 619 q 235 865 185 807 q 360 950 286 924 q 538 976 435 976 m 532 894 q 360 856 426 894 q 257 725 294 817 q 197 475 219 633 q 188 231 175 321 q 254 103 200 142 q 410 64 308 64 q 581 103 515 64 q 685 235 646 143 q 746 483 725 326 q 757 730 769 640 q 690 857 744 819 q 532 894 636 894 z "},"Ó":{"ha":922,"x_min":76,"x_max":867,"o":"m 538 976 q 745 928 669 976 q 844 769 821 879 q 840 475 867 660 q 790 242 822 338 q 707 90 757 147 q 583 8 657 33 q 410 -18 510 -18 q 201 30 278 -18 q 100 188 124 78 q 101 483 76 297 q 153 713 121 619 q 235 865 185 807 q 360 950 286 924 q 538 976 435 976 m 532 894 q 360 856 426 894 q 257 725 294 817 q 197 475 219 633 q 188 231 175 321 q 254 103 200 142 q 410 64 308 64 q 581 103 515 64 q 685 235 646 143 q 746 483 725 326 q 757 730 769 640 q 690 857 744 819 q 532 894 636 894 m 718 1261 l 763 1193 l 493 1015 l 463 1057 l 718 1261 z "},"Ŏ":{"ha":922,"x_min":76,"x_max":867,"o":"m 538 976 q 745 928 669 976 q 844 769 821 879 q 840 475 867 660 q 790 242 822 338 q 707 90 757 147 q 583 8 657 33 q 410 -18 510 -18 q 201 30 278 -18 q 100 188 124 78 q 101 483 76 297 q 153 713 121 619 q 235 865 185 807 q 360 950 286 924 q 538 976 435 976 m 532 894 q 360 856 426 894 q 257 725 294 817 q 197 475 219 633 q 188 231 175 321 q 254 103 200 142 q 410 64 308 64 q 581 103 515 64 q 685 235 646 143 q 746 483 725 326 q 757 730 769 640 q 690 857 744 819 q 532 894 636 894 m 721 1224 l 768 1213 q 734 1122 763 1160 q 658 1062 706 1083 q 549 1040 611 1040 q 439 1063 483 1040 q 375 1125 394 1085 q 365 1217 356 1165 l 414 1221 q 442 1138 406 1167 q 549 1108 479 1108 q 668 1140 622 1108 q 721 1224 714 1171 z "},"Ô":{"ha":922,"x_min":76,"x_max":867,"o":"m 538 976 q 745 928 669 976 q 844 769 821 879 q 840 475 867 660 q 790 242 822 338 q 707 90 757 147 q 583 8 657 33 q 410 -18 510 -18 q 201 30 278 -18 q 100 188 124 78 q 101 483 76 297 q 153 713 121 619 q 235 865 185 807 q 360 950 286 924 q 538 976 435 976 m 532 894 q 360 856 426 894 q 257 725 294 817 q 197 475 219 633 q 188 231 175 321 q 254 103 200 142 q 410 64 308 64 q 581 103 515 64 q 685 235 646 143 q 746 483 725 326 q 757 730 769 640 q 690 857 744 819 q 532 894 636 894 m 601 1238 l 772 1060 l 738 1025 l 574 1165 l 563 1165 l 357 1025 l 329 1065 l 538 1238 l 601 1238 z "},"Ố":{"ha":922,"x_min":76,"x_max":921,"o":"m 538 976 q 745 928 669 976 q 844 769 821 879 q 840 475 867 660 q 790 242 822 338 q 707 90 757 147 q 583 8 657 33 q 410 -18 510 -18 q 201 30 278 -18 q 100 188 124 78 q 101 483 76 297 q 153 713 121 619 q 235 865 185 807 q 360 950 286 924 q 538 976 435 976 m 532 894 q 360 856 426 894 q 257 725 294 817 q 197 475 219 633 q 188 231 175 321 q 254 103 200 142 q 410 64 308 64 q 581 103 515 64 q 685 235 646 143 q 746 483 725 326 q 757 730 769 640 q 690 857 744 819 q 532 894 636 894 m 606 1221 l 757 1063 l 722 1026 l 578 1149 l 567 1149 l 383 1026 l 356 1065 l 542 1221 l 606 1221 m 874 1357 l 921 1299 l 732 1161 l 700 1196 l 874 1357 z "},"Ộ":{"ha":922,"x_min":76,"x_max":867,"o":"m 538 976 q 745 928 669 976 q 844 769 821 879 q 840 475 867 660 q 790 242 822 338 q 707 90 757 147 q 583 8 657 33 q 410 -18 510 -18 q 201 30 278 -18 q 100 188 124 78 q 101 483 76 297 q 153 713 121 619 q 235 865 185 807 q 360 950 286 924 q 538 976 435 976 m 532 894 q 360 856 426 894 q 257 725 294 817 q 197 475 219 633 q 188 231 175 321 q 254 103 200 142 q 410 64 308 64 q 581 103 515 64 q 685 235 646 143 q 746 483 725 326 q 757 730 769 640 q 690 857 744 819 q 532 894 636 894 m 414 -78 q 436 -85 429 -78 q 442 -108 443 -93 l 431 -189 q 399 -217 426 -217 l 369 -217 q 349 -208 356 -217 q 343 -186 342 -200 l 354 -106 q 362 -84 356 -90 q 383 -78 368 -78 l 414 -78 m 600 1238 l 771 1060 l 736 1025 l 572 1165 l 560 1165 l 356 1025 l 329 1065 l 536 1238 l 600 1238 z "},"Ồ":{"ha":922,"x_min":76,"x_max":867,"o":"m 538 976 q 745 928 669 976 q 844 769 821 879 q 840 475 867 660 q 790 242 822 338 q 707 90 757 147 q 583 8 657 33 q 410 -18 510 -18 q 201 30 278 -18 q 100 188 124 78 q 101 483 76 297 q 153 713 121 619 q 235 865 185 807 q 360 950 286 924 q 538 976 435 976 m 532 894 q 360 856 426 894 q 257 725 294 817 q 197 475 219 633 q 188 231 175 321 q 254 103 200 142 q 410 64 308 64 q 581 103 515 64 q 685 235 646 143 q 746 483 725 326 q 757 730 769 640 q 690 857 744 819 q 532 894 636 894 m 588 1221 l 739 1063 l 704 1026 l 560 1149 l 549 1149 l 365 1026 l 338 1065 l 524 1221 l 588 1221 m 279 1354 l 418 1200 l 383 1165 l 228 1300 l 279 1354 z "},"Ổ":{"ha":922,"x_min":76,"x_max":867,"o":"m 538 976 q 745 928 669 976 q 844 769 821 879 q 840 475 867 660 q 790 242 822 338 q 707 90 757 147 q 583 8 657 33 q 410 -18 510 -18 q 201 30 278 -18 q 100 188 124 78 q 101 483 76 297 q 153 713 121 619 q 235 865 185 807 q 360 950 286 924 q 538 976 435 976 m 532 894 q 360 856 426 894 q 257 725 294 817 q 197 475 219 633 q 188 231 175 321 q 254 103 200 142 q 410 64 308 64 q 581 103 515 64 q 685 235 646 143 q 746 483 725 326 q 757 730 769 640 q 690 857 744 819 q 532 894 636 894 m 594 1221 l 746 1063 l 711 1026 l 567 1149 l 556 1149 l 372 1026 l 344 1065 l 531 1221 l 594 1221 m 699 1194 q 776 1228 753 1206 q 800 1286 800 1251 q 774 1324 800 1319 q 706 1314 749 1328 l 704 1360 q 813 1369 768 1383 q 858 1300 858 1354 q 818 1204 858 1243 q 701 1156 778 1165 l 699 1194 z "},"Ỗ":{"ha":922,"x_min":76,"x_max":867,"o":"m 538 976 q 745 928 669 976 q 844 769 821 879 q 840 475 867 660 q 790 242 822 338 q 707 90 757 147 q 583 8 657 33 q 410 -18 510 -18 q 201 30 278 -18 q 100 188 124 78 q 101 483 76 297 q 153 713 121 619 q 235 865 185 807 q 360 950 286 924 q 538 976 435 976 m 532 894 q 360 856 426 894 q 257 725 294 817 q 197 475 219 633 q 188 231 175 321 q 254 103 200 142 q 410 64 308 64 q 581 103 515 64 q 685 235 646 143 q 746 483 725 326 q 757 730 769 640 q 690 857 744 819 q 532 894 636 894 m 594 1221 l 746 1063 l 711 1026 l 567 1149 l 556 1149 l 372 1026 l 344 1065 l 531 1221 l 594 1221 m 482 1404 q 534 1390 514 1401 q 572 1363 554 1378 q 609 1338 590 1349 q 656 1325 628 1328 q 715 1340 696 1321 q 738 1400 733 1358 l 779 1396 q 745 1292 776 1326 q 667 1261 714 1258 q 609 1276 632 1264 q 568 1303 586 1288 q 532 1330 550 1318 q 492 1343 514 1342 q 433 1326 451 1346 q 410 1263 415 1306 l 368 1267 q 404 1374 372 1340 q 482 1404 436 1408 z "},"Ȍ":{"ha":922,"x_min":76,"x_max":867,"o":"m 538 976 q 745 928 669 976 q 844 769 821 879 q 840 475 867 660 q 790 242 822 338 q 707 90 757 147 q 583 8 657 33 q 410 -18 510 -18 q 201 30 278 -18 q 100 188 124 78 q 101 483 76 297 q 153 713 121 619 q 235 865 185 807 q 360 950 286 924 q 538 976 435 976 m 532 894 q 360 856 426 894 q 257 725 294 817 q 197 475 219 633 q 188 231 175 321 q 254 103 200 142 q 410 64 308 64 q 581 103 515 64 q 685 235 646 143 q 746 483 725 326 q 757 730 769 640 q 690 857 744 819 q 532 894 636 894 m 514 1268 l 706 1040 l 665 1010 l 458 1226 l 514 1268 m 299 1268 l 488 1040 l 450 1010 l 242 1226 l 299 1268 z "},"Ö":{"ha":922,"x_min":76,"x_max":867,"o":"m 538 976 q 745 928 669 976 q 844 769 821 879 q 840 475 867 660 q 790 242 822 338 q 707 90 757 147 q 583 8 657 33 q 410 -18 510 -18 q 201 30 278 -18 q 100 188 124 78 q 101 483 76 297 q 153 713 121 619 q 235 865 185 807 q 360 950 286 924 q 538 976 435 976 m 532 894 q 360 856 426 894 q 257 725 294 817 q 197 475 219 633 q 188 231 175 321 q 254 103 200 142 q 410 64 308 64 q 581 103 515 64 q 685 235 646 143 q 746 483 725 326 q 757 730 769 640 q 690 857 744 819 q 532 894 636 894 m 461 1201 q 482 1194 476 1201 q 485 1175 488 1188 l 474 1099 q 465 1078 472 1085 q 443 1071 458 1071 l 414 1071 q 390 1097 388 1071 l 401 1175 q 411 1194 404 1188 q 433 1201 418 1201 l 461 1201 m 699 1201 q 720 1194 715 1201 q 724 1175 725 1188 l 713 1099 q 704 1078 711 1085 q 682 1071 697 1071 l 653 1071 q 629 1097 626 1071 l 640 1175 q 650 1194 643 1188 q 671 1201 657 1201 l 699 1201 z "},"Ȫ":{"ha":922,"x_min":76,"x_max":867,"o":"m 538 976 q 745 928 669 976 q 844 769 821 879 q 840 475 867 660 q 790 242 822 338 q 707 90 757 147 q 583 8 657 33 q 410 -18 510 -18 q 201 30 278 -18 q 100 188 124 78 q 101 483 76 297 q 153 713 121 619 q 235 865 185 807 q 360 950 286 924 q 538 976 435 976 m 532 894 q 360 856 426 894 q 257 725 294 817 q 197 475 219 633 q 188 231 175 321 q 254 103 200 142 q 410 64 308 64 q 581 103 515 64 q 685 235 646 143 q 746 483 725 326 q 757 730 769 640 q 690 857 744 819 q 532 894 636 894 m 461 1167 q 483 1143 488 1167 l 472 1074 q 465 1054 471 1060 q 446 1049 458 1049 l 419 1049 q 397 1072 394 1049 l 408 1143 q 417 1160 410 1154 q 436 1167 424 1167 l 461 1167 m 678 1167 q 698 1160 693 1167 q 700 1143 703 1154 l 689 1074 q 681 1054 688 1060 q 663 1049 675 1049 l 636 1049 q 614 1072 610 1049 l 624 1143 q 653 1167 628 1167 l 678 1167 m 749 1306 l 740 1243 l 396 1243 l 404 1306 l 749 1306 z "},"Ȱ":{"ha":922,"x_min":76,"x_max":867,"o":"m 538 976 q 745 928 669 976 q 844 769 821 879 q 840 475 867 660 q 790 242 822 338 q 707 90 757 147 q 583 8 657 33 q 410 -18 510 -18 q 201 30 278 -18 q 100 188 124 78 q 101 483 76 297 q 153 713 121 619 q 235 865 185 807 q 360 950 286 924 q 538 976 435 976 m 532 894 q 360 856 426 894 q 257 725 294 817 q 197 475 219 633 q 188 231 175 321 q 254 103 200 142 q 410 64 308 64 q 581 103 515 64 q 685 235 646 143 q 746 483 725 326 q 757 730 769 640 q 690 857 744 819 q 532 894 636 894 m 751 1317 l 743 1254 l 399 1254 l 407 1317 l 751 1317 m 571 1169 q 590 1162 583 1169 q 596 1140 597 1154 l 586 1068 q 557 1042 581 1042 l 531 1042 q 506 1071 504 1042 l 515 1143 q 543 1169 518 1169 l 571 1169 z "},"Ọ":{"ha":922,"x_min":76,"x_max":867,"o":"m 538 976 q 745 928 669 976 q 844 769 821 879 q 840 475 867 660 q 790 242 822 338 q 707 90 757 147 q 583 8 657 33 q 410 -18 510 -18 q 201 30 278 -18 q 100 188 124 78 q 101 483 76 297 q 153 713 121 619 q 235 865 185 807 q 360 950 286 924 q 538 976 435 976 m 532 894 q 360 856 426 894 q 257 725 294 817 q 197 475 219 633 q 188 231 175 321 q 254 103 200 142 q 410 64 308 64 q 581 103 515 64 q 685 235 646 143 q 746 483 725 326 q 757 730 769 640 q 690 857 744 819 q 532 894 636 894 m 414 -78 q 435 -85 428 -78 q 440 -108 443 -93 l 429 -189 q 399 -217 425 -217 l 369 -217 q 348 -208 356 -217 q 342 -186 340 -200 l 353 -106 q 362 -84 356 -90 q 383 -78 368 -78 l 414 -78 z "},"Ò":{"ha":922,"x_min":76,"x_max":867,"o":"m 538 976 q 745 928 669 976 q 844 769 821 879 q 840 475 867 660 q 790 242 822 338 q 707 90 757 147 q 583 8 657 33 q 410 -18 510 -18 q 201 30 278 -18 q 100 188 124 78 q 101 483 76 297 q 153 713 121 619 q 235 865 185 807 q 360 950 286 924 q 538 976 435 976 m 532 894 q 360 856 426 894 q 257 725 294 817 q 197 475 219 633 q 188 231 175 321 q 254 103 200 142 q 410 64 308 64 q 581 103 515 64 q 685 235 646 143 q 746 483 725 326 q 757 730 769 640 q 690 857 744 819 q 532 894 636 894 m 392 1260 l 608 1056 l 574 1015 l 342 1197 l 392 1260 z "},"Ỏ":{"ha":922,"x_min":76,"x_max":867,"o":"m 538 976 q 745 928 669 976 q 844 769 821 879 q 840 475 867 660 q 790 242 822 338 q 707 90 757 147 q 583 8 657 33 q 410 -18 510 -18 q 201 30 278 -18 q 100 188 124 78 q 101 483 76 297 q 153 713 121 619 q 235 865 185 807 q 360 950 286 924 q 538 976 435 976 m 532 894 q 360 856 426 894 q 257 725 294 817 q 197 475 219 633 q 188 231 175 321 q 254 103 200 142 q 410 64 308 64 q 581 103 515 64 q 685 235 646 143 q 746 483 725 326 q 757 730 769 640 q 690 857 744 819 q 532 894 636 894 m 511 1081 q 597 1126 571 1093 q 622 1201 622 1160 q 597 1247 622 1236 q 519 1243 571 1257 l 518 1293 q 640 1294 593 1315 q 688 1213 688 1274 q 642 1097 688 1147 q 515 1036 596 1047 l 511 1081 z "},"Ơ":{"ha":931,"x_min":76,"x_max":1025,"o":"m 538 976 q 745 928 669 976 q 844 769 821 879 q 840 475 867 660 q 790 242 822 338 q 707 90 757 147 q 583 8 657 33 q 410 -18 510 -18 q 201 30 278 -18 q 100 188 124 78 q 101 483 76 297 q 153 713 121 619 q 235 865 185 807 q 360 950 286 924 q 538 976 435 976 m 532 894 q 360 856 426 894 q 257 725 294 817 q 197 475 219 633 q 188 231 175 321 q 254 103 200 142 q 410 64 308 64 q 581 103 515 64 q 685 235 646 143 q 746 483 725 326 q 757 730 769 640 q 690 857 744 819 q 532 894 636 894 m 797 814 l 799 860 q 905 905 864 863 q 960 1008 946 947 l 1025 993 q 980 897 1014 938 q 899 835 946 857 q 797 814 851 813 z "},"Ớ":{"ha":931,"x_min":76,"x_max":1025,"o":"m 538 976 q 745 928 669 976 q 844 769 821 879 q 840 475 867 660 q 790 242 822 338 q 707 90 757 147 q 583 8 657 33 q 410 -18 510 -18 q 201 30 278 -18 q 100 188 124 78 q 101 483 76 297 q 153 713 121 619 q 235 865 185 807 q 360 950 286 924 q 538 976 435 976 m 532 894 q 360 856 426 894 q 257 725 294 817 q 197 475 219 633 q 188 231 175 321 q 254 103 200 142 q 410 64 308 64 q 581 103 515 64 q 685 235 646 143 q 746 483 725 326 q 757 730 769 640 q 690 857 744 819 q 532 894 636 894 m 797 814 l 799 860 q 905 905 864 863 q 960 1008 946 947 l 1025 993 q 980 897 1014 938 q 899 835 946 857 q 797 814 851 813 m 718 1261 l 764 1193 l 493 1015 l 463 1057 l 718 1261 z "},"Ợ":{"ha":931,"x_min":76,"x_max":1025,"o":"m 538 976 q 745 928 669 976 q 844 769 821 879 q 840 475 867 660 q 790 242 822 338 q 707 90 757 147 q 583 8 657 33 q 410 -18 510 -18 q 201 30 278 -18 q 100 188 124 78 q 101 483 76 297 q 153 713 121 619 q 235 865 185 807 q 360 950 286 924 q 538 976 435 976 m 532 894 q 360 856 426 894 q 257 725 294 817 q 197 475 219 633 q 188 231 175 321 q 254 103 200 142 q 410 64 308 64 q 581 103 515 64 q 685 235 646 143 q 746 483 725 326 q 757 730 769 640 q 690 857 744 819 q 532 894 636 894 m 797 814 l 799 860 q 905 905 864 863 q 960 1008 946 947 l 1025 993 q 980 897 1014 938 q 899 835 946 857 q 797 814 851 813 m 414 -78 q 436 -85 429 -78 q 442 -108 443 -93 l 431 -189 q 399 -217 426 -217 l 369 -217 q 349 -208 356 -217 q 343 -186 342 -200 l 354 -106 q 362 -84 356 -90 q 383 -78 368 -78 l 414 -78 z "},"Ờ":{"ha":931,"x_min":76,"x_max":1025,"o":"m 538 976 q 745 928 669 976 q 844 769 821 879 q 840 475 867 660 q 790 242 822 338 q 707 90 757 147 q 583 8 657 33 q 410 -18 510 -18 q 201 30 278 -18 q 100 188 124 78 q 101 483 76 297 q 153 713 121 619 q 235 865 185 807 q 360 950 286 924 q 538 976 435 976 m 532 894 q 360 856 426 894 q 257 725 294 817 q 197 475 219 633 q 188 231 175 321 q 254 103 200 142 q 410 64 308 64 q 581 103 515 64 q 685 235 646 143 q 746 483 725 326 q 757 730 769 640 q 690 857 744 819 q 532 894 636 894 m 797 814 l 799 860 q 905 905 864 863 q 960 1008 946 947 l 1025 993 q 980 897 1014 938 q 899 835 946 857 q 797 814 851 813 m 392 1260 l 608 1056 l 574 1015 l 342 1197 l 392 1260 z "},"Ở":{"ha":931,"x_min":76,"x_max":1025,"o":"m 538 976 q 745 928 669 976 q 844 769 821 879 q 840 475 867 660 q 790 242 822 338 q 707 90 757 147 q 583 8 657 33 q 410 -18 510 -18 q 201 30 278 -18 q 100 188 124 78 q 101 483 76 297 q 153 713 121 619 q 235 865 185 807 q 360 950 286 924 q 538 976 435 976 m 532 894 q 360 856 426 894 q 257 725 294 817 q 197 475 219 633 q 188 231 175 321 q 254 103 200 142 q 410 64 308 64 q 581 103 515 64 q 685 235 646 143 q 746 483 725 326 q 757 730 769 640 q 690 857 744 819 q 532 894 636 894 m 797 814 l 799 860 q 905 905 864 863 q 960 1008 946 947 l 1025 993 q 980 897 1014 938 q 899 835 946 857 q 797 814 851 813 m 511 1081 q 597 1126 571 1093 q 622 1201 622 1160 q 597 1247 622 1236 q 519 1243 571 1257 l 518 1293 q 640 1294 593 1315 q 688 1213 688 1274 q 642 1097 688 1147 q 515 1036 596 1047 l 511 1081 z "},"Ỡ":{"ha":931,"x_min":76,"x_max":1025,"o":"m 538 976 q 745 928 669 976 q 844 769 821 879 q 840 475 867 660 q 790 242 822 338 q 707 90 757 147 q 583 8 657 33 q 410 -18 510 -18 q 201 30 278 -18 q 100 188 124 78 q 101 483 76 297 q 153 713 121 619 q 235 865 185 807 q 360 950 286 924 q 538 976 435 976 m 532 894 q 360 856 426 894 q 257 725 294 817 q 197 475 219 633 q 188 231 175 321 q 254 103 200 142 q 410 64 308 64 q 581 103 515 64 q 685 235 646 143 q 746 483 725 326 q 757 730 769 640 q 690 857 744 819 q 532 894 636 894 m 797 814 l 799 860 q 905 905 864 863 q 960 1008 946 947 l 1025 993 q 980 897 1014 938 q 899 835 946 857 q 797 814 851 813 m 457 1215 q 513 1201 489 1213 q 557 1174 538 1189 q 598 1147 576 1160 q 647 1132 619 1135 q 710 1148 690 1128 q 736 1210 731 1168 l 781 1207 q 743 1098 776 1135 q 658 1065 710 1061 q 597 1081 624 1068 q 551 1108 571 1093 q 511 1135 531 1122 q 468 1150 492 1147 q 406 1133 426 1154 q 378 1067 385 1111 l 335 1071 q 374 1183 339 1147 q 457 1215 410 1219 z "},"Ő":{"ha":922,"x_min":76,"x_max":867,"o":"m 538 976 q 745 928 669 976 q 844 769 821 879 q 840 475 867 660 q 790 242 822 338 q 707 90 757 147 q 583 8 657 33 q 410 -18 510 -18 q 201 30 278 -18 q 100 188 124 78 q 101 483 76 297 q 153 713 121 619 q 235 865 185 807 q 360 950 286 924 q 538 976 435 976 m 532 894 q 360 856 426 894 q 257 725 294 817 q 197 475 219 633 q 188 231 175 321 q 254 103 200 142 q 410 64 308 64 q 581 103 515 64 q 685 235 646 143 q 746 483 725 326 q 757 730 769 640 q 690 857 744 819 q 532 894 636 894 m 568 1268 l 625 1226 l 417 1010 l 378 1040 l 568 1268 m 785 1268 l 842 1226 l 633 1010 l 594 1040 l 785 1268 z "},"Ȏ":{"ha":922,"x_min":76,"x_max":867,"o":"m 538 976 q 745 928 669 976 q 844 769 821 879 q 840 475 867 660 q 790 242 822 338 q 707 90 757 147 q 583 8 657 33 q 410 -18 510 -18 q 201 30 278 -18 q 100 188 124 78 q 101 483 76 297 q 153 713 121 619 q 235 865 185 807 q 360 950 286 924 q 538 976 435 976 m 532 894 q 360 856 426 894 q 257 725 294 817 q 197 475 219 633 q 188 231 175 321 q 254 103 200 142 q 410 64 308 64 q 581 103 515 64 q 685 235 646 143 q 746 483 725 326 q 757 730 769 640 q 690 857 744 819 q 532 894 636 894 m 390 1040 l 342 1051 q 377 1143 349 1104 q 453 1203 406 1182 q 561 1224 500 1224 q 672 1202 628 1224 q 735 1141 717 1181 q 744 1049 754 1101 l 696 1044 q 667 1127 704 1099 q 563 1156 631 1156 q 442 1125 489 1156 q 390 1040 396 1094 z "},"Ō":{"ha":922,"x_min":76,"x_max":867,"o":"m 538 976 q 745 928 669 976 q 844 769 821 879 q 840 475 867 660 q 790 242 822 338 q 707 90 757 147 q 583 8 657 33 q 410 -18 510 -18 q 201 30 278 -18 q 100 188 124 78 q 101 483 76 297 q 153 713 121 619 q 235 865 185 807 q 360 950 286 924 q 538 976 435 976 m 532 894 q 360 856 426 894 q 257 725 294 817 q 197 475 219 633 q 188 231 175 321 q 254 103 200 142 q 410 64 308 64 q 581 103 515 64 q 685 235 646 143 q 746 483 725 326 q 757 730 769 640 q 690 857 744 819 q 532 894 636 894 m 750 1168 l 742 1101 l 363 1101 l 371 1168 l 750 1168 z "},"Ṓ":{"ha":922,"x_min":76,"x_max":867,"o":"m 538 976 q 745 928 669 976 q 844 769 821 879 q 840 475 867 660 q 790 242 822 338 q 707 90 757 147 q 583 8 657 33 q 410 -18 510 -18 q 201 30 278 -18 q 100 188 124 78 q 101 483 76 297 q 153 713 121 619 q 235 865 185 807 q 360 950 286 924 q 538 976 435 976 m 532 894 q 360 856 426 894 q 257 725 294 817 q 197 475 219 633 q 188 231 175 321 q 254 103 200 142 q 410 64 308 64 q 581 103 515 64 q 685 235 646 143 q 746 483 725 326 q 757 730 769 640 q 690 857 744 819 q 532 894 636 894 m 743 1126 l 735 1060 l 356 1060 l 365 1126 l 743 1126 m 647 1367 l 696 1308 l 507 1169 l 474 1206 l 647 1367 z "},"Ṑ":{"ha":922,"x_min":76,"x_max":867,"o":"m 538 976 q 745 928 669 976 q 844 769 821 879 q 840 475 867 660 q 790 242 822 338 q 707 90 757 147 q 583 8 657 33 q 410 -18 510 -18 q 201 30 278 -18 q 100 188 124 78 q 101 483 76 297 q 153 713 121 619 q 235 865 185 807 q 360 950 286 924 q 538 976 435 976 m 532 894 q 360 856 426 894 q 257 725 294 817 q 197 475 219 633 q 188 231 175 321 q 254 103 200 142 q 410 64 308 64 q 581 103 515 64 q 685 235 646 143 q 746 483 725 326 q 757 730 769 640 q 690 857 744 819 q 532 894 636 894 m 742 1126 l 733 1060 l 354 1060 l 364 1126 l 742 1126 m 471 1360 l 610 1206 l 575 1172 l 419 1307 l 471 1360 z "},"Ǫ":{"ha":922,"x_min":76,"x_max":867,"o":"m 538 976 q 745 928 669 976 q 844 769 821 879 q 840 475 867 660 q 790 242 822 338 q 707 90 757 147 q 583 8 657 33 q 410 -18 510 -18 q 201 30 278 -18 q 100 188 124 78 q 101 483 76 297 q 153 713 121 619 q 235 865 185 807 q 360 950 286 924 q 538 976 435 976 m 532 894 q 360 856 426 894 q 257 725 294 817 q 197 475 219 633 q 188 231 175 321 q 254 103 200 142 q 410 64 308 64 q 581 103 515 64 q 685 235 646 143 q 746 483 725 326 q 757 730 769 640 q 690 857 744 819 q 532 894 636 894 m 404 10 l 449 6 q 378 -72 411 -31 q 318 -162 346 -112 q 319 -233 290 -217 q 421 -225 347 -249 l 432 -264 q 324 -291 367 -290 q 258 -273 281 -292 q 235 -224 236 -254 q 251 -157 235 -193 q 305 -81 269 -122 q 404 10 340 -39 z "},"Ø":{"ha":922,"x_min":76,"x_max":867,"o":"m 781 1040 l 828 1014 l 164 -79 l 117 -51 l 781 1040 m 538 976 q 745 928 669 976 q 844 769 821 879 q 840 475 867 660 q 790 242 822 338 q 707 90 757 147 q 583 8 657 33 q 410 -18 510 -18 q 201 30 278 -18 q 100 188 124 78 q 101 483 76 297 q 153 713 121 619 q 235 865 185 807 q 360 950 286 924 q 538 976 435 976 m 532 894 q 360 856 426 894 q 257 725 294 817 q 197 475 219 633 q 188 231 175 321 q 254 103 200 142 q 410 64 308 64 q 581 103 515 64 q 685 235 646 143 q 746 483 725 326 q 757 730 769 640 q 690 857 744 819 q 532 894 636 894 z "},"Ǿ":{"ha":922,"x_min":76,"x_max":867,"o":"m 781 1040 l 828 1014 l 164 -79 l 117 -51 l 781 1040 m 538 976 q 745 928 669 976 q 844 769 821 879 q 840 475 867 660 q 790 242 822 338 q 707 90 757 147 q 583 8 657 33 q 410 -18 510 -18 q 201 30 278 -18 q 100 188 124 78 q 101 483 76 297 q 153 713 121 619 q 235 865 185 807 q 360 950 286 924 q 538 976 435 976 m 532 894 q 360 856 426 894 q 257 725 294 817 q 197 475 219 633 q 188 231 175 321 q 254 103 200 142 q 410 64 308 64 q 581 103 515 64 q 685 235 646 143 q 746 483 725 326 q 757 730 769 640 q 690 857 744 819 q 532 894 636 894 m 718 1261 l 764 1193 l 493 1015 l 463 1057 l 718 1261 z "},"Õ":{"ha":922,"x_min":76,"x_max":867,"o":"m 538 976 q 745 928 669 976 q 844 769 821 879 q 840 475 867 660 q 790 242 822 338 q 707 90 757 147 q 583 8 657 33 q 410 -18 510 -18 q 201 30 278 -18 q 100 188 124 78 q 101 483 76 297 q 153 713 121 619 q 235 865 185 807 q 360 950 286 924 q 538 976 435 976 m 532 894 q 360 856 426 894 q 257 725 294 817 q 197 475 219 633 q 188 231 175 321 q 254 103 200 142 q 410 64 308 64 q 581 103 515 64 q 685 235 646 143 q 746 483 725 326 q 757 730 769 640 q 690 857 744 819 q 532 894 636 894 m 457 1215 q 513 1201 490 1213 q 556 1174 536 1189 q 597 1147 576 1160 q 647 1132 618 1135 q 710 1148 690 1128 q 736 1210 731 1168 l 779 1207 q 742 1098 776 1135 q 658 1065 708 1061 q 597 1081 622 1068 q 551 1108 572 1093 q 511 1135 531 1122 q 467 1150 492 1147 q 405 1133 425 1154 q 379 1067 385 1111 l 335 1071 q 374 1183 339 1147 q 457 1215 410 1219 z "},"Ṍ":{"ha":922,"x_min":76,"x_max":867,"o":"m 538 976 q 745 928 669 976 q 844 769 821 879 q 840 475 867 660 q 790 242 822 338 q 707 90 757 147 q 583 8 657 33 q 410 -18 510 -18 q 201 30 278 -18 q 100 188 124 78 q 101 483 76 297 q 153 713 121 619 q 235 865 185 807 q 360 950 286 924 q 538 976 435 976 m 532 894 q 360 856 426 894 q 257 725 294 817 q 197 475 219 633 q 188 231 175 321 q 254 103 200 142 q 410 64 308 64 q 581 103 515 64 q 685 235 646 143 q 746 483 725 326 q 757 730 769 640 q 690 857 744 819 q 532 894 636 894 m 453 1188 q 508 1173 485 1185 q 551 1146 532 1161 q 592 1119 571 1131 q 643 1104 614 1107 q 706 1120 686 1100 q 732 1182 726 1140 l 775 1179 q 738 1071 772 1107 q 654 1038 704 1035 q 592 1053 618 1040 q 546 1081 567 1065 q 506 1108 525 1096 q 463 1122 486 1119 q 400 1105 421 1126 q 374 1039 379 1083 l 329 1043 q 369 1156 335 1119 q 453 1188 404 1192 m 664 1413 l 711 1354 l 524 1217 l 492 1253 l 664 1413 z "},"Ṏ":{"ha":922,"x_min":76,"x_max":867,"o":"m 538 976 q 745 928 669 976 q 844 769 821 879 q 840 475 867 660 q 790 242 822 338 q 707 90 757 147 q 583 8 657 33 q 410 -18 510 -18 q 201 30 278 -18 q 100 188 124 78 q 101 483 76 297 q 153 713 121 619 q 235 865 185 807 q 360 950 286 924 q 538 976 435 976 m 532 894 q 360 856 426 894 q 257 725 294 817 q 197 475 219 633 q 188 231 175 321 q 254 103 200 142 q 410 64 308 64 q 581 103 515 64 q 685 235 646 143 q 746 483 725 326 q 757 730 769 640 q 690 857 744 819 q 532 894 636 894 m 453 1188 q 509 1173 486 1185 q 552 1146 532 1161 q 593 1119 572 1131 q 643 1104 614 1107 q 706 1120 686 1100 q 732 1182 726 1140 l 775 1179 q 738 1071 772 1107 q 654 1038 704 1035 q 593 1053 618 1040 q 547 1081 568 1065 q 507 1108 526 1096 q 463 1122 488 1119 q 401 1105 421 1126 q 375 1039 381 1083 l 331 1043 q 370 1156 335 1119 q 453 1188 406 1192 m 489 1388 q 508 1381 504 1388 q 511 1363 513 1375 l 500 1293 q 492 1274 499 1281 q 472 1268 485 1268 l 447 1268 q 425 1292 422 1268 l 435 1363 q 464 1388 439 1388 l 489 1388 m 706 1388 q 728 1363 731 1388 l 717 1293 q 690 1268 714 1268 l 664 1268 q 640 1292 638 1268 l 651 1363 q 681 1388 656 1388 l 706 1388 z "},"Ȭ":{"ha":922,"x_min":76,"x_max":867,"o":"m 538 976 q 745 928 669 976 q 844 769 821 879 q 840 475 867 660 q 790 242 822 338 q 707 90 757 147 q 583 8 657 33 q 410 -18 510 -18 q 201 30 278 -18 q 100 188 124 78 q 101 483 76 297 q 153 713 121 619 q 235 865 185 807 q 360 950 286 924 q 538 976 435 976 m 532 894 q 360 856 426 894 q 257 725 294 817 q 197 475 219 633 q 188 231 175 321 q 254 103 200 142 q 410 64 308 64 q 581 103 515 64 q 685 235 646 143 q 746 483 725 326 q 757 730 769 640 q 690 857 744 819 q 532 894 636 894 m 453 1188 q 509 1173 486 1185 q 552 1146 532 1161 q 593 1119 572 1131 q 643 1104 614 1107 q 706 1120 686 1100 q 732 1182 726 1140 l 775 1179 q 738 1071 772 1107 q 654 1038 704 1035 q 593 1053 618 1040 q 547 1081 568 1065 q 507 1108 526 1096 q 463 1122 488 1119 q 401 1105 421 1126 q 375 1039 381 1083 l 331 1043 q 370 1156 335 1119 q 453 1188 406 1192 m 751 1332 l 743 1269 l 399 1269 l 407 1332 l 751 1332 z "},"Œ":{"ha":1260,"x_min":82,"x_max":1263,"o":"m 542 976 q 664 965 613 976 q 771 926 715 954 l 732 858 q 644 885 688 876 q 542 894 600 894 q 365 856 433 894 q 258 726 297 817 q 197 475 219 635 q 187 231 175 321 q 254 103 199 142 q 415 64 310 64 q 497 69 464 64 q 558 83 529 74 q 624 103 588 92 l 651 36 q 576 6 611 18 q 503 -12 542 -7 q 413 -18 465 -18 q 238 8 307 -18 q 132 92 168 33 q 89 246 96 150 q 101 483 82 342 q 153 717 121 622 q 237 868 186 811 q 362 951 288 925 q 542 976 436 976 m 668 546 l 1147 544 l 1139 472 l 657 472 l 668 546 m 865 960 q 1001 960 933 960 q 1134 958 1068 960 q 1263 951 1200 956 l 1251 881 l 878 881 q 802 855 831 881 q 767 779 774 829 l 683 175 q 698 103 676 128 q 767 78 719 78 l 1138 78 l 1135 7 q 1010 1 1074 3 q 882 -1 946 0 q 754 -1 818 -1 q 656 21 696 -1 q 600 83 617 43 q 590 174 583 122 l 679 804 q 739 917 689 875 q 865 960 789 960 z "},"P":{"ha":813,"x_min":71,"x_max":800,"o":"m 524 971 q 694 943 632 971 q 778 851 757 915 q 783 674 800 786 q 731 493 768 556 q 627 407 693 431 q 454 383 561 383 q 349 385 400 383 q 257 392 299 388 q 186 399 215 396 q 144 406 157 403 l 151 463 q 301 463 224 463 q 451 463 378 463 q 580 482 532 463 q 654 548 628 501 q 693 682 681 594 q 692 811 706 765 q 638 874 679 857 q 521 890 596 890 q 328 890 410 890 q 218 886 247 889 l 206 958 q 302 967 257 964 q 399 970 347 969 q 524 971 450 971 m 297 958 l 163 0 l 71 0 l 206 958 l 297 958 z "},"Þ":{"ha":815,"x_min":71,"x_max":775,"o":"m 499 782 q 666 756 603 782 q 752 664 729 729 q 757 482 775 599 q 704 304 740 368 q 602 215 668 240 q 435 190 536 190 q 291 194 357 190 q 180 203 225 199 q 118 213 135 208 l 125 271 q 274 271 197 271 q 424 271 351 271 q 551 290 503 272 q 627 356 600 308 q 667 490 654 403 q 667 622 679 576 q 613 685 654 668 q 496 703 572 703 q 303 702 385 703 q 193 699 222 701 l 179 771 q 276 778 232 776 q 373 781 321 781 q 499 782 425 782 m 297 958 l 163 0 l 71 0 l 206 958 l 297 958 z "},"Q":{"ha":922,"x_min":76,"x_max":867,"o":"m 538 976 q 745 928 669 976 q 844 769 821 879 q 840 475 867 660 q 790 242 822 338 q 707 90 757 147 q 583 8 657 33 q 410 -18 510 -18 q 201 30 278 -18 q 100 188 124 78 q 101 483 76 297 q 153 713 121 619 q 235 865 185 807 q 360 950 286 924 q 538 976 435 976 m 339 -64 q 492 -133 410 -106 q 674 -175 575 -160 l 639 -267 q 452 -207 536 -246 q 303 -118 368 -168 l 339 -64 m 532 894 q 360 856 426 894 q 257 725 294 817 q 197 475 219 633 q 188 231 175 321 q 254 103 200 142 q 410 64 308 64 q 581 103 515 64 q 685 235 646 143 q 746 483 725 326 q 757 730 769 640 q 690 857 744 819 q 532 894 636 894 z "},"R":{"ha":853,"x_min":71,"x_max":804,"o":"m 524 971 q 688 946 625 971 q 778 860 751 921 q 789 692 804 800 q 752 563 778 615 q 683 483 726 511 q 575 446 640 456 l 574 440 q 618 415 599 433 q 651 367 638 396 q 671 301 664 339 l 732 0 l 639 0 l 581 303 q 540 386 569 363 q 461 411 510 410 q 315 413 376 413 q 213 415 254 414 q 146 417 172 415 l 158 490 l 458 490 q 583 510 535 492 q 658 572 631 528 q 696 696 685 617 q 694 815 707 774 q 640 874 682 857 q 522 890 599 890 q 328 890 408 890 q 218 888 247 889 l 206 958 q 303 967 257 964 q 401 970 349 969 q 524 971 454 971 m 294 958 l 160 0 l 71 0 l 206 958 l 294 958 z "},"Ŕ":{"ha":853,"x_min":71,"x_max":804,"o":"m 524 971 q 688 946 625 971 q 778 860 751 921 q 789 692 804 800 q 752 563 778 615 q 683 483 726 511 q 575 446 640 456 l 574 440 q 618 415 599 433 q 651 367 638 396 q 671 301 664 339 l 732 0 l 639 0 l 581 303 q 540 386 569 363 q 461 411 510 410 q 315 413 376 413 q 213 415 254 414 q 146 417 172 415 l 158 490 l 458 490 q 583 510 535 492 q 658 572 631 528 q 696 696 685 617 q 694 815 707 774 q 640 874 682 857 q 522 890 599 890 q 328 890 408 890 q 218 888 247 889 l 206 958 q 303 967 257 964 q 401 970 349 969 q 524 971 454 971 m 294 958 l 160 0 l 71 0 l 206 958 l 294 958 m 696 1261 l 740 1193 l 471 1015 l 440 1057 l 696 1261 z "},"Ř":{"ha":853,"x_min":71,"x_max":804,"o":"m 524 971 q 688 946 625 971 q 778 860 751 921 q 789 692 804 800 q 752 563 778 615 q 683 483 726 511 q 575 446 640 456 l 574 440 q 618 415 599 433 q 651 367 638 396 q 671 301 664 339 l 732 0 l 639 0 l 581 303 q 540 386 569 363 q 461 411 510 410 q 315 413 376 413 q 213 415 254 414 q 146 417 172 415 l 158 490 l 458 490 q 583 510 535 492 q 658 572 631 528 q 696 696 685 617 q 694 815 707 774 q 640 874 682 857 q 522 890 599 890 q 328 890 408 890 q 218 888 247 889 l 206 958 q 303 967 257 964 q 401 970 349 969 q 524 971 454 971 m 294 958 l 160 0 l 71 0 l 206 958 l 294 958 m 738 1247 l 767 1208 l 557 1036 l 492 1036 l 328 1214 l 365 1247 l 524 1108 l 535 1108 l 738 1247 z "},"Ŗ":{"ha":853,"x_min":71,"x_max":804,"o":"m 524 971 q 688 946 625 971 q 778 860 751 921 q 789 692 804 800 q 752 563 778 615 q 683 483 726 511 q 575 446 640 456 l 574 440 q 618 415 599 433 q 651 367 638 396 q 671 301 664 339 l 732 0 l 639 0 l 581 303 q 540 386 569 363 q 461 411 510 410 q 315 413 376 413 q 213 415 254 414 q 146 417 172 415 l 158 490 l 458 490 q 583 510 535 492 q 658 572 631 528 q 696 696 685 617 q 694 815 707 774 q 640 874 682 857 q 522 890 599 890 q 328 890 408 890 q 218 888 247 889 l 206 958 q 303 967 257 964 q 401 970 349 969 q 524 971 454 971 m 294 958 l 160 0 l 71 0 l 206 958 l 294 958 m 424 -86 q 447 -94 440 -86 q 449 -117 453 -101 l 438 -194 q 425 -250 434 -221 q 404 -309 416 -279 q 376 -365 391 -338 l 334 -352 q 356 -285 347 -316 q 373 -212 365 -254 q 354 -206 360 -213 q 349 -186 348 -198 l 360 -115 q 371 -93 363 -100 q 397 -86 379 -86 l 424 -86 z "},"Ȑ":{"ha":853,"x_min":71,"x_max":804,"o":"m 524 971 q 688 946 625 971 q 778 860 751 921 q 789 692 804 800 q 752 563 778 615 q 683 483 726 511 q 575 446 640 456 l 574 440 q 618 415 599 433 q 651 367 638 396 q 671 301 664 339 l 732 0 l 639 0 l 581 303 q 540 386 569 363 q 461 411 510 410 q 315 413 376 413 q 213 415 254 414 q 146 417 172 415 l 158 490 l 458 490 q 583 510 535 492 q 658 572 631 528 q 696 696 685 617 q 694 815 707 774 q 640 874 682 857 q 522 890 599 890 q 328 890 408 890 q 218 888 247 889 l 206 958 q 303 967 257 964 q 401 970 349 969 q 524 971 454 971 m 294 958 l 160 0 l 71 0 l 206 958 l 294 958 m 493 1268 l 685 1040 l 644 1010 l 438 1226 l 493 1268 m 278 1268 l 467 1040 l 429 1010 l 221 1226 l 278 1268 z "},"Ṛ":{"ha":853,"x_min":71,"x_max":804,"o":"m 524 971 q 688 946 625 971 q 778 860 751 921 q 789 692 804 800 q 752 563 778 615 q 683 483 726 511 q 575 446 640 456 l 574 440 q 618 415 599 433 q 651 367 638 396 q 671 301 664 339 l 732 0 l 639 0 l 581 303 q 540 386 569 363 q 461 411 510 410 q 315 413 376 413 q 213 415 254 414 q 146 417 172 415 l 158 490 l 458 490 q 583 510 535 492 q 658 572 631 528 q 696 696 685 617 q 694 815 707 774 q 640 874 682 857 q 522 890 599 890 q 328 890 408 890 q 218 888 247 889 l 206 958 q 303 967 257 964 q 401 970 349 969 q 524 971 454 971 m 294 958 l 160 0 l 71 0 l 206 958 l 294 958 m 392 -78 q 414 -85 407 -78 q 419 -108 421 -93 l 408 -189 q 376 -217 404 -217 l 347 -217 q 326 -208 333 -217 q 321 -186 319 -200 l 332 -106 q 340 -84 333 -90 q 361 -78 346 -78 l 392 -78 z "},"Ȓ":{"ha":853,"x_min":71,"x_max":804,"o":"m 524 971 q 688 946 625 971 q 778 860 751 921 q 789 692 804 800 q 752 563 778 615 q 683 483 726 511 q 575 446 640 456 l 574 440 q 618 415 599 433 q 651 367 638 396 q 671 301 664 339 l 732 0 l 639 0 l 581 303 q 540 386 569 363 q 461 411 510 410 q 315 413 376 413 q 213 415 254 414 q 146 417 172 415 l 158 490 l 458 490 q 583 510 535 492 q 658 572 631 528 q 696 696 685 617 q 694 815 707 774 q 640 874 682 857 q 522 890 599 890 q 328 890 408 890 q 218 888 247 889 l 206 958 q 303 967 257 964 q 401 970 349 969 q 524 971 454 971 m 294 958 l 160 0 l 71 0 l 206 958 l 294 958 m 369 1040 l 321 1051 q 356 1143 328 1104 q 432 1203 385 1182 q 540 1224 479 1224 q 651 1202 607 1224 q 715 1141 696 1181 q 724 1049 733 1101 l 675 1044 q 647 1127 683 1099 q 542 1156 610 1156 q 422 1125 468 1156 q 369 1040 375 1094 z "},"Ṟ":{"ha":853,"x_min":71,"x_max":804,"o":"m 524 971 q 688 946 625 971 q 778 860 751 921 q 789 692 804 800 q 752 563 778 615 q 683 483 726 511 q 575 446 640 456 l 574 440 q 618 415 599 433 q 651 367 638 396 q 671 301 664 339 l 732 0 l 639 0 l 581 303 q 540 386 569 363 q 461 411 510 410 q 315 413 376 413 q 213 415 254 414 q 146 417 172 415 l 158 490 l 458 490 q 583 510 535 492 q 658 572 631 528 q 696 696 685 617 q 694 815 707 774 q 640 874 682 857 q 522 890 599 890 q 328 890 408 890 q 218 888 247 889 l 206 958 q 303 967 257 964 q 401 970 349 969 q 524 971 454 971 m 294 958 l 160 0 l 71 0 l 206 958 l 294 958 m 564 -112 l 554 -181 l 176 -181 l 186 -112 l 564 -112 z "},"S":{"ha":775,"x_min":42,"x_max":733,"o":"m 458 975 q 598 968 528 974 q 733 950 668 963 l 724 883 q 627 890 671 888 q 540 892 583 892 q 449 893 497 893 q 362 890 401 893 q 293 872 322 886 q 244 826 264 858 q 218 733 225 793 q 219 653 213 685 q 249 602 225 622 q 322 563 274 582 l 517 486 q 626 424 589 458 q 675 341 664 389 q 676 222 686 293 q 619 68 661 119 q 504 0 576 17 q 324 -17 432 -17 q 208 -12 282 -17 q 42 7 135 -8 l 53 74 q 173 69 125 71 q 258 66 221 67 q 331 65 294 65 q 465 78 413 67 q 545 124 517 89 q 585 232 574 160 q 585 317 592 286 q 552 367 578 347 q 478 406 526 388 l 281 483 q 177 545 214 510 q 129 629 140 581 q 126 743 118 678 q 165 869 138 822 q 234 939 192 917 q 333 968 276 961 q 458 975 389 975 z "},"Ś":{"ha":775,"x_min":42,"x_max":733,"o":"m 458 975 q 598 968 528 974 q 733 950 668 963 l 724 883 q 627 890 671 888 q 540 892 583 892 q 449 893 497 893 q 362 890 401 893 q 293 872 322 886 q 244 826 264 858 q 218 733 225 793 q 219 653 213 685 q 249 602 225 622 q 322 563 274 582 l 517 486 q 626 424 589 458 q 675 341 664 389 q 676 222 686 293 q 619 68 661 119 q 504 0 576 17 q 324 -17 432 -17 q 208 -12 282 -17 q 42 7 135 -8 l 53 74 q 173 69 125 71 q 258 66 221 67 q 331 65 294 65 q 465 78 413 67 q 545 124 517 89 q 585 232 574 160 q 585 317 592 286 q 552 367 578 347 q 478 406 526 388 l 281 483 q 177 545 214 510 q 129 629 140 581 q 126 743 118 678 q 165 869 138 822 q 234 939 192 917 q 333 968 276 961 q 458 975 389 975 m 643 1261 l 688 1193 l 418 1015 l 388 1057 l 643 1261 z "},"Ṥ":{"ha":775,"x_min":42,"x_max":733,"o":"m 458 975 q 598 968 528 974 q 733 950 668 963 l 724 883 q 627 890 671 888 q 540 892 583 892 q 449 893 497 893 q 362 890 401 893 q 293 872 322 886 q 244 826 264 858 q 218 733 225 793 q 219 653 213 685 q 249 602 225 622 q 322 563 274 582 l 517 486 q 626 424 589 458 q 675 341 664 389 q 676 222 686 293 q 619 68 661 119 q 504 0 576 17 q 324 -17 432 -17 q 208 -12 282 -17 q 42 7 135 -8 l 53 74 q 173 69 125 71 q 258 66 221 67 q 331 65 294 65 q 465 78 413 67 q 545 124 517 89 q 585 232 574 160 q 585 317 592 286 q 552 367 578 347 q 478 406 526 388 l 281 483 q 177 545 214 510 q 129 629 140 581 q 126 743 118 678 q 165 869 138 822 q 234 939 192 917 q 333 968 276 961 q 458 975 389 975 m 532 1383 q 552 1376 544 1383 q 557 1356 560 1369 l 547 1282 q 519 1257 543 1257 l 493 1257 q 467 1285 464 1257 l 476 1358 q 485 1377 479 1371 q 506 1383 492 1383 l 532 1383 m 593 1240 l 635 1179 l 403 1031 l 375 1069 l 593 1240 z "},"Š":{"ha":775,"x_min":42,"x_max":733,"o":"m 458 975 q 598 968 528 974 q 733 950 668 963 l 724 883 q 627 890 671 888 q 540 892 583 892 q 449 893 497 893 q 362 890 401 893 q 293 872 322 886 q 244 826 264 858 q 218 733 225 793 q 219 653 213 685 q 249 602 225 622 q 322 563 274 582 l 517 486 q 626 424 589 458 q 675 341 664 389 q 676 222 686 293 q 619 68 661 119 q 504 0 576 17 q 324 -17 432 -17 q 208 -12 282 -17 q 42 7 135 -8 l 53 74 q 173 69 125 71 q 258 66 221 67 q 331 65 294 65 q 465 78 413 67 q 545 124 517 89 q 585 232 574 160 q 585 317 592 286 q 552 367 578 347 q 478 406 526 388 l 281 483 q 177 545 214 510 q 129 629 140 581 q 126 743 118 678 q 165 869 138 822 q 234 939 192 917 q 333 968 276 961 q 458 975 389 975 m 685 1247 l 714 1208 l 504 1036 l 439 1036 l 275 1214 l 313 1247 l 471 1108 l 482 1108 l 685 1247 z "},"Ṧ":{"ha":775,"x_min":42,"x_max":733,"o":"m 458 975 q 598 968 528 974 q 733 950 668 963 l 724 883 q 627 890 671 888 q 540 892 583 892 q 449 893 497 893 q 362 890 401 893 q 293 872 322 886 q 244 826 264 858 q 218 733 225 793 q 219 653 213 685 q 249 602 225 622 q 322 563 274 582 l 517 486 q 626 424 589 458 q 675 341 664 389 q 676 222 686 293 q 619 68 661 119 q 504 0 576 17 q 324 -17 432 -17 q 208 -12 282 -17 q 42 7 135 -8 l 53 74 q 173 69 125 71 q 258 66 221 67 q 331 65 294 65 q 465 78 413 67 q 545 124 517 89 q 585 232 574 160 q 585 317 592 286 q 552 367 578 347 q 478 406 526 388 l 281 483 q 177 545 214 510 q 129 629 140 581 q 126 743 118 678 q 165 869 138 822 q 234 939 192 917 q 333 968 276 961 q 458 975 389 975 m 665 1233 l 694 1194 l 504 1036 l 439 1036 l 289 1199 l 326 1233 l 471 1108 l 482 1108 l 665 1233 m 524 1411 q 544 1404 536 1411 q 549 1383 551 1397 l 539 1310 q 511 1285 535 1285 l 485 1285 q 458 1313 456 1285 l 468 1386 q 477 1405 471 1399 q 497 1411 483 1411 l 524 1411 z "},"Ş":{"ha":775,"x_min":42,"x_max":733,"o":"m 458 975 q 598 968 528 974 q 733 950 668 963 l 724 883 q 627 890 671 888 q 540 892 583 892 q 449 893 497 893 q 362 890 401 893 q 293 872 322 886 q 244 826 264 858 q 218 733 225 793 q 219 653 213 685 q 249 602 225 622 q 322 563 274 582 l 517 486 q 626 424 589 458 q 675 341 664 389 q 676 222 686 293 q 619 68 661 119 q 504 0 576 17 q 324 -17 432 -17 q 208 -12 282 -17 q 42 7 135 -8 l 53 74 q 173 69 125 71 q 258 66 221 67 q 331 65 294 65 q 465 78 413 67 q 545 124 517 89 q 585 232 574 160 q 585 317 592 286 q 552 367 578 347 q 478 406 526 388 l 281 483 q 177 545 214 510 q 129 629 140 581 q 126 743 118 678 q 165 869 138 822 q 234 939 192 917 q 333 968 276 961 q 458 975 389 975 m 268 -62 q 347 -66 315 -58 q 390 -95 378 -74 q 396 -157 403 -117 q 356 -249 389 -211 q 271 -303 322 -286 q 157 -312 219 -321 l 174 -265 q 281 -234 238 -267 q 331 -154 324 -201 q 320 -117 335 -126 q 257 -106 306 -107 l 268 -62 z "},"Ŝ":{"ha":775,"x_min":42,"x_max":733,"o":"m 458 975 q 598 968 528 974 q 733 950 668 963 l 724 883 q 627 890 671 888 q 540 892 583 892 q 449 893 497 893 q 362 890 401 893 q 293 872 322 886 q 244 826 264 858 q 218 733 225 793 q 219 653 213 685 q 249 602 225 622 q 322 563 274 582 l 517 486 q 626 424 589 458 q 675 341 664 389 q 676 222 686 293 q 619 68 661 119 q 504 0 576 17 q 324 -17 432 -17 q 208 -12 282 -17 q 42 7 135 -8 l 53 74 q 173 69 125 71 q 258 66 221 67 q 331 65 294 65 q 465 78 413 67 q 545 124 517 89 q 585 232 574 160 q 585 317 592 286 q 552 367 578 347 q 478 406 526 388 l 281 483 q 177 545 214 510 q 129 629 140 581 q 126 743 118 678 q 165 869 138 822 q 234 939 192 917 q 333 968 276 961 q 458 975 389 975 m 526 1238 l 697 1060 l 663 1025 l 499 1165 l 488 1165 l 282 1025 l 254 1065 l 463 1238 l 526 1238 z "},"Ș":{"ha":775,"x_min":42,"x_max":733,"o":"m 458 975 q 598 968 528 974 q 733 950 668 963 l 724 883 q 627 890 671 888 q 540 892 583 892 q 449 893 497 893 q 362 890 401 893 q 293 872 322 886 q 244 826 264 858 q 218 733 225 793 q 219 653 213 685 q 249 602 225 622 q 322 563 274 582 l 517 486 q 626 424 589 458 q 675 341 664 389 q 676 222 686 293 q 619 68 661 119 q 504 0 576 17 q 324 -17 432 -17 q 208 -12 282 -17 q 42 7 135 -8 l 53 74 q 173 69 125 71 q 258 66 221 67 q 331 65 294 65 q 465 78 413 67 q 545 124 517 89 q 585 232 574 160 q 585 317 592 286 q 552 367 578 347 q 478 406 526 388 l 281 483 q 177 545 214 510 q 129 629 140 581 q 126 743 118 678 q 165 869 138 822 q 234 939 192 917 q 333 968 276 961 q 458 975 389 975 m 374 -86 q 397 -94 390 -86 q 399 -117 403 -101 l 388 -194 q 375 -250 384 -221 q 354 -309 366 -279 q 326 -365 341 -338 l 284 -352 q 306 -285 297 -316 q 323 -212 315 -254 q 304 -206 310 -213 q 299 -186 298 -198 l 310 -115 q 321 -93 313 -100 q 347 -86 329 -86 l 374 -86 z "},"Ṡ":{"ha":775,"x_min":42,"x_max":733,"o":"m 458 975 q 598 968 528 974 q 733 950 668 963 l 724 883 q 627 890 671 888 q 540 892 583 892 q 449 893 497 893 q 362 890 401 893 q 293 872 322 886 q 244 826 264 858 q 218 733 225 793 q 219 653 213 685 q 249 602 225 622 q 322 563 274 582 l 517 486 q 626 424 589 458 q 675 341 664 389 q 676 222 686 293 q 619 68 661 119 q 504 0 576 17 q 324 -17 432 -17 q 208 -12 282 -17 q 42 7 135 -8 l 53 74 q 173 69 125 71 q 258 66 221 67 q 331 65 294 65 q 465 78 413 67 q 545 124 517 89 q 585 232 574 160 q 585 317 592 286 q 552 367 578 347 q 478 406 526 388 l 281 483 q 177 545 214 510 q 129 629 140 581 q 126 743 118 678 q 165 869 138 822 q 234 939 192 917 q 333 968 276 961 q 458 975 389 975 m 504 1201 q 527 1194 519 1201 q 532 1171 535 1186 l 521 1090 q 490 1063 518 1063 l 461 1063 q 440 1071 447 1063 q 435 1093 432 1079 l 444 1174 q 453 1195 447 1189 q 475 1201 460 1201 l 504 1201 z "},"Ṣ":{"ha":775,"x_min":42,"x_max":733,"o":"m 458 975 q 598 968 528 974 q 733 950 668 963 l 724 883 q 627 890 671 888 q 540 892 583 892 q 449 893 497 893 q 362 890 401 893 q 293 872 322 886 q 244 826 264 858 q 218 733 225 793 q 219 653 213 685 q 249 602 225 622 q 322 563 274 582 l 517 486 q 626 424 589 458 q 675 341 664 389 q 676 222 686 293 q 619 68 661 119 q 504 0 576 17 q 324 -17 432 -17 q 208 -12 282 -17 q 42 7 135 -8 l 53 74 q 173 69 125 71 q 258 66 221 67 q 331 65 294 65 q 465 78 413 67 q 545 124 517 89 q 585 232 574 160 q 585 317 592 286 q 552 367 578 347 q 478 406 526 388 l 281 483 q 177 545 214 510 q 129 629 140 581 q 126 743 118 678 q 165 869 138 822 q 234 939 192 917 q 333 968 276 961 q 458 975 389 975 m 339 -78 q 361 -85 354 -78 q 367 -108 368 -93 l 356 -189 q 324 -217 351 -217 l 294 -217 q 274 -208 281 -217 q 268 -186 267 -200 l 279 -106 q 287 -84 281 -90 q 308 -78 293 -78 l 339 -78 z "},"Ṩ":{"ha":775,"x_min":42,"x_max":733,"o":"m 458 975 q 598 968 528 974 q 733 950 668 963 l 724 883 q 627 890 671 888 q 540 892 583 892 q 449 893 497 893 q 362 890 401 893 q 293 872 322 886 q 244 826 264 858 q 218 733 225 793 q 219 653 213 685 q 249 602 225 622 q 322 563 274 582 l 517 486 q 626 424 589 458 q 675 341 664 389 q 676 222 686 293 q 619 68 661 119 q 504 0 576 17 q 324 -17 432 -17 q 208 -12 282 -17 q 42 7 135 -8 l 53 74 q 173 69 125 71 q 258 66 221 67 q 331 65 294 65 q 465 78 413 67 q 545 124 517 89 q 585 232 574 160 q 585 317 592 286 q 552 367 578 347 q 478 406 526 388 l 281 483 q 177 545 214 510 q 129 629 140 581 q 126 743 118 678 q 165 869 138 822 q 234 939 192 917 q 333 968 276 961 q 458 975 389 975 m 339 -78 q 361 -85 354 -78 q 367 -108 368 -93 l 356 -189 q 324 -217 351 -217 l 294 -217 q 274 -208 281 -217 q 268 -186 267 -200 l 279 -106 q 287 -84 281 -90 q 308 -78 293 -78 l 339 -78 m 504 1201 q 527 1194 519 1201 q 532 1171 535 1186 l 521 1090 q 490 1063 518 1063 l 461 1063 q 440 1071 447 1063 q 435 1093 432 1079 l 444 1174 q 453 1195 447 1189 q 475 1201 460 1201 l 504 1201 z "},"ẞ":{"ha":857,"x_min":68,"x_max":840,"o":"m 367 960 q 476 960 417 960 q 597 959 535 960 q 719 956 658 958 q 835 951 779 954 l 821 881 l 386 881 q 304 858 333 881 q 268 779 275 835 l 158 0 l 68 0 l 179 800 q 240 918 190 876 q 367 960 289 960 m 238 7 l 251 76 q 369 65 310 68 q 485 64 429 61 q 612 96 560 69 q 694 169 664 122 q 735 279 725 215 q 738 349 742 317 q 716 406 733 381 q 664 447 699 432 q 571 461 629 461 l 417 464 l 426 524 l 715 881 l 821 881 l 578 582 q 525 533 553 551 l 525 529 l 596 533 q 734 506 678 535 q 815 417 790 478 q 824 263 840 357 q 778 131 813 193 q 676 28 744 68 q 493 -18 607 -11 q 370 -14 436 -19 q 238 7 304 -8 z "},"Ə":{"ha":882,"x_min":60,"x_max":826,"o":"m 369 -18 q 183 17 254 -18 q 86 119 113 51 q 79 285 60 188 q 136 420 97 371 q 242 494 175 469 q 406 531 310 519 l 772 575 l 758 496 l 399 451 q 282 423 329 443 q 208 367 235 403 q 171 272 182 331 q 172 168 160 208 q 213 106 183 128 q 283 74 242 83 q 371 64 325 64 q 542 103 476 64 q 646 234 607 143 q 707 481 685 325 q 718 729 731 639 q 651 857 706 819 q 493 894 597 894 q 388 891 439 894 q 288 881 338 888 q 190 868 239 875 l 181 929 q 279 956 225 946 q 390 971 333 965 q 497 976 447 976 q 705 928 629 976 q 803 769 781 879 q 800 472 826 658 q 749 241 782 335 q 666 90 717 147 q 543 8 615 33 q 369 -18 471 -18 z "},"T":{"ha":789,"x_min":96,"x_max":836,"o":"m 517 958 l 382 0 l 292 0 l 426 958 l 517 958 m 836 958 l 825 878 l 96 878 l 107 958 l 836 958 z "},"Ŧ":{"ha":789,"x_min":96,"x_max":836,"o":"m 665 556 l 658 501 l 165 501 l 174 556 l 665 556 m 517 958 l 382 0 l 292 0 l 426 958 l 517 958 m 836 958 l 825 878 l 96 878 l 107 958 l 836 958 z "},"Ť":{"ha":789,"x_min":96,"x_max":836,"o":"m 517 958 l 382 0 l 292 0 l 426 958 l 517 958 m 836 958 l 825 878 l 96 878 l 107 958 l 836 958 m 699 1247 l 728 1208 l 518 1036 l 453 1036 l 289 1214 l 326 1247 l 485 1108 l 496 1108 l 699 1247 z "},"Ţ":{"ha":789,"x_min":96,"x_max":836,"o":"m 517 958 l 382 0 l 292 0 l 426 958 l 517 958 m 836 958 l 825 878 l 96 878 l 107 958 l 836 958 m 271 -62 q 349 -66 318 -58 q 393 -95 381 -74 q 399 -157 406 -117 q 358 -249 392 -211 q 274 -303 325 -286 q 160 -312 222 -321 l 176 -265 q 283 -234 240 -267 q 333 -154 326 -201 q 323 -117 338 -126 q 260 -106 308 -107 l 271 -62 z "},"Ț":{"ha":789,"x_min":96,"x_max":836,"o":"m 517 958 l 382 0 l 292 0 l 426 958 l 517 958 m 836 958 l 825 878 l 96 878 l 107 958 l 836 958 m 339 -86 q 362 -94 356 -86 q 365 -117 368 -101 l 353 -194 q 341 -250 349 -221 q 319 -309 332 -279 q 291 -365 306 -338 l 250 -352 q 271 -285 262 -316 q 289 -212 280 -254 q 269 -206 275 -213 q 265 -186 264 -198 l 275 -115 q 286 -93 279 -100 q 313 -86 294 -86 l 339 -86 z "},"Ṭ":{"ha":789,"x_min":96,"x_max":836,"o":"m 517 958 l 382 0 l 292 0 l 426 958 l 517 958 m 836 958 l 825 878 l 96 878 l 107 958 l 836 958 m 342 -78 q 364 -85 357 -78 q 369 -108 371 -93 l 358 -189 q 326 -217 354 -217 l 297 -217 q 276 -208 283 -217 q 271 -186 269 -200 l 282 -106 q 290 -84 283 -90 q 311 -78 296 -78 l 342 -78 z "},"Ṯ":{"ha":789,"x_min":96,"x_max":836,"o":"m 517 958 l 382 0 l 292 0 l 426 958 l 517 958 m 836 958 l 825 878 l 96 878 l 107 958 l 836 958 m 514 -112 l 504 -181 l 126 -181 l 136 -112 l 514 -112 z "},"U":{"ha":924,"x_min":96,"x_max":881,"o":"m 881 958 l 797 361 q 733 140 778 224 q 610 19 688 57 q 413 -18 532 -18 q 218 21 290 -18 q 121 144 146 60 q 115 365 96 228 l 197 958 l 290 958 l 206 361 q 205 185 192 250 q 268 92 218 119 q 410 64 318 64 q 563 93 503 64 q 656 189 622 122 q 707 365 690 256 l 789 958 l 881 958 z "},"Ú":{"ha":924,"x_min":96,"x_max":881,"o":"m 881 958 l 797 361 q 733 140 778 224 q 610 19 688 57 q 413 -18 532 -18 q 218 21 290 -18 q 121 144 146 60 q 115 365 96 228 l 197 958 l 290 958 l 206 361 q 205 185 192 250 q 268 92 218 119 q 410 64 318 64 q 563 93 503 64 q 656 189 622 122 q 707 365 690 256 l 789 958 l 881 958 m 718 1261 l 763 1193 l 493 1015 l 463 1057 l 718 1261 z "},"Ŭ":{"ha":924,"x_min":96,"x_max":881,"o":"m 881 958 l 797 361 q 733 140 778 224 q 610 19 688 57 q 413 -18 532 -18 q 218 21 290 -18 q 121 144 146 60 q 115 365 96 228 l 197 958 l 290 958 l 206 361 q 205 185 192 250 q 268 92 218 119 q 410 64 318 64 q 563 93 503 64 q 656 189 622 122 q 707 365 690 256 l 789 958 l 881 958 m 721 1224 l 768 1213 q 734 1122 763 1160 q 658 1062 706 1083 q 549 1040 611 1040 q 439 1063 483 1040 q 375 1125 394 1085 q 365 1217 356 1165 l 414 1221 q 442 1138 406 1167 q 549 1108 479 1108 q 668 1140 622 1108 q 721 1224 714 1171 z "},"Û":{"ha":924,"x_min":96,"x_max":881,"o":"m 881 958 l 797 361 q 733 140 778 224 q 610 19 688 57 q 413 -18 532 -18 q 218 21 290 -18 q 121 144 146 60 q 115 365 96 228 l 197 958 l 290 958 l 206 361 q 205 185 192 250 q 268 92 218 119 q 410 64 318 64 q 563 93 503 64 q 656 189 622 122 q 707 365 690 256 l 789 958 l 881 958 m 601 1238 l 772 1060 l 738 1025 l 574 1165 l 563 1165 l 357 1025 l 329 1065 l 538 1238 l 601 1238 z "},"Ȕ":{"ha":924,"x_min":96,"x_max":881,"o":"m 881 958 l 797 361 q 733 140 778 224 q 610 19 688 57 q 413 -18 532 -18 q 218 21 290 -18 q 121 144 146 60 q 115 365 96 228 l 197 958 l 290 958 l 206 361 q 205 185 192 250 q 268 92 218 119 q 410 64 318 64 q 563 93 503 64 q 656 189 622 122 q 707 365 690 256 l 789 958 l 881 958 m 514 1268 l 706 1040 l 665 1010 l 458 1226 l 514 1268 m 299 1268 l 488 1040 l 450 1010 l 242 1226 l 299 1268 z "},"Ü":{"ha":924,"x_min":96,"x_max":881,"o":"m 881 958 l 797 361 q 733 140 778 224 q 610 19 688 57 q 413 -18 532 -18 q 218 21 290 -18 q 121 144 146 60 q 115 365 96 228 l 197 958 l 290 958 l 206 361 q 205 185 192 250 q 268 92 218 119 q 410 64 318 64 q 563 93 503 64 q 656 189 622 122 q 707 365 690 256 l 789 958 l 881 958 m 461 1201 q 482 1194 476 1201 q 485 1175 488 1188 l 474 1099 q 465 1078 472 1085 q 443 1071 458 1071 l 414 1071 q 390 1097 388 1071 l 401 1175 q 411 1194 404 1188 q 433 1201 418 1201 l 461 1201 m 699 1201 q 720 1194 715 1201 q 724 1175 725 1188 l 713 1099 q 704 1078 711 1085 q 682 1071 697 1071 l 653 1071 q 629 1097 626 1071 l 640 1175 q 650 1194 643 1188 q 671 1201 657 1201 l 699 1201 z "},"Ụ":{"ha":924,"x_min":96,"x_max":881,"o":"m 881 958 l 797 361 q 733 140 778 224 q 610 19 688 57 q 413 -18 532 -18 q 218 21 290 -18 q 121 144 146 60 q 115 365 96 228 l 197 958 l 290 958 l 206 361 q 205 185 192 250 q 268 92 218 119 q 410 64 318 64 q 563 93 503 64 q 656 189 622 122 q 707 365 690 256 l 789 958 l 881 958 m 414 -78 q 435 -85 428 -78 q 440 -108 443 -93 l 429 -189 q 399 -217 425 -217 l 369 -217 q 348 -208 356 -217 q 342 -186 340 -200 l 353 -106 q 362 -84 356 -90 q 383 -78 368 -78 l 414 -78 z "},"Ù":{"ha":924,"x_min":96,"x_max":881,"o":"m 881 958 l 797 361 q 733 140 778 224 q 610 19 688 57 q 413 -18 532 -18 q 218 21 290 -18 q 121 144 146 60 q 115 365 96 228 l 197 958 l 290 958 l 206 361 q 205 185 192 250 q 268 92 218 119 q 410 64 318 64 q 563 93 503 64 q 656 189 622 122 q 707 365 690 256 l 789 958 l 881 958 m 392 1260 l 608 1056 l 574 1015 l 342 1197 l 392 1260 z "},"Ủ":{"ha":924,"x_min":96,"x_max":881,"o":"m 881 958 l 797 361 q 733 140 778 224 q 610 19 688 57 q 413 -18 532 -18 q 218 21 290 -18 q 121 144 146 60 q 115 365 96 228 l 197 958 l 290 958 l 206 361 q 205 185 192 250 q 268 92 218 119 q 410 64 318 64 q 563 93 503 64 q 656 189 622 122 q 707 365 690 256 l 789 958 l 881 958 m 511 1081 q 597 1126 571 1093 q 622 1201 622 1160 q 597 1247 622 1236 q 519 1243 571 1257 l 518 1293 q 640 1294 593 1315 q 688 1213 688 1274 q 642 1097 688 1147 q 515 1036 596 1047 l 511 1081 z "},"Ư":{"ha":958,"x_min":96,"x_max":1075,"o":"m 881 958 l 797 361 q 733 140 778 224 q 610 19 688 57 q 413 -18 532 -18 q 218 21 290 -18 q 121 144 146 60 q 115 365 96 228 l 197 958 l 290 958 l 206 361 q 205 185 192 250 q 268 92 218 119 q 410 64 318 64 q 563 93 503 64 q 656 189 622 122 q 707 365 690 256 l 789 958 l 881 958 m 847 817 l 849 863 q 955 908 914 865 q 1010 1011 996 950 l 1075 996 q 1030 900 1064 940 q 949 838 996 860 q 847 817 901 815 z "},"Ứ":{"ha":958,"x_min":96,"x_max":1075,"o":"m 881 958 l 797 361 q 733 140 778 224 q 610 19 688 57 q 413 -18 532 -18 q 218 21 290 -18 q 121 144 146 60 q 115 365 96 228 l 197 958 l 290 958 l 206 361 q 205 185 192 250 q 268 92 218 119 q 410 64 318 64 q 563 93 503 64 q 656 189 622 122 q 707 365 690 256 l 789 958 l 881 958 m 847 817 l 849 863 q 955 908 914 865 q 1010 1011 996 950 l 1075 996 q 1030 900 1064 940 q 949 838 996 860 q 847 817 901 815 m 718 1261 l 764 1193 l 493 1015 l 463 1057 l 718 1261 z "},"Ự":{"ha":958,"x_min":96,"x_max":1075,"o":"m 881 958 l 797 361 q 733 140 778 224 q 610 19 688 57 q 413 -18 532 -18 q 218 21 290 -18 q 121 144 146 60 q 115 365 96 228 l 197 958 l 290 958 l 206 361 q 205 185 192 250 q 268 92 218 119 q 410 64 318 64 q 563 93 503 64 q 656 189 622 122 q 707 365 690 256 l 789 958 l 881 958 m 847 817 l 849 863 q 955 908 914 865 q 1010 1011 996 950 l 1075 996 q 1030 900 1064 940 q 949 838 996 860 q 847 817 901 815 m 414 -78 q 436 -85 429 -78 q 442 -108 443 -93 l 431 -189 q 399 -217 426 -217 l 369 -217 q 349 -208 356 -217 q 343 -186 342 -200 l 354 -106 q 362 -84 356 -90 q 383 -78 368 -78 l 414 -78 z "},"Ừ":{"ha":958,"x_min":96,"x_max":1075,"o":"m 881 958 l 797 361 q 733 140 778 224 q 610 19 688 57 q 413 -18 532 -18 q 218 21 290 -18 q 121 144 146 60 q 115 365 96 228 l 197 958 l 290 958 l 206 361 q 205 185 192 250 q 268 92 218 119 q 410 64 318 64 q 563 93 503 64 q 656 189 622 122 q 707 365 690 256 l 789 958 l 881 958 m 847 817 l 849 863 q 955 908 914 865 q 1010 1011 996 950 l 1075 996 q 1030 900 1064 940 q 949 838 996 860 q 847 817 901 815 m 392 1260 l 608 1056 l 574 1015 l 342 1197 l 392 1260 z "},"Ử":{"ha":958,"x_min":96,"x_max":1075,"o":"m 881 958 l 797 361 q 733 140 778 224 q 610 19 688 57 q 413 -18 532 -18 q 218 21 290 -18 q 121 144 146 60 q 115 365 96 228 l 197 958 l 290 958 l 206 361 q 205 185 192 250 q 268 92 218 119 q 410 64 318 64 q 563 93 503 64 q 656 189 622 122 q 707 365 690 256 l 789 958 l 881 958 m 847 817 l 849 863 q 955 908 914 865 q 1010 1011 996 950 l 1075 996 q 1030 900 1064 940 q 949 838 996 860 q 847 817 901 815 m 511 1081 q 597 1126 571 1093 q 622 1201 622 1160 q 597 1247 622 1236 q 519 1243 571 1257 l 518 1293 q 640 1294 593 1315 q 688 1213 688 1274 q 642 1097 688 1147 q 515 1036 596 1047 l 511 1081 z "},"Ữ":{"ha":958,"x_min":96,"x_max":1075,"o":"m 881 958 l 797 361 q 733 140 778 224 q 610 19 688 57 q 413 -18 532 -18 q 218 21 290 -18 q 121 144 146 60 q 115 365 96 228 l 197 958 l 290 958 l 206 361 q 205 185 192 250 q 268 92 218 119 q 410 64 318 64 q 563 93 503 64 q 656 189 622 122 q 707 365 690 256 l 789 958 l 881 958 m 847 817 l 849 863 q 955 908 914 865 q 1010 1011 996 950 l 1075 996 q 1030 900 1064 940 q 949 838 996 860 q 847 817 901 815 m 457 1215 q 513 1201 489 1213 q 557 1174 538 1189 q 598 1147 576 1160 q 647 1132 619 1135 q 710 1148 690 1128 q 736 1210 731 1168 l 781 1207 q 743 1098 776 1135 q 658 1065 710 1061 q 597 1081 624 1068 q 551 1108 571 1093 q 511 1135 531 1122 q 468 1150 492 1147 q 406 1133 426 1154 q 378 1067 385 1111 l 335 1071 q 374 1183 339 1147 q 457 1215 410 1219 z "},"Ű":{"ha":924,"x_min":96,"x_max":881,"o":"m 881 958 l 797 361 q 733 140 778 224 q 610 19 688 57 q 413 -18 532 -18 q 218 21 290 -18 q 121 144 146 60 q 115 365 96 228 l 197 958 l 290 958 l 206 361 q 205 185 192 250 q 268 92 218 119 q 410 64 318 64 q 563 93 503 64 q 656 189 622 122 q 707 365 690 256 l 789 958 l 881 958 m 568 1268 l 625 1226 l 417 1010 l 378 1040 l 568 1268 m 785 1268 l 842 1226 l 633 1010 l 594 1040 l 785 1268 z "},"Ȗ":{"ha":924,"x_min":96,"x_max":881,"o":"m 881 958 l 797 361 q 733 140 778 224 q 610 19 688 57 q 413 -18 532 -18 q 218 21 290 -18 q 121 144 146 60 q 115 365 96 228 l 197 958 l 290 958 l 206 361 q 205 185 192 250 q 268 92 218 119 q 410 64 318 64 q 563 93 503 64 q 656 189 622 122 q 707 365 690 256 l 789 958 l 881 958 m 390 1040 l 342 1051 q 377 1143 349 1104 q 453 1203 406 1182 q 561 1224 500 1224 q 672 1202 628 1224 q 735 1141 717 1181 q 744 1049 754 1101 l 696 1044 q 667 1127 704 1099 q 563 1156 631 1156 q 442 1125 489 1156 q 390 1040 396 1094 z "},"Ū":{"ha":924,"x_min":96,"x_max":881,"o":"m 881 958 l 797 361 q 733 140 778 224 q 610 19 688 57 q 413 -18 532 -18 q 218 21 290 -18 q 121 144 146 60 q 115 365 96 228 l 197 958 l 290 958 l 206 361 q 205 185 192 250 q 268 92 218 119 q 410 64 318 64 q 563 93 503 64 q 656 189 622 122 q 707 365 690 256 l 789 958 l 881 958 m 750 1168 l 742 1101 l 363 1101 l 371 1168 l 750 1168 z "},"Ṻ":{"ha":924,"x_min":96,"x_max":881,"o":"m 881 958 l 797 361 q 733 140 778 224 q 610 19 688 57 q 413 -18 532 -18 q 218 21 290 -18 q 121 144 146 60 q 115 365 96 228 l 197 958 l 290 958 l 206 361 q 205 185 192 250 q 268 92 218 119 q 410 64 318 64 q 563 93 503 64 q 656 189 622 122 q 707 365 690 256 l 789 958 l 881 958 m 483 1318 q 503 1312 499 1318 q 506 1294 507 1306 l 494 1225 q 487 1206 493 1211 q 468 1200 481 1200 l 442 1200 q 419 1224 417 1200 l 429 1294 q 439 1312 432 1306 q 458 1318 446 1318 l 483 1318 m 700 1318 q 722 1294 725 1318 l 711 1225 q 703 1206 710 1211 q 685 1200 697 1200 l 658 1200 q 636 1224 632 1200 l 646 1294 q 675 1318 650 1318 l 700 1318 m 725 1113 l 717 1050 l 372 1050 l 381 1113 l 725 1113 z "},"Ų":{"ha":924,"x_min":96,"x_max":881,"o":"m 881 958 l 797 361 q 733 140 778 224 q 610 19 688 57 q 413 -18 532 -18 q 218 21 290 -18 q 121 144 146 60 q 115 365 96 228 l 197 958 l 290 958 l 206 361 q 205 185 192 250 q 268 92 218 119 q 410 64 318 64 q 563 93 503 64 q 656 189 622 122 q 707 365 690 256 l 789 958 l 881 958 m 414 -8 l 458 -12 q 388 -90 421 -49 q 328 -181 356 -131 q 328 -251 300 -235 q 431 -243 357 -267 l 442 -282 q 333 -309 376 -308 q 268 -291 290 -310 q 245 -242 246 -272 q 261 -175 244 -211 q 315 -99 279 -140 q 414 -8 350 -57 z "},"Ů":{"ha":924,"x_min":96,"x_max":881,"o":"m 881 958 l 797 361 q 733 140 778 224 q 610 19 688 57 q 413 -18 532 -18 q 218 21 290 -18 q 121 144 146 60 q 115 365 96 228 l 197 958 l 290 958 l 206 361 q 205 185 192 250 q 268 92 218 119 q 410 64 318 64 q 563 93 503 64 q 656 189 622 122 q 707 365 690 256 l 789 958 l 881 958 m 568 1278 q 665 1242 628 1278 q 701 1150 701 1207 q 658 1040 701 1085 q 547 996 614 996 q 449 1031 486 996 q 413 1124 413 1067 q 457 1233 413 1189 q 568 1278 501 1278 m 567 1229 q 494 1199 521 1229 q 467 1128 467 1169 q 488 1069 467 1093 q 549 1044 508 1044 q 622 1075 594 1044 q 649 1147 649 1106 q 627 1206 649 1182 q 567 1229 606 1229 z "},"Ũ":{"ha":924,"x_min":96,"x_max":881,"o":"m 881 958 l 797 361 q 733 140 778 224 q 610 19 688 57 q 413 -18 532 -18 q 218 21 290 -18 q 121 144 146 60 q 115 365 96 228 l 197 958 l 290 958 l 206 361 q 205 185 192 250 q 268 92 218 119 q 410 64 318 64 q 563 93 503 64 q 656 189 622 122 q 707 365 690 256 l 789 958 l 881 958 m 457 1215 q 513 1201 490 1213 q 556 1174 536 1189 q 597 1147 576 1160 q 647 1132 618 1135 q 710 1148 690 1128 q 736 1210 731 1168 l 779 1207 q 742 1098 776 1135 q 658 1065 708 1061 q 597 1081 622 1068 q 551 1108 572 1093 q 511 1135 531 1122 q 467 1150 492 1147 q 405 1133 425 1154 q 379 1067 385 1111 l 335 1071 q 374 1183 339 1147 q 457 1215 410 1219 z "},"Ṹ":{"ha":924,"x_min":96,"x_max":881,"o":"m 881 958 l 797 361 q 733 140 778 224 q 610 19 688 57 q 413 -18 532 -18 q 218 21 290 -18 q 121 144 146 60 q 115 365 96 228 l 197 958 l 290 958 l 206 361 q 205 185 192 250 q 268 92 218 119 q 410 64 318 64 q 563 93 503 64 q 656 189 622 122 q 707 365 690 256 l 789 958 l 881 958 m 453 1188 q 508 1173 485 1185 q 551 1146 532 1161 q 592 1119 571 1131 q 643 1104 614 1107 q 706 1120 686 1100 q 732 1182 726 1140 l 775 1179 q 738 1071 772 1107 q 654 1038 704 1035 q 592 1053 618 1040 q 546 1081 567 1065 q 506 1108 525 1096 q 463 1122 486 1119 q 400 1105 421 1126 q 374 1039 379 1083 l 329 1043 q 369 1156 335 1119 q 453 1188 404 1192 m 664 1413 l 711 1354 l 524 1217 l 492 1253 l 664 1413 z "},"V":{"ha":832,"x_min":100,"x_max":882,"o":"m 882 958 l 446 25 q 408 0 436 0 l 310 0 q 288 8 296 0 q 276 29 279 17 l 100 958 l 193 958 l 331 174 q 340 122 336 147 q 347 69 344 96 l 383 69 q 405 124 393 96 q 429 178 417 151 l 786 958 l 882 958 z "},"W":{"ha":1301,"x_min":117,"x_max":1336,"o":"m 1336 958 l 989 26 q 974 7 983 14 q 949 0 964 0 l 840 0 q 817 9 826 0 q 806 32 807 18 l 740 783 q 736 836 739 811 q 731 888 733 861 l 700 888 q 681 833 690 861 q 661 778 671 806 l 388 28 q 373 7 383 14 q 349 0 363 0 l 240 0 q 216 9 226 0 q 204 31 206 18 l 117 958 l 210 958 l 276 179 q 280 125 279 153 q 282 68 281 97 l 318 68 q 338 126 329 97 q 357 183 347 156 l 631 928 q 669 958 639 958 l 774 958 q 797 949 788 958 q 807 925 806 939 l 876 179 q 881 124 879 151 q 885 68 883 96 l 921 68 q 939 125 929 96 q 958 181 949 154 l 1240 958 l 1336 958 z "},"Ẃ":{"ha":1301,"x_min":117,"x_max":1336,"o":"m 1336 958 l 989 26 q 974 7 983 14 q 949 0 964 0 l 840 0 q 817 9 826 0 q 806 32 807 18 l 740 783 q 736 836 739 811 q 731 888 733 861 l 700 888 q 681 833 690 861 q 661 778 671 806 l 388 28 q 373 7 383 14 q 349 0 363 0 l 240 0 q 216 9 226 0 q 204 31 206 18 l 117 958 l 210 958 l 276 179 q 280 125 279 153 q 282 68 281 97 l 318 68 q 338 126 329 97 q 357 183 347 156 l 631 928 q 669 958 639 958 l 774 958 q 797 949 788 958 q 807 925 806 939 l 876 179 q 881 124 879 151 q 885 68 883 96 l 921 68 q 939 125 929 96 q 958 181 949 154 l 1240 958 l 1336 958 m 911 1261 l 956 1193 l 686 1015 l 656 1057 l 911 1261 z "},"Ŵ":{"ha":1301,"x_min":117,"x_max":1336,"o":"m 1336 958 l 989 26 q 974 7 983 14 q 949 0 964 0 l 840 0 q 817 9 826 0 q 806 32 807 18 l 740 783 q 736 836 739 811 q 731 888 733 861 l 700 888 q 681 833 690 861 q 661 778 671 806 l 388 28 q 373 7 383 14 q 349 0 363 0 l 240 0 q 216 9 226 0 q 204 31 206 18 l 117 958 l 210 958 l 276 179 q 280 125 279 153 q 282 68 281 97 l 318 68 q 338 126 329 97 q 357 183 347 156 l 631 928 q 669 958 639 958 l 774 958 q 797 949 788 958 q 807 925 806 939 l 876 179 q 881 124 879 151 q 885 68 883 96 l 921 68 q 939 125 929 96 q 958 181 949 154 l 1240 958 l 1336 958 m 794 1238 l 965 1060 l 931 1025 l 767 1165 l 756 1165 l 550 1025 l 522 1065 l 731 1238 l 794 1238 z "},"Ẅ":{"ha":1301,"x_min":117,"x_max":1336,"o":"m 1336 958 l 989 26 q 974 7 983 14 q 949 0 964 0 l 840 0 q 817 9 826 0 q 806 32 807 18 l 740 783 q 736 836 739 811 q 731 888 733 861 l 700 888 q 681 833 690 861 q 661 778 671 806 l 388 28 q 373 7 383 14 q 349 0 363 0 l 240 0 q 216 9 226 0 q 204 31 206 18 l 117 958 l 210 958 l 276 179 q 280 125 279 153 q 282 68 281 97 l 318 68 q 338 126 329 97 q 357 183 347 156 l 631 928 q 669 958 639 958 l 774 958 q 797 949 788 958 q 807 925 806 939 l 876 179 q 881 124 879 151 q 885 68 883 96 l 921 68 q 939 125 929 96 q 958 181 949 154 l 1240 958 l 1336 958 m 656 1200 q 676 1193 671 1200 q 679 1174 682 1186 l 668 1097 q 660 1076 667 1083 q 638 1069 653 1069 l 608 1069 q 585 1096 582 1069 l 596 1174 q 606 1193 599 1186 q 628 1200 613 1200 l 656 1200 m 893 1200 q 915 1193 910 1200 q 918 1174 919 1186 l 907 1097 q 899 1076 906 1083 q 876 1069 892 1069 l 847 1069 q 824 1096 821 1069 l 835 1174 q 844 1193 838 1186 q 865 1200 851 1200 l 893 1200 z "},"Ẁ":{"ha":1301,"x_min":117,"x_max":1336,"o":"m 1336 958 l 989 26 q 974 7 983 14 q 949 0 964 0 l 840 0 q 817 9 826 0 q 806 32 807 18 l 740 783 q 736 836 739 811 q 731 888 733 861 l 700 888 q 681 833 690 861 q 661 778 671 806 l 388 28 q 373 7 383 14 q 349 0 363 0 l 240 0 q 216 9 226 0 q 204 31 206 18 l 117 958 l 210 958 l 276 179 q 280 125 279 153 q 282 68 281 97 l 318 68 q 338 126 329 97 q 357 183 347 156 l 631 928 q 669 958 639 958 l 774 958 q 797 949 788 958 q 807 925 806 939 l 876 179 q 881 124 879 151 q 885 68 883 96 l 921 68 q 939 125 929 96 q 958 181 949 154 l 1240 958 l 1336 958 m 586 1260 l 803 1056 l 768 1015 l 536 1197 l 586 1260 z "},"X":{"ha":836,"x_min":-18,"x_max":858,"o":"m 231 958 l 429 489 l 88 0 l -18 0 l 335 497 l 136 958 l 231 958 m 500 535 l 489 463 l 368 463 l 379 535 l 500 535 m 858 958 l 528 497 l 742 0 l 647 0 l 435 508 l 757 958 l 858 958 z "},"Y":{"ha":769,"x_min":93,"x_max":826,"o":"m 826 958 l 413 333 l 332 333 l 93 958 l 186 958 l 346 531 q 363 481 354 507 q 378 428 372 454 l 388 428 q 417 482 400 453 q 447 535 433 511 l 726 958 l 826 958 m 426 404 l 371 0 l 278 0 l 336 404 l 426 404 z "},"Ý":{"ha":769,"x_min":93,"x_max":826,"o":"m 826 958 l 413 333 l 332 333 l 93 958 l 186 958 l 346 531 q 363 481 354 507 q 378 428 372 454 l 388 428 q 417 482 400 453 q 447 535 433 511 l 726 958 l 826 958 m 426 404 l 371 0 l 278 0 l 336 404 l 426 404 m 633 1261 l 678 1193 l 408 1015 l 378 1057 l 633 1261 z "},"Ŷ":{"ha":769,"x_min":93,"x_max":826,"o":"m 826 958 l 413 333 l 332 333 l 93 958 l 186 958 l 346 531 q 363 481 354 507 q 378 428 372 454 l 388 428 q 417 482 400 453 q 447 535 433 511 l 726 958 l 826 958 m 426 404 l 371 0 l 278 0 l 336 404 l 426 404 m 517 1238 l 688 1060 l 653 1025 l 489 1165 l 478 1165 l 272 1025 l 244 1065 l 453 1238 l 517 1238 z "},"Ÿ":{"ha":769,"x_min":93,"x_max":826,"o":"m 826 958 l 413 333 l 332 333 l 93 958 l 186 958 l 346 531 q 363 481 354 507 q 378 428 372 454 l 388 428 q 417 482 400 453 q 447 535 433 511 l 726 958 l 826 958 m 426 404 l 371 0 l 278 0 l 336 404 l 426 404 m 378 1201 q 399 1194 393 1201 q 401 1175 404 1188 l 390 1099 q 382 1078 389 1085 q 360 1071 375 1071 l 331 1071 q 307 1097 304 1071 l 318 1175 q 328 1194 321 1188 q 350 1201 335 1201 l 378 1201 m 615 1201 q 637 1194 632 1201 q 640 1175 642 1188 l 629 1099 q 621 1078 628 1085 q 599 1071 614 1071 l 569 1071 q 546 1097 543 1071 l 557 1175 q 567 1194 560 1188 q 588 1201 574 1201 l 615 1201 z "},"Ẏ":{"ha":769,"x_min":93,"x_max":826,"o":"m 826 958 l 413 333 l 332 333 l 93 958 l 186 958 l 346 531 q 363 481 354 507 q 378 428 372 454 l 388 428 q 417 482 400 453 q 447 535 433 511 l 726 958 l 826 958 m 426 404 l 371 0 l 278 0 l 336 404 l 426 404 m 493 1201 q 516 1194 508 1201 q 521 1171 524 1186 l 510 1090 q 479 1063 507 1063 l 450 1063 q 428 1071 436 1063 q 424 1093 421 1079 l 433 1174 q 442 1195 436 1189 q 464 1201 449 1201 l 493 1201 z "},"Ỵ":{"ha":769,"x_min":93,"x_max":826,"o":"m 826 958 l 413 333 l 332 333 l 93 958 l 186 958 l 346 531 q 363 481 354 507 q 378 428 372 454 l 388 428 q 417 482 400 453 q 447 535 433 511 l 726 958 l 826 958 m 426 404 l 371 0 l 278 0 l 336 404 l 426 404 m 329 -78 q 351 -85 344 -78 q 357 -108 358 -93 l 346 -189 q 314 -217 342 -217 l 285 -217 q 264 -208 271 -217 q 258 -186 257 -200 l 269 -106 q 277 -84 271 -90 q 299 -78 283 -78 l 329 -78 z "},"Ỳ":{"ha":769,"x_min":93,"x_max":826,"o":"m 826 958 l 413 333 l 332 333 l 93 958 l 186 958 l 346 531 q 363 481 354 507 q 378 428 372 454 l 388 428 q 417 482 400 453 q 447 535 433 511 l 726 958 l 826 958 m 426 404 l 371 0 l 278 0 l 336 404 l 426 404 m 307 1260 l 524 1056 l 489 1015 l 257 1197 l 307 1260 z "},"Ỷ":{"ha":769,"x_min":93,"x_max":826,"o":"m 826 958 l 413 333 l 332 333 l 93 958 l 186 958 l 346 531 q 363 481 354 507 q 378 428 372 454 l 388 428 q 417 482 400 453 q 447 535 433 511 l 726 958 l 826 958 m 426 404 l 371 0 l 278 0 l 336 404 l 426 404 m 426 1081 q 512 1126 486 1093 q 538 1201 538 1160 q 512 1247 538 1236 q 435 1243 486 1257 l 433 1293 q 556 1294 508 1315 q 603 1213 603 1274 q 557 1097 603 1147 q 431 1036 511 1047 l 426 1081 z "},"Ȳ":{"ha":769,"x_min":93,"x_max":826,"o":"m 826 958 l 413 333 l 332 333 l 93 958 l 186 958 l 346 531 q 363 481 354 507 q 378 428 372 454 l 388 428 q 417 482 400 453 q 447 535 433 511 l 726 958 l 826 958 m 426 404 l 371 0 l 278 0 l 336 404 l 426 404 m 665 1168 l 657 1101 l 278 1101 l 286 1168 l 665 1168 z "},"Ỹ":{"ha":769,"x_min":93,"x_max":826,"o":"m 826 958 l 413 333 l 332 333 l 93 958 l 186 958 l 346 531 q 363 481 354 507 q 378 428 372 454 l 388 428 q 417 482 400 453 q 447 535 433 511 l 726 958 l 826 958 m 426 404 l 371 0 l 278 0 l 336 404 l 426 404 m 374 1215 q 430 1201 407 1213 q 473 1174 453 1189 q 514 1147 493 1160 q 564 1132 535 1135 q 627 1148 607 1128 q 653 1210 647 1168 l 696 1207 q 659 1098 693 1135 q 575 1065 625 1061 q 514 1081 539 1068 q 468 1108 489 1093 q 428 1135 447 1122 q 383 1150 408 1147 q 322 1133 342 1154 q 296 1067 301 1111 l 251 1071 q 291 1183 256 1147 q 374 1215 326 1219 z "},"Z":{"ha":776,"x_min":10,"x_max":782,"o":"m 668 881 l 771 879 l 121 78 l 21 79 l 668 881 m 667 79 l 654 0 l 10 0 l 21 79 l 667 79 m 782 958 l 771 879 l 139 879 l 150 958 l 782 958 z "},"Ź":{"ha":776,"x_min":10,"x_max":782,"o":"m 668 881 l 771 879 l 121 78 l 21 79 l 668 881 m 667 79 l 654 0 l 10 0 l 21 79 l 667 79 m 782 958 l 771 879 l 139 879 l 150 958 l 782 958 m 643 1261 l 688 1193 l 418 1015 l 388 1057 l 643 1261 z "},"Ž":{"ha":776,"x_min":10,"x_max":782,"o":"m 668 881 l 771 879 l 121 78 l 21 79 l 668 881 m 667 79 l 654 0 l 10 0 l 21 79 l 667 79 m 782 958 l 771 879 l 139 879 l 150 958 l 782 958 m 683 1247 l 713 1208 l 503 1036 l 438 1036 l 274 1214 l 311 1247 l 469 1108 l 481 1108 l 683 1247 z "},"Ż":{"ha":776,"x_min":10,"x_max":782,"o":"m 668 881 l 771 879 l 121 78 l 21 79 l 668 881 m 667 79 l 654 0 l 10 0 l 21 79 l 667 79 m 782 958 l 771 879 l 139 879 l 150 958 l 782 958 m 504 1201 q 525 1194 518 1201 q 531 1171 532 1186 l 519 1090 q 488 1063 515 1063 l 460 1063 q 438 1071 444 1063 q 432 1093 431 1079 l 443 1174 q 451 1195 444 1189 q 474 1201 458 1201 l 504 1201 z "},"Ẓ":{"ha":776,"x_min":10,"x_max":782,"o":"m 668 881 l 771 879 l 121 78 l 21 79 l 668 881 m 667 79 l 654 0 l 10 0 l 21 79 l 667 79 m 782 958 l 771 879 l 139 879 l 150 958 l 782 958 m 360 -78 q 382 -85 375 -78 q 388 -108 389 -93 l 376 -189 q 344 -217 372 -217 l 315 -217 q 294 -208 301 -217 q 289 -186 288 -200 l 300 -106 q 308 -84 301 -90 q 329 -78 314 -78 l 360 -78 z "},"a":{"ha":792,"x_min":61,"x_max":714,"o":"m 421 690 q 492 688 454 690 q 567 682 529 686 q 642 674 604 678 q 714 663 679 669 l 675 607 q 542 613 599 610 q 446 615 485 615 q 323 605 371 615 q 246 565 275 594 q 199 480 217 536 q 168 335 182 424 q 156 169 153 229 q 184 85 158 110 q 264 61 210 61 q 365 83 313 61 q 475 149 418 106 q 589 253 532 192 l 604 203 q 503 90 561 139 q 380 12 444 40 q 249 -17 315 -17 q 124 19 167 -17 q 71 133 81 54 q 81 343 61 213 q 123 522 97 453 q 188 627 149 590 q 285 677 228 664 q 421 690 342 690 m 625 663 l 714 663 l 621 0 l 551 0 l 565 163 l 556 172 l 625 663 z "},"á":{"ha":792,"x_min":61,"x_max":714,"o":"m 421 690 q 492 688 454 690 q 567 682 529 686 q 642 674 604 678 q 714 663 679 669 l 675 607 q 542 613 599 610 q 446 615 485 615 q 323 605 371 615 q 246 565 275 594 q 199 480 217 536 q 168 335 182 424 q 156 169 153 229 q 184 85 158 110 q 264 61 210 61 q 365 83 313 61 q 475 149 418 106 q 589 253 532 192 l 604 203 q 503 90 561 139 q 380 12 444 40 q 249 -17 315 -17 q 124 19 167 -17 q 71 133 81 54 q 81 343 61 213 q 123 522 97 453 q 188 627 149 590 q 285 677 228 664 q 421 690 342 690 m 625 663 l 714 663 l 621 0 l 551 0 l 565 163 l 556 172 l 625 663 m 626 1011 l 671 943 l 401 765 l 371 807 l 626 1011 z "},"ă":{"ha":792,"x_min":61,"x_max":714,"o":"m 421 690 q 492 688 454 690 q 567 682 529 686 q 642 674 604 678 q 714 663 679 669 l 675 607 q 542 613 599 610 q 446 615 485 615 q 323 605 371 615 q 246 565 275 594 q 199 480 217 536 q 168 335 182 424 q 156 169 153 229 q 184 85 158 110 q 264 61 210 61 q 365 83 313 61 q 475 149 418 106 q 589 253 532 192 l 604 203 q 503 90 561 139 q 380 12 444 40 q 249 -17 315 -17 q 124 19 167 -17 q 71 133 81 54 q 81 343 61 213 q 123 522 97 453 q 188 627 149 590 q 285 677 228 664 q 421 690 342 690 m 625 663 l 714 663 l 621 0 l 551 0 l 565 163 l 556 172 l 625 663 m 631 974 l 678 963 q 644 872 672 910 q 568 812 615 833 q 458 790 521 790 q 349 813 393 790 q 285 875 304 835 q 275 967 265 915 l 324 971 q 352 888 315 917 q 458 858 389 858 q 578 890 532 858 q 631 974 624 921 z "},"ắ":{"ha":792,"x_min":61,"x_max":714,"o":"m 421 690 q 492 688 454 690 q 567 682 529 686 q 642 674 604 678 q 714 663 679 669 l 675 607 q 542 613 599 610 q 446 615 485 615 q 323 605 371 615 q 246 565 275 594 q 199 480 217 536 q 168 335 182 424 q 156 169 153 229 q 184 85 158 110 q 264 61 210 61 q 365 83 313 61 q 475 149 418 106 q 589 253 532 192 l 604 203 q 503 90 561 139 q 380 12 444 40 q 249 -17 315 -17 q 124 19 167 -17 q 71 133 81 54 q 81 343 61 213 q 123 522 97 453 q 188 627 149 590 q 285 677 228 664 q 421 690 342 690 m 625 663 l 714 663 l 621 0 l 551 0 l 565 163 l 556 172 l 625 663 m 631 974 l 678 963 q 644 872 672 910 q 568 812 615 833 q 458 790 521 790 q 349 813 393 790 q 285 875 304 835 q 275 967 265 915 l 324 971 q 352 888 315 917 q 458 858 389 858 q 578 890 532 858 q 631 974 624 921 m 596 1149 l 639 1086 l 442 960 l 414 999 l 596 1149 z "},"ặ":{"ha":792,"x_min":61,"x_max":714,"o":"m 421 690 q 492 688 454 690 q 567 682 529 686 q 642 674 604 678 q 714 663 679 669 l 675 607 q 542 613 599 610 q 446 615 485 615 q 323 605 371 615 q 246 565 275 594 q 199 480 217 536 q 168 335 182 424 q 156 169 153 229 q 184 85 158 110 q 264 61 210 61 q 365 83 313 61 q 475 149 418 106 q 589 253 532 192 l 604 203 q 503 90 561 139 q 380 12 444 40 q 249 -17 315 -17 q 124 19 167 -17 q 71 133 81 54 q 81 343 61 213 q 123 522 97 453 q 188 627 149 590 q 285 677 228 664 q 421 690 342 690 m 625 663 l 714 663 l 621 0 l 551 0 l 565 163 l 556 172 l 625 663 m 342 -96 q 364 -103 357 -96 q 369 -126 371 -111 l 358 -207 q 326 -235 354 -235 l 297 -235 q 276 -226 283 -235 q 271 -204 269 -218 l 282 -124 q 290 -102 283 -108 q 311 -96 296 -96 l 342 -96 m 631 974 l 678 963 q 644 872 672 910 q 567 812 615 833 q 457 790 519 790 q 349 813 393 790 q 285 875 304 835 q 275 967 265 915 l 324 971 q 352 888 315 917 q 457 858 389 858 q 577 890 531 858 q 631 974 624 921 z "},"ằ":{"ha":792,"x_min":61,"x_max":714,"o":"m 421 690 q 492 688 454 690 q 567 682 529 686 q 642 674 604 678 q 714 663 679 669 l 675 607 q 542 613 599 610 q 446 615 485 615 q 323 605 371 615 q 246 565 275 594 q 199 480 217 536 q 168 335 182 424 q 156 169 153 229 q 184 85 158 110 q 264 61 210 61 q 365 83 313 61 q 475 149 418 106 q 589 253 532 192 l 604 203 q 503 90 561 139 q 380 12 444 40 q 249 -17 315 -17 q 124 19 167 -17 q 71 133 81 54 q 81 343 61 213 q 123 522 97 453 q 188 627 149 590 q 285 677 228 664 q 421 690 342 690 m 625 663 l 714 663 l 621 0 l 551 0 l 565 163 l 556 172 l 625 663 m 631 974 l 678 963 q 644 872 672 910 q 568 812 615 833 q 458 790 521 790 q 349 813 393 790 q 285 875 304 835 q 275 967 265 915 l 324 971 q 352 888 315 917 q 458 858 389 858 q 578 890 532 858 q 631 974 624 921 m 372 1138 l 519 993 l 489 957 l 326 1081 l 372 1138 z "},"ẳ":{"ha":792,"x_min":61,"x_max":714,"o":"m 421 690 q 492 688 454 690 q 567 682 529 686 q 642 674 604 678 q 714 663 679 669 l 675 607 q 542 613 599 610 q 446 615 485 615 q 323 605 371 615 q 246 565 275 594 q 199 480 217 536 q 168 335 182 424 q 156 169 153 229 q 184 85 158 110 q 264 61 210 61 q 365 83 313 61 q 475 149 418 106 q 589 253 532 192 l 604 203 q 503 90 561 139 q 380 12 444 40 q 249 -17 315 -17 q 124 19 167 -17 q 71 133 81 54 q 81 343 61 213 q 123 522 97 453 q 188 627 149 590 q 285 677 228 664 q 421 690 342 690 m 625 663 l 714 663 l 621 0 l 551 0 l 565 163 l 556 172 l 625 663 m 631 974 l 678 963 q 644 872 672 910 q 568 812 615 833 q 458 790 521 790 q 349 813 393 790 q 285 875 304 835 q 275 967 265 915 l 324 971 q 352 888 315 917 q 458 858 389 858 q 578 890 532 858 q 631 974 624 921 m 433 986 q 512 1020 489 997 q 535 1079 535 1043 q 509 1115 535 1110 q 442 1106 483 1119 l 440 1151 q 549 1161 504 1176 q 594 1092 594 1146 q 553 994 594 1033 q 438 946 513 956 l 433 986 z "},"ẵ":{"ha":792,"x_min":61,"x_max":714,"o":"m 421 690 q 492 688 454 690 q 567 682 529 686 q 642 674 604 678 q 714 663 679 669 l 675 607 q 542 613 599 610 q 446 615 485 615 q 323 605 371 615 q 246 565 275 594 q 199 480 217 536 q 168 335 182 424 q 156 169 153 229 q 184 85 158 110 q 264 61 210 61 q 365 83 313 61 q 475 149 418 106 q 589 253 532 192 l 604 203 q 503 90 561 139 q 380 12 444 40 q 249 -17 315 -17 q 124 19 167 -17 q 71 133 81 54 q 81 343 61 213 q 123 522 97 453 q 188 627 149 590 q 285 677 228 664 q 421 690 342 690 m 625 663 l 714 663 l 621 0 l 551 0 l 565 163 l 556 172 l 625 663 m 631 974 l 678 963 q 644 872 672 910 q 568 812 615 833 q 458 790 521 790 q 349 813 393 790 q 285 875 304 835 q 275 967 265 915 l 324 971 q 352 888 315 917 q 458 858 389 858 q 578 890 532 858 q 631 974 624 921 m 397 1158 q 449 1144 428 1156 q 487 1118 469 1132 q 524 1092 504 1104 q 569 1078 543 1081 q 630 1094 611 1075 q 651 1153 649 1113 l 693 1149 q 659 1047 690 1081 q 581 1017 628 1013 q 523 1031 546 1019 q 482 1056 500 1042 q 447 1083 464 1071 q 407 1096 429 1094 q 348 1080 367 1100 q 325 1017 329 1060 l 282 1021 q 318 1128 286 1093 q 397 1158 350 1163 z "},"â":{"ha":792,"x_min":61,"x_max":714,"o":"m 421 690 q 492 688 454 690 q 567 682 529 686 q 642 674 604 678 q 714 663 679 669 l 675 607 q 542 613 599 610 q 446 615 485 615 q 323 605 371 615 q 246 565 275 594 q 199 480 217 536 q 168 335 182 424 q 156 169 153 229 q 184 85 158 110 q 264 61 210 61 q 365 83 313 61 q 475 149 418 106 q 589 253 532 192 l 604 203 q 503 90 561 139 q 380 12 444 40 q 249 -17 315 -17 q 124 19 167 -17 q 71 133 81 54 q 81 343 61 213 q 123 522 97 453 q 188 627 149 590 q 285 677 228 664 q 421 690 342 690 m 625 663 l 714 663 l 621 0 l 551 0 l 565 163 l 556 172 l 625 663 m 510 986 l 681 808 l 646 774 l 482 914 l 471 914 l 265 774 l 238 814 l 446 986 l 510 986 z "},"ấ":{"ha":792,"x_min":61,"x_max":829,"o":"m 421 690 q 492 688 454 690 q 567 682 529 686 q 642 674 604 678 q 714 663 679 669 l 675 607 q 542 613 599 610 q 446 615 485 615 q 323 605 371 615 q 246 565 275 594 q 199 480 217 536 q 168 335 182 424 q 156 169 153 229 q 184 85 158 110 q 264 61 210 61 q 365 83 313 61 q 475 149 418 106 q 589 253 532 192 l 604 203 q 503 90 561 139 q 380 12 444 40 q 249 -17 315 -17 q 124 19 167 -17 q 71 133 81 54 q 81 343 61 213 q 123 522 97 453 q 188 627 149 590 q 285 677 228 664 q 421 690 342 690 m 625 663 l 714 663 l 621 0 l 551 0 l 565 163 l 556 172 l 625 663 m 514 969 l 665 811 l 631 775 l 486 897 l 475 897 l 292 775 l 264 814 l 450 969 l 514 969 m 782 1106 l 829 1047 l 640 910 l 608 944 l 782 1106 z "},"ậ":{"ha":792,"x_min":61,"x_max":714,"o":"m 421 690 q 492 688 454 690 q 567 682 529 686 q 642 674 604 678 q 714 663 679 669 l 675 607 q 542 613 599 610 q 446 615 485 615 q 323 605 371 615 q 246 565 275 594 q 199 480 217 536 q 168 335 182 424 q 156 169 153 229 q 184 85 158 110 q 264 61 210 61 q 365 83 313 61 q 475 149 418 106 q 589 253 532 192 l 604 203 q 503 90 561 139 q 380 12 444 40 q 249 -17 315 -17 q 124 19 167 -17 q 71 133 81 54 q 81 343 61 213 q 123 522 97 453 q 188 627 149 590 q 285 677 228 664 q 421 690 342 690 m 625 663 l 714 663 l 621 0 l 551 0 l 565 163 l 556 172 l 625 663 m 342 -96 q 364 -103 357 -96 q 369 -126 371 -111 l 358 -207 q 326 -235 354 -235 l 297 -235 q 276 -226 283 -235 q 271 -204 269 -218 l 282 -124 q 290 -102 283 -108 q 311 -96 296 -96 l 342 -96 m 510 986 l 681 808 l 646 774 l 482 914 l 469 914 l 265 774 l 239 814 l 446 986 l 510 986 z "},"ầ":{"ha":792,"x_min":61,"x_max":714,"o":"m 421 690 q 492 688 454 690 q 567 682 529 686 q 642 674 604 678 q 714 663 679 669 l 675 607 q 542 613 599 610 q 446 615 485 615 q 323 605 371 615 q 246 565 275 594 q 199 480 217 536 q 168 335 182 424 q 156 169 153 229 q 184 85 158 110 q 264 61 210 61 q 365 83 313 61 q 475 149 418 106 q 589 253 532 192 l 604 203 q 503 90 561 139 q 380 12 444 40 q 249 -17 315 -17 q 124 19 167 -17 q 71 133 81 54 q 81 343 61 213 q 123 522 97 453 q 188 627 149 590 q 285 677 228 664 q 421 690 342 690 m 625 663 l 714 663 l 621 0 l 551 0 l 565 163 l 556 172 l 625 663 m 497 969 l 649 811 l 614 775 l 469 897 l 458 897 l 275 775 l 247 814 l 433 969 l 497 969 m 189 1103 l 328 949 l 293 914 l 138 1049 l 189 1103 z "},"ẩ":{"ha":792,"x_min":61,"x_max":768,"o":"m 421 690 q 492 688 454 690 q 567 682 529 686 q 642 674 604 678 q 714 663 679 669 l 675 607 q 542 613 599 610 q 446 615 485 615 q 323 605 371 615 q 246 565 275 594 q 199 480 217 536 q 168 335 182 424 q 156 169 153 229 q 184 85 158 110 q 264 61 210 61 q 365 83 313 61 q 475 149 418 106 q 589 253 532 192 l 604 203 q 503 90 561 139 q 380 12 444 40 q 249 -17 315 -17 q 124 19 167 -17 q 71 133 81 54 q 81 343 61 213 q 123 522 97 453 q 188 627 149 590 q 285 677 228 664 q 421 690 342 690 m 625 663 l 714 663 l 621 0 l 551 0 l 565 163 l 556 172 l 625 663 m 503 969 l 654 811 l 619 775 l 475 897 l 464 897 l 281 775 l 253 814 l 439 969 l 503 969 m 607 943 q 685 977 661 954 q 708 1035 708 1000 q 683 1072 708 1068 q 614 1063 657 1076 l 613 1108 q 722 1117 676 1132 q 767 1049 767 1103 q 726 953 767 992 q 610 904 686 914 l 607 943 z "},"ẫ":{"ha":792,"x_min":61,"x_max":714,"o":"m 421 690 q 492 688 454 690 q 567 682 529 686 q 642 674 604 678 q 714 663 679 669 l 675 607 q 542 613 599 610 q 446 615 485 615 q 323 605 371 615 q 246 565 275 594 q 199 480 217 536 q 168 335 182 424 q 156 169 153 229 q 184 85 158 110 q 264 61 210 61 q 365 83 313 61 q 475 149 418 106 q 589 253 532 192 l 604 203 q 503 90 561 139 q 380 12 444 40 q 249 -17 315 -17 q 124 19 167 -17 q 71 133 81 54 q 81 343 61 213 q 123 522 97 453 q 188 627 149 590 q 285 677 228 664 q 421 690 342 690 m 625 663 l 714 663 l 621 0 l 551 0 l 565 163 l 556 172 l 625 663 m 504 969 l 656 811 l 621 775 l 476 897 l 465 897 l 282 775 l 254 814 l 440 969 l 504 969 m 392 1153 q 444 1138 424 1150 q 482 1112 464 1126 q 519 1087 500 1097 q 565 1074 538 1076 q 624 1088 606 1069 q 647 1149 643 1107 l 689 1144 q 655 1041 686 1075 q 576 1010 624 1007 q 519 1024 542 1013 q 478 1051 496 1036 q 442 1078 460 1067 q 401 1092 424 1090 q 343 1074 361 1094 q 319 1011 325 1054 l 278 1015 q 314 1123 282 1089 q 392 1153 346 1157 z "},"ȁ":{"ha":792,"x_min":61,"x_max":714,"o":"m 421 690 q 492 688 454 690 q 567 682 529 686 q 642 674 604 678 q 714 663 679 669 l 675 607 q 542 613 599 610 q 446 615 485 615 q 323 605 371 615 q 246 565 275 594 q 199 480 217 536 q 168 335 182 424 q 156 169 153 229 q 184 85 158 110 q 264 61 210 61 q 365 83 313 61 q 475 149 418 106 q 589 253 532 192 l 604 203 q 503 90 561 139 q 380 12 444 40 q 249 -17 315 -17 q 124 19 167 -17 q 71 133 81 54 q 81 343 61 213 q 123 522 97 453 q 188 627 149 590 q 285 677 228 664 q 421 690 342 690 m 625 663 l 714 663 l 621 0 l 551 0 l 565 163 l 556 172 l 625 663 m 424 1018 l 615 790 l 575 760 l 368 976 l 424 1018 m 208 1018 l 397 790 l 360 760 l 151 976 l 208 1018 z "},"ä":{"ha":792,"x_min":61,"x_max":714,"o":"m 421 690 q 492 688 454 690 q 567 682 529 686 q 642 674 604 678 q 714 663 679 669 l 675 607 q 542 613 599 610 q 446 615 485 615 q 323 605 371 615 q 246 565 275 594 q 199 480 217 536 q 168 335 182 424 q 156 169 153 229 q 184 85 158 110 q 264 61 210 61 q 365 83 313 61 q 475 149 418 106 q 589 253 532 192 l 604 203 q 503 90 561 139 q 380 12 444 40 q 249 -17 315 -17 q 124 19 167 -17 q 71 133 81 54 q 81 343 61 213 q 123 522 97 453 q 188 627 149 590 q 285 677 228 664 q 421 690 342 690 m 625 663 l 714 663 l 621 0 l 551 0 l 565 163 l 556 172 l 625 663 m 371 950 q 392 943 386 950 q 394 924 397 936 l 383 847 q 375 826 382 833 q 353 819 368 819 l 324 819 q 300 846 297 819 l 311 924 q 321 943 314 936 q 343 950 328 950 l 371 950 m 608 950 q 630 943 625 950 q 633 924 635 936 l 622 847 q 614 826 621 833 q 592 819 607 819 l 563 819 q 539 846 536 819 l 550 924 q 560 943 553 936 q 581 950 567 950 l 608 950 z "},"ạ":{"ha":792,"x_min":61,"x_max":714,"o":"m 421 690 q 492 688 454 690 q 567 682 529 686 q 642 674 604 678 q 714 663 679 669 l 675 607 q 542 613 599 610 q 446 615 485 615 q 323 605 371 615 q 246 565 275 594 q 199 480 217 536 q 168 335 182 424 q 156 169 153 229 q 184 85 158 110 q 264 61 210 61 q 365 83 313 61 q 475 149 418 106 q 589 253 532 192 l 604 203 q 503 90 561 139 q 380 12 444 40 q 249 -17 315 -17 q 124 19 167 -17 q 71 133 81 54 q 81 343 61 213 q 123 522 97 453 q 188 627 149 590 q 285 677 228 664 q 421 690 342 690 m 625 663 l 714 663 l 621 0 l 551 0 l 565 163 l 556 172 l 625 663 m 342 -96 q 363 -103 356 -96 q 368 -126 371 -111 l 357 -207 q 326 -235 353 -235 l 297 -235 q 276 -226 283 -235 q 269 -204 268 -218 l 281 -124 q 290 -102 283 -108 q 311 -96 296 -96 l 342 -96 z "},"à":{"ha":792,"x_min":61,"x_max":714,"o":"m 421 690 q 492 688 454 690 q 567 682 529 686 q 642 674 604 678 q 714 663 679 669 l 675 607 q 542 613 599 610 q 446 615 485 615 q 323 605 371 615 q 246 565 275 594 q 199 480 217 536 q 168 335 182 424 q 156 169 153 229 q 184 85 158 110 q 264 61 210 61 q 365 83 313 61 q 475 149 418 106 q 589 253 532 192 l 604 203 q 503 90 561 139 q 380 12 444 40 q 249 -17 315 -17 q 124 19 167 -17 q 71 133 81 54 q 81 343 61 213 q 123 522 97 453 q 188 627 149 590 q 285 677 228 664 q 421 690 342 690 m 625 663 l 714 663 l 621 0 l 551 0 l 565 163 l 556 172 l 625 663 m 301 1010 l 518 806 l 483 765 l 251 947 l 301 1010 z "},"ả":{"ha":792,"x_min":61,"x_max":714,"o":"m 421 690 q 492 688 454 690 q 567 682 529 686 q 642 674 604 678 q 714 663 679 669 l 675 607 q 542 613 599 610 q 446 615 485 615 q 323 605 371 615 q 246 565 275 594 q 199 480 217 536 q 168 335 182 424 q 156 169 153 229 q 184 85 158 110 q 264 61 210 61 q 365 83 313 61 q 475 149 418 106 q 589 253 532 192 l 604 203 q 503 90 561 139 q 380 12 444 40 q 249 -17 315 -17 q 124 19 167 -17 q 71 133 81 54 q 81 343 61 213 q 123 522 97 453 q 188 627 149 590 q 285 677 228 664 q 421 690 342 690 m 625 663 l 714 663 l 621 0 l 551 0 l 565 163 l 556 172 l 625 663 m 419 831 q 505 876 479 843 q 531 951 531 910 q 505 997 531 986 q 428 993 479 1007 l 426 1043 q 549 1044 501 1065 q 596 963 596 1024 q 550 847 596 897 q 424 786 504 797 l 419 831 z "},"ȃ":{"ha":792,"x_min":61,"x_max":714,"o":"m 421 690 q 492 688 454 690 q 567 682 529 686 q 642 674 604 678 q 714 663 679 669 l 675 607 q 542 613 599 610 q 446 615 485 615 q 323 605 371 615 q 246 565 275 594 q 199 480 217 536 q 168 335 182 424 q 156 169 153 229 q 184 85 158 110 q 264 61 210 61 q 365 83 313 61 q 475 149 418 106 q 589 253 532 192 l 604 203 q 503 90 561 139 q 380 12 444 40 q 249 -17 315 -17 q 124 19 167 -17 q 71 133 81 54 q 81 343 61 213 q 123 522 97 453 q 188 627 149 590 q 285 677 228 664 q 421 690 342 690 m 625 663 l 714 663 l 621 0 l 551 0 l 565 163 l 556 172 l 625 663 m 300 790 l 251 801 q 287 893 258 854 q 363 953 315 932 q 471 974 410 974 q 582 952 538 974 q 645 891 626 931 q 654 799 664 851 l 606 794 q 577 877 614 849 q 472 906 540 906 q 352 875 399 906 q 300 790 306 844 z "},"ā":{"ha":792,"x_min":61,"x_max":714,"o":"m 421 690 q 492 688 454 690 q 567 682 529 686 q 642 674 604 678 q 714 663 679 669 l 675 607 q 542 613 599 610 q 446 615 485 615 q 323 605 371 615 q 246 565 275 594 q 199 480 217 536 q 168 335 182 424 q 156 169 153 229 q 184 85 158 110 q 264 61 210 61 q 365 83 313 61 q 475 149 418 106 q 589 253 532 192 l 604 203 q 503 90 561 139 q 380 12 444 40 q 249 -17 315 -17 q 124 19 167 -17 q 71 133 81 54 q 81 343 61 213 q 123 522 97 453 q 188 627 149 590 q 285 677 228 664 q 421 690 342 690 m 625 663 l 714 663 l 621 0 l 551 0 l 565 163 l 556 172 l 625 663 m 660 917 l 651 850 l 272 850 l 281 917 l 660 917 z "},"ą":{"ha":792,"x_min":61,"x_max":714,"o":"m 421 690 q 492 688 454 690 q 567 682 529 686 q 642 674 604 678 q 714 663 679 669 l 675 607 q 542 613 599 610 q 446 615 485 615 q 323 605 371 615 q 246 565 275 594 q 199 480 217 536 q 168 335 182 424 q 156 169 153 229 q 184 85 158 110 q 264 61 210 61 q 365 83 313 61 q 475 149 418 106 q 589 253 532 192 l 604 203 q 503 90 561 139 q 380 12 444 40 q 249 -17 315 -17 q 124 19 167 -17 q 71 133 81 54 q 81 343 61 213 q 123 522 97 453 q 188 627 149 590 q 285 677 228 664 q 421 690 342 690 m 625 663 l 714 663 l 621 0 l 551 0 l 565 163 l 556 172 l 625 663 m 575 4 l 619 0 q 549 -77 582 -36 q 489 -168 517 -118 q 490 -238 461 -222 q 592 -231 518 -254 l 603 -269 q 494 -297 538 -296 q 429 -278 451 -297 q 406 -229 407 -260 q 422 -162 406 -199 q 476 -86 440 -128 q 575 4 511 -44 z "},"å":{"ha":792,"x_min":61,"x_max":714,"o":"m 421 690 q 492 688 454 690 q 567 682 529 686 q 642 674 604 678 q 714 663 679 669 l 675 607 q 542 613 599 610 q 446 615 485 615 q 323 605 371 615 q 246 565 275 594 q 199 480 217 536 q 168 335 182 424 q 156 169 153 229 q 184 85 158 110 q 264 61 210 61 q 365 83 313 61 q 475 149 418 106 q 589 253 532 192 l 604 203 q 503 90 561 139 q 380 12 444 40 q 249 -17 315 -17 q 124 19 167 -17 q 71 133 81 54 q 81 343 61 213 q 123 522 97 453 q 188 627 149 590 q 285 677 228 664 q 421 690 342 690 m 625 663 l 714 663 l 621 0 l 551 0 l 565 163 l 556 172 l 625 663 m 478 1026 q 574 991 538 1026 q 611 899 611 956 q 567 789 611 833 q 457 744 524 744 q 359 780 396 744 q 322 872 322 815 q 367 982 322 938 q 478 1026 411 1026 m 476 978 q 403 948 431 978 q 376 876 376 918 q 397 817 376 842 q 458 793 418 793 q 531 824 504 793 q 558 896 558 854 q 537 954 558 931 q 476 978 515 978 z "},"ǻ":{"ha":792,"x_min":61,"x_max":714,"o":"m 622 1250 l 660 1176 l 396 1064 l 371 1108 l 622 1250 m 421 690 q 492 688 454 690 q 567 682 529 686 q 642 674 604 678 q 714 663 679 669 l 675 607 q 542 613 599 610 q 446 615 485 615 q 323 605 371 615 q 246 565 275 594 q 199 480 217 536 q 168 335 182 424 q 156 169 153 229 q 184 85 158 110 q 264 61 210 61 q 365 83 313 61 q 475 149 418 106 q 589 253 532 192 l 604 203 q 503 90 561 139 q 380 12 444 40 q 249 -17 315 -17 q 124 19 167 -17 q 71 133 81 54 q 81 343 61 213 q 123 522 97 453 q 188 627 149 590 q 285 677 228 664 q 421 690 342 690 m 625 663 l 714 663 l 621 0 l 551 0 l 565 163 l 556 172 l 625 663 m 476 1026 q 574 990 538 1026 q 611 899 611 954 q 567 789 611 833 q 457 744 524 744 q 359 780 396 744 q 322 872 322 815 q 367 982 322 938 q 476 1026 411 1026 m 476 976 q 403 947 429 976 q 376 876 376 918 q 397 817 376 842 q 458 793 418 793 q 531 824 504 793 q 557 896 557 854 q 536 953 557 931 q 476 976 515 976 z "},"ã":{"ha":792,"x_min":61,"x_max":714,"o":"m 421 690 q 492 688 454 690 q 567 682 529 686 q 642 674 604 678 q 714 663 679 669 l 675 607 q 542 613 599 610 q 446 615 485 615 q 323 605 371 615 q 246 565 275 594 q 199 480 217 536 q 168 335 182 424 q 156 169 153 229 q 184 85 158 110 q 264 61 210 61 q 365 83 313 61 q 475 149 418 106 q 589 253 532 192 l 604 203 q 503 90 561 139 q 380 12 444 40 q 249 -17 315 -17 q 124 19 167 -17 q 71 133 81 54 q 81 343 61 213 q 123 522 97 453 q 188 627 149 590 q 285 677 228 664 q 421 690 342 690 m 625 663 l 714 663 l 621 0 l 551 0 l 565 163 l 556 172 l 625 663 m 367 965 q 423 951 400 963 q 466 924 446 939 q 507 897 486 910 q 557 882 528 885 q 620 898 600 878 q 646 960 640 918 l 689 957 q 652 848 686 885 q 568 815 618 811 q 507 831 532 818 q 461 858 482 843 q 421 885 440 872 q 376 900 401 897 q 315 883 335 904 q 289 817 294 861 l 244 821 q 284 933 249 897 q 367 965 319 969 z "},"æ":{"ha":1213,"x_min":60,"x_max":1161,"o":"m 415 690 q 521 685 467 690 q 630 674 575 681 q 733 656 685 667 l 688 600 q 590 608 633 604 q 510 613 546 611 q 440 615 474 615 q 319 603 367 615 q 243 562 272 592 q 198 477 214 532 q 168 335 182 422 q 156 172 154 232 q 181 87 157 113 q 257 61 206 61 q 358 83 307 61 q 463 147 410 104 q 574 253 517 190 l 589 204 q 494 92 549 142 q 375 13 439 42 q 240 -17 311 -17 q 118 22 160 -17 q 68 140 76 60 q 78 343 60 219 q 121 522 94 453 q 187 627 147 590 q 283 677 226 664 q 415 690 339 690 m 906 690 q 1061 668 1003 690 q 1140 599 1119 646 q 1147 476 1161 553 q 1108 379 1136 415 q 1029 325 1079 343 q 903 300 979 307 l 569 267 l 581 335 l 903 368 q 984 385 953 374 q 1033 419 1015 396 q 1060 485 1051 443 q 1056 572 1072 544 q 998 608 1039 600 q 899 615 957 615 q 793 605 838 615 q 719 567 749 594 q 669 485 689 539 q 636 346 649 432 q 633 166 618 228 q 695 81 647 104 q 825 58 743 58 q 906 61 863 58 q 993 68 950 64 q 1068 76 1036 72 l 1075 17 q 996 -2 1044 6 q 896 -13 947 -10 q 807 -17 844 -17 q 629 22 693 -17 q 547 140 565 60 q 544 349 528 221 q 586 518 560 451 q 656 622 613 585 q 760 675 699 660 q 906 690 822 690 z "},"ǽ":{"ha":1213,"x_min":60,"x_max":1161,"o":"m 415 690 q 521 685 467 690 q 630 674 575 681 q 733 656 685 667 l 688 600 q 590 608 633 604 q 510 613 546 611 q 440 615 474 615 q 319 603 367 615 q 243 562 272 592 q 198 477 214 532 q 168 335 182 422 q 156 172 154 232 q 181 87 157 113 q 257 61 206 61 q 358 83 307 61 q 463 147 410 104 q 574 253 517 190 l 589 204 q 494 92 549 142 q 375 13 439 42 q 240 -17 311 -17 q 118 22 160 -17 q 68 140 76 60 q 78 343 60 219 q 121 522 94 453 q 187 627 147 590 q 283 677 226 664 q 415 690 339 690 m 906 690 q 1061 668 1003 690 q 1140 599 1119 646 q 1147 476 1161 553 q 1108 379 1136 415 q 1029 325 1079 343 q 903 300 979 307 l 569 267 l 581 335 l 903 368 q 984 385 953 374 q 1033 419 1015 396 q 1060 485 1051 443 q 1056 572 1072 544 q 998 608 1039 600 q 899 615 957 615 q 793 605 838 615 q 719 567 749 594 q 669 485 689 539 q 636 346 649 432 q 633 166 618 228 q 695 81 647 104 q 825 58 743 58 q 906 61 863 58 q 993 68 950 64 q 1068 76 1036 72 l 1075 17 q 996 -2 1044 6 q 896 -13 947 -10 q 807 -17 844 -17 q 629 22 693 -17 q 547 140 565 60 q 544 349 528 221 q 586 518 560 451 q 656 622 613 585 q 760 675 699 660 q 906 690 822 690 m 888 1011 l 933 943 l 663 765 l 632 807 l 888 1011 z "},"b":{"ha":790,"x_min":58,"x_max":711,"o":"m 517 690 q 640 658 594 690 q 698 549 685 626 q 692 331 711 471 q 649 149 675 218 q 585 43 624 79 q 494 -6 547 7 q 371 -18 442 -18 q 290 -15 331 -18 q 210 -5 250 -11 q 133 10 171 1 q 60 31 96 19 l 106 78 q 198 66 154 71 q 278 59 242 61 q 340 57 315 57 q 458 68 413 57 q 530 110 503 79 q 574 195 557 140 q 601 338 590 250 q 613 506 617 446 q 581 589 608 565 q 497 613 554 613 q 360 567 439 613 q 185 433 282 521 l 168 478 q 247 556 204 518 q 336 624 290 594 q 428 672 382 654 q 517 690 474 690 m 278 972 l 239 692 q 224 601 232 642 q 204 517 217 560 l 211 499 l 146 26 l 58 31 l 192 972 l 278 972 z "},"c":{"ha":668,"x_min":53,"x_max":636,"o":"m 431 690 q 533 684 475 690 q 636 660 590 678 l 619 603 q 528 612 579 610 q 446 614 478 614 q 300 590 357 614 q 211 506 243 567 q 164 333 179 446 q 163 163 149 222 q 224 82 176 104 q 357 60 271 60 q 413 61 379 60 q 485 65 446 63 q 557 74 524 68 l 564 14 q 456 -9 514 -1 q 343 -17 397 -17 q 161 19 226 -17 q 74 133 96 54 q 71 340 53 211 q 131 547 90 469 q 244 657 172 624 q 431 690 317 690 z "},"ć":{"ha":668,"x_min":53,"x_max":639,"o":"m 431 690 q 533 684 475 690 q 636 660 590 678 l 619 603 q 528 612 579 610 q 446 614 478 614 q 300 590 357 614 q 211 506 243 567 q 164 333 179 446 q 163 163 149 222 q 224 82 176 104 q 357 60 271 60 q 413 61 379 60 q 485 65 446 63 q 557 74 524 68 l 564 14 q 456 -9 514 -1 q 343 -17 397 -17 q 161 19 226 -17 q 74 133 96 54 q 71 340 53 211 q 131 547 90 469 q 244 657 172 624 q 431 690 317 690 m 593 1011 l 638 943 l 368 765 l 338 807 l 593 1011 z "},"č":{"ha":668,"x_min":53,"x_max":664,"o":"m 431 690 q 533 684 475 690 q 636 660 590 678 l 619 603 q 528 612 579 610 q 446 614 478 614 q 300 590 357 614 q 211 506 243 567 q 164 333 179 446 q 163 163 149 222 q 224 82 176 104 q 357 60 271 60 q 413 61 379 60 q 485 65 446 63 q 557 74 524 68 l 564 14 q 456 -9 514 -1 q 343 -17 397 -17 q 161 19 226 -17 q 74 133 96 54 q 71 340 53 211 q 131 547 90 469 q 244 657 172 624 q 431 690 317 690 m 635 996 l 664 957 l 454 785 l 389 785 l 225 963 l 263 996 l 421 857 l 432 857 l 635 996 z "},"ç":{"ha":668,"x_min":53,"x_max":636,"o":"m 431 690 q 533 684 475 690 q 636 660 590 678 l 619 603 q 528 612 579 610 q 446 614 478 614 q 300 590 357 614 q 211 506 243 567 q 164 333 179 446 q 163 163 149 222 q 224 82 176 104 q 357 60 271 60 q 413 61 379 60 q 485 65 446 63 q 557 74 524 68 l 564 14 q 456 -9 514 -1 q 343 -17 397 -17 q 161 19 226 -17 q 74 133 96 54 q 71 340 53 211 q 131 547 90 469 q 244 657 172 624 q 431 690 317 690 m 265 -79 q 344 -83 313 -75 q 388 -112 375 -90 q 393 -174 400 -133 q 353 -265 386 -228 q 268 -320 319 -303 q 154 -329 217 -337 l 171 -282 q 278 -251 235 -283 q 328 -171 321 -218 q 317 -133 332 -143 q 254 -122 303 -124 l 265 -79 z "},"ḉ":{"ha":668,"x_min":53,"x_max":639,"o":"m 431 690 q 533 684 475 690 q 636 660 590 678 l 619 603 q 528 612 579 610 q 446 614 478 614 q 300 590 357 614 q 211 506 243 567 q 164 333 179 446 q 163 163 149 222 q 224 82 176 104 q 357 60 271 60 q 413 61 379 60 q 485 65 446 63 q 557 74 524 68 l 564 14 q 456 -9 514 -1 q 343 -17 397 -17 q 161 19 226 -17 q 74 133 96 54 q 71 340 53 211 q 131 547 90 469 q 244 657 172 624 q 431 690 317 690 m 265 -79 q 344 -83 313 -75 q 388 -112 375 -90 q 393 -174 400 -133 q 351 -265 385 -228 q 267 -320 318 -303 q 154 -329 217 -337 l 171 -282 q 277 -251 235 -283 q 328 -171 319 -218 q 317 -133 332 -143 q 254 -122 303 -124 l 265 -79 m 593 1011 l 639 943 l 368 765 l 338 807 l 593 1011 z "},"ĉ":{"ha":668,"x_min":53,"x_max":647,"o":"m 431 690 q 533 684 475 690 q 636 660 590 678 l 619 603 q 528 612 579 610 q 446 614 478 614 q 300 590 357 614 q 211 506 243 567 q 164 333 179 446 q 163 163 149 222 q 224 82 176 104 q 357 60 271 60 q 413 61 379 60 q 485 65 446 63 q 557 74 524 68 l 564 14 q 456 -9 514 -1 q 343 -17 397 -17 q 161 19 226 -17 q 74 133 96 54 q 71 340 53 211 q 131 547 90 469 q 244 657 172 624 q 431 690 317 690 m 476 986 l 647 808 l 613 774 l 449 914 l 438 914 l 232 774 l 204 814 l 413 986 l 476 986 z "},"ċ":{"ha":668,"x_min":53,"x_max":636,"o":"m 431 690 q 533 684 475 690 q 636 660 590 678 l 619 603 q 528 612 579 610 q 446 614 478 614 q 300 590 357 614 q 211 506 243 567 q 164 333 179 446 q 163 163 149 222 q 224 82 176 104 q 357 60 271 60 q 413 61 379 60 q 485 65 446 63 q 557 74 524 68 l 564 14 q 456 -9 514 -1 q 343 -17 397 -17 q 161 19 226 -17 q 74 133 96 54 q 71 340 53 211 q 131 547 90 469 q 244 657 172 624 q 431 690 317 690 m 456 950 q 476 942 469 950 q 482 919 483 935 l 471 839 q 439 811 467 811 l 411 811 q 389 819 396 811 q 383 842 382 828 l 394 922 q 403 944 396 938 q 425 950 410 950 l 456 950 z "},"d":{"ha":789,"x_min":61,"x_max":756,"o":"m 413 690 q 557 683 481 690 q 700 663 633 675 l 674 608 q 542 614 599 611 q 442 617 485 617 q 320 606 368 617 q 243 565 272 594 q 197 481 214 536 q 167 335 181 425 q 155 175 153 235 q 181 88 157 115 q 257 61 204 61 q 413 109 333 61 q 586 253 493 157 l 601 203 q 531 124 571 163 q 443 53 490 85 q 343 2 396 21 q 235 -17 290 -17 q 122 20 163 -17 q 72 136 82 57 q 78 343 61 215 q 121 522 94 453 q 186 626 147 590 q 281 676 225 663 q 413 690 336 690 m 756 972 l 618 0 l 550 0 l 564 164 l 556 172 l 619 643 l 631 665 q 635 733 632 701 q 643 803 638 765 l 667 972 l 756 972 z "},"ð":{"ha":765,"x_min":54,"x_max":688,"o":"m 249 969 q 387 958 318 972 q 515 908 456 944 q 615 805 574 871 q 672 636 657 739 q 668 386 688 533 q 635 226 656 300 q 576 98 614 153 q 475 13 538 43 q 318 -18 413 -18 q 157 17 218 -18 q 75 125 96 53 q 68 308 54 197 q 160 537 88 453 q 381 621 232 621 q 446 615 413 621 q 513 594 479 610 q 576 551 546 579 q 631 474 607 522 l 621 435 q 553 505 590 481 q 475 538 515 529 q 394 547 435 547 q 269 517 317 547 q 195 431 221 486 q 160 301 169 376 q 181 113 140 167 q 322 58 221 58 q 461 98 410 58 q 539 215 513 138 q 581 403 565 292 q 585 631 599 539 q 536 777 572 722 q 450 860 500 832 q 344 897 400 889 q 235 906 288 906 l 249 969 m 650 981 l 678 939 l 371 735 l 347 774 l 650 981 z "},"ď":{"ha":789,"x_min":61,"x_max":943,"o":"m 413 690 q 557 683 481 690 q 700 663 633 675 l 674 608 q 542 614 599 611 q 442 617 485 617 q 320 606 368 617 q 243 565 272 594 q 197 481 214 536 q 167 335 181 425 q 155 175 153 235 q 181 88 157 115 q 257 61 204 61 q 413 109 333 61 q 586 253 493 157 l 601 203 q 531 124 571 163 q 443 53 490 85 q 343 2 396 21 q 235 -17 290 -17 q 122 20 163 -17 q 72 136 82 57 q 78 343 61 215 q 121 522 94 453 q 186 626 147 590 q 281 676 225 663 q 413 690 336 690 m 756 972 l 618 0 l 550 0 l 564 164 l 556 172 l 619 643 l 631 665 q 635 733 632 701 q 643 803 638 765 l 667 972 l 756 972 m 917 972 q 938 965 932 972 q 940 942 943 958 l 929 861 q 906 774 925 824 q 868 689 888 725 l 829 701 q 853 769 842 735 q 869 844 864 804 q 852 851 858 843 q 847 869 846 858 l 858 944 q 868 966 861 960 q 893 972 875 972 l 917 972 z "},"đ":{"ha":789,"x_min":61,"x_max":843,"o":"m 843 860 l 836 807 l 425 807 l 433 860 l 843 860 m 413 690 q 557 683 481 690 q 700 663 633 675 l 674 608 q 542 614 599 611 q 442 617 485 617 q 320 606 368 617 q 243 565 272 594 q 197 481 214 536 q 167 335 181 425 q 155 175 153 235 q 181 88 157 115 q 257 61 204 61 q 413 109 333 61 q 586 253 493 157 l 601 203 q 531 124 571 163 q 443 53 490 85 q 343 2 396 21 q 235 -17 290 -17 q 122 20 163 -17 q 72 136 82 57 q 78 343 61 215 q 121 522 94 453 q 186 626 147 590 q 281 676 225 663 q 413 690 336 690 m 756 972 l 618 0 l 550 0 l 564 164 l 556 172 l 619 643 l 631 665 q 635 733 632 701 q 643 803 638 765 l 667 972 l 756 972 z "},"ḍ":{"ha":789,"x_min":61,"x_max":756,"o":"m 413 690 q 557 683 481 690 q 700 663 633 675 l 674 608 q 542 614 599 611 q 442 617 485 617 q 320 606 368 617 q 243 565 272 594 q 197 481 214 536 q 167 335 181 425 q 155 175 153 235 q 181 88 157 115 q 257 61 204 61 q 413 109 333 61 q 586 253 493 157 l 601 203 q 531 124 571 163 q 443 53 490 85 q 343 2 396 21 q 235 -17 290 -17 q 122 20 163 -17 q 72 136 82 57 q 78 343 61 215 q 121 522 94 453 q 186 626 147 590 q 281 676 225 663 q 413 690 336 690 m 756 972 l 618 0 l 550 0 l 564 164 l 556 172 l 619 643 l 631 665 q 635 733 632 701 q 643 803 638 765 l 667 972 l 756 972 m 367 -96 q 389 -103 382 -96 q 394 -126 396 -111 l 383 -207 q 351 -235 379 -235 l 322 -235 q 301 -226 308 -235 q 296 -204 294 -218 l 307 -124 q 315 -102 308 -108 q 336 -96 321 -96 l 367 -96 z "},"ḏ":{"ha":789,"x_min":61,"x_max":756,"o":"m 413 690 q 557 683 481 690 q 700 663 633 675 l 674 608 q 542 614 599 611 q 442 617 485 617 q 320 606 368 617 q 243 565 272 594 q 197 481 214 536 q 167 335 181 425 q 155 175 153 235 q 181 88 157 115 q 257 61 204 61 q 413 109 333 61 q 586 253 493 157 l 601 203 q 531 124 571 163 q 443 53 490 85 q 343 2 396 21 q 235 -17 290 -17 q 122 20 163 -17 q 72 136 82 57 q 78 343 61 215 q 121 522 94 453 q 186 626 147 590 q 281 676 225 663 q 413 690 336 690 m 756 972 l 618 0 l 550 0 l 564 164 l 556 172 l 619 643 l 631 665 q 635 733 632 701 q 643 803 638 765 l 667 972 l 756 972 m 539 -131 l 529 -199 l 151 -199 l 161 -131 l 539 -131 z "},"ǆ":{"ha":1481,"x_min":61,"x_max":1446,"o":"m 413 690 q 557 683 481 690 q 700 663 633 675 l 674 608 q 542 614 599 611 q 442 617 485 617 q 320 606 368 617 q 243 565 272 594 q 197 481 214 536 q 167 335 181 425 q 155 175 153 235 q 181 88 157 115 q 257 61 204 61 q 413 109 333 61 q 586 253 493 157 l 601 203 q 531 124 571 163 q 443 53 490 85 q 343 2 396 21 q 235 -17 290 -17 q 122 20 163 -17 q 72 136 82 57 q 78 343 61 215 q 121 522 94 453 q 186 626 147 590 q 281 676 225 663 q 413 690 336 690 m 756 972 l 618 0 l 550 0 l 564 164 l 556 172 l 619 643 l 631 665 q 635 733 632 701 q 643 803 638 765 l 667 972 l 756 972 m 1332 601 l 1436 600 l 913 71 l 808 72 l 1332 601 m 1365 72 l 1356 0 l 799 0 l 810 72 l 1365 72 m 1446 674 l 1435 600 l 889 600 l 899 674 l 1446 674 m 1396 996 l 1425 957 l 1215 785 l 1150 785 l 986 963 l 1024 996 l 1182 857 l 1193 857 l 1396 996 z "},"e":{"ha":740,"x_min":56,"x_max":692,"o":"m 435 690 q 590 668 532 690 q 669 599 647 646 q 675 476 692 553 q 635 379 664 415 q 558 325 607 343 q 432 300 508 307 l 100 267 l 108 335 l 431 368 q 513 385 482 374 q 563 419 544 396 q 589 485 581 443 q 584 572 601 544 q 526 608 567 600 q 428 615 486 615 q 322 605 365 615 q 247 567 278 594 q 197 485 217 539 q 164 346 178 432 q 162 166 147 228 q 224 81 176 104 q 353 58 272 58 q 436 61 392 58 q 523 68 481 64 q 600 76 565 72 l 607 17 q 527 -2 576 6 q 426 -13 478 -10 q 336 -17 375 -17 q 158 22 222 -17 q 75 140 94 60 q 74 349 56 221 q 115 518 89 451 q 185 622 142 585 q 289 675 228 660 q 435 690 350 690 z "},"é":{"ha":740,"x_min":56,"x_max":692,"o":"m 435 690 q 590 668 532 690 q 669 599 647 646 q 675 476 692 553 q 635 379 664 415 q 558 325 607 343 q 432 300 508 307 l 100 267 l 108 335 l 431 368 q 513 385 482 374 q 563 419 544 396 q 589 485 581 443 q 584 572 601 544 q 526 608 567 600 q 428 615 486 615 q 322 605 365 615 q 247 567 278 594 q 197 485 217 539 q 164 346 178 432 q 162 166 147 228 q 224 81 176 104 q 353 58 272 58 q 436 61 392 58 q 523 68 481 64 q 600 76 565 72 l 607 17 q 527 -2 576 6 q 426 -13 478 -10 q 336 -17 375 -17 q 158 22 222 -17 q 75 140 94 60 q 74 349 56 221 q 115 518 89 451 q 185 622 142 585 q 289 675 228 660 q 435 690 350 690 m 617 1011 l 661 943 l 392 765 l 361 807 l 617 1011 z "},"ĕ":{"ha":740,"x_min":56,"x_max":692,"o":"m 435 690 q 590 668 532 690 q 669 599 647 646 q 675 476 692 553 q 635 379 664 415 q 558 325 607 343 q 432 300 508 307 l 100 267 l 108 335 l 431 368 q 513 385 482 374 q 563 419 544 396 q 589 485 581 443 q 584 572 601 544 q 526 608 567 600 q 428 615 486 615 q 322 605 365 615 q 247 567 278 594 q 197 485 217 539 q 164 346 178 432 q 162 166 147 228 q 224 81 176 104 q 353 58 272 58 q 436 61 392 58 q 523 68 481 64 q 600 76 565 72 l 607 17 q 527 -2 576 6 q 426 -13 478 -10 q 336 -17 375 -17 q 158 22 222 -17 q 75 140 94 60 q 74 349 56 221 q 115 518 89 451 q 185 622 142 585 q 289 675 228 660 q 435 690 350 690 m 619 974 l 667 963 q 633 872 661 910 q 557 812 604 833 q 447 790 510 790 q 338 813 382 790 q 274 875 293 835 q 264 967 254 915 l 313 971 q 341 888 304 917 q 447 858 378 858 q 567 890 521 858 q 619 974 613 921 z "},"ě":{"ha":740,"x_min":56,"x_max":692,"o":"m 435 690 q 590 668 532 690 q 669 599 647 646 q 675 476 692 553 q 635 379 664 415 q 558 325 607 343 q 432 300 508 307 l 100 267 l 108 335 l 431 368 q 513 385 482 374 q 563 419 544 396 q 589 485 581 443 q 584 572 601 544 q 526 608 567 600 q 428 615 486 615 q 322 605 365 615 q 247 567 278 594 q 197 485 217 539 q 164 346 178 432 q 162 166 147 228 q 224 81 176 104 q 353 58 272 58 q 436 61 392 58 q 523 68 481 64 q 600 76 565 72 l 607 17 q 527 -2 576 6 q 426 -13 478 -10 q 336 -17 375 -17 q 158 22 222 -17 q 75 140 94 60 q 74 349 56 221 q 115 518 89 451 q 185 622 142 585 q 289 675 228 660 q 435 690 350 690 m 657 996 l 686 957 l 476 785 l 411 785 l 247 963 l 285 996 l 443 857 l 454 857 l 657 996 z "},"ḝ":{"ha":740,"x_min":56,"x_max":692,"o":"m 435 690 q 590 668 532 690 q 669 599 647 646 q 675 476 692 553 q 635 379 664 415 q 558 325 607 343 q 432 300 508 307 l 100 267 l 108 335 l 431 368 q 513 385 482 374 q 563 419 544 396 q 589 485 581 443 q 584 572 601 544 q 526 608 567 600 q 428 615 486 615 q 322 605 365 615 q 247 567 278 594 q 197 485 217 539 q 164 346 178 432 q 162 166 147 228 q 224 81 176 104 q 353 58 272 58 q 436 61 392 58 q 523 68 481 64 q 600 76 565 72 l 607 17 q 527 -2 576 6 q 426 -13 478 -10 q 336 -17 375 -17 q 158 22 222 -17 q 75 140 94 60 q 74 349 56 221 q 115 518 89 451 q 185 622 142 585 q 289 675 228 660 q 435 690 350 690 m 276 -81 q 355 -84 324 -76 q 399 -113 386 -92 q 404 -175 411 -135 q 363 -267 396 -229 q 278 -322 329 -304 q 165 -331 228 -339 l 182 -283 q 288 -252 246 -285 q 339 -172 331 -219 q 328 -135 343 -144 q 265 -124 314 -125 l 276 -81 m 621 974 l 668 963 q 634 872 663 910 q 558 812 606 833 q 447 790 510 790 q 339 813 383 790 q 275 875 294 835 q 265 967 256 915 l 314 971 q 342 888 306 917 q 447 858 379 858 q 567 890 521 858 q 621 974 614 921 z "},"ê":{"ha":740,"x_min":56,"x_max":692,"o":"m 435 690 q 590 668 532 690 q 669 599 647 646 q 675 476 692 553 q 635 379 664 415 q 558 325 607 343 q 432 300 508 307 l 100 267 l 108 335 l 431 368 q 513 385 482 374 q 563 419 544 396 q 589 485 581 443 q 584 572 601 544 q 526 608 567 600 q 428 615 486 615 q 322 605 365 615 q 247 567 278 594 q 197 485 217 539 q 164 346 178 432 q 162 166 147 228 q 224 81 176 104 q 353 58 272 58 q 436 61 392 58 q 523 68 481 64 q 600 76 565 72 l 607 17 q 527 -2 576 6 q 426 -13 478 -10 q 336 -17 375 -17 q 158 22 222 -17 q 75 140 94 60 q 74 349 56 221 q 115 518 89 451 q 185 622 142 585 q 289 675 228 660 q 435 690 350 690 m 499 986 l 669 808 l 635 774 l 471 914 l 460 914 l 254 774 l 226 814 l 435 986 l 499 986 z "},"ế":{"ha":740,"x_min":56,"x_max":819,"o":"m 435 690 q 590 668 532 690 q 669 599 647 646 q 675 476 692 553 q 635 379 664 415 q 558 325 607 343 q 432 300 508 307 l 100 267 l 108 335 l 431 368 q 513 385 482 374 q 563 419 544 396 q 589 485 581 443 q 584 572 601 544 q 526 608 567 600 q 428 615 486 615 q 322 605 365 615 q 247 567 278 594 q 197 485 217 539 q 164 346 178 432 q 162 166 147 228 q 224 81 176 104 q 353 58 272 58 q 436 61 392 58 q 523 68 481 64 q 600 76 565 72 l 607 17 q 527 -2 576 6 q 426 -13 478 -10 q 336 -17 375 -17 q 158 22 222 -17 q 75 140 94 60 q 74 349 56 221 q 115 518 89 451 q 185 622 142 585 q 289 675 228 660 q 435 690 350 690 m 504 969 l 656 811 l 621 775 l 476 897 l 465 897 l 282 775 l 254 814 l 440 969 l 504 969 m 772 1106 l 819 1047 l 631 910 l 599 944 l 772 1106 z "},"ệ":{"ha":740,"x_min":56,"x_max":692,"o":"m 435 690 q 590 668 532 690 q 669 599 647 646 q 675 476 692 553 q 635 379 664 415 q 558 325 607 343 q 432 300 508 307 l 100 267 l 108 335 l 431 368 q 513 385 482 374 q 563 419 544 396 q 589 485 581 443 q 584 572 601 544 q 526 608 567 600 q 428 615 486 615 q 322 605 365 615 q 247 567 278 594 q 197 485 217 539 q 164 346 178 432 q 162 166 147 228 q 224 81 176 104 q 353 58 272 58 q 436 61 392 58 q 523 68 481 64 q 600 76 565 72 l 607 17 q 527 -2 576 6 q 426 -13 478 -10 q 336 -17 375 -17 q 158 22 222 -17 q 75 140 94 60 q 74 349 56 221 q 115 518 89 451 q 185 622 142 585 q 289 675 228 660 q 435 690 350 690 m 347 -96 q 369 -103 363 -96 q 375 -126 376 -111 l 364 -207 q 332 -235 360 -235 l 303 -235 q 282 -226 289 -235 q 276 -204 275 -218 l 288 -124 q 295 -102 289 -108 q 317 -96 301 -96 l 347 -96 m 500 986 l 671 808 l 636 774 l 472 914 l 460 914 l 256 774 l 229 814 l 436 986 l 500 986 z "},"ề":{"ha":740,"x_min":56,"x_max":692,"o":"m 435 690 q 590 668 532 690 q 669 599 647 646 q 675 476 692 553 q 635 379 664 415 q 558 325 607 343 q 432 300 508 307 l 100 267 l 108 335 l 431 368 q 513 385 482 374 q 563 419 544 396 q 589 485 581 443 q 584 572 601 544 q 526 608 567 600 q 428 615 486 615 q 322 605 365 615 q 247 567 278 594 q 197 485 217 539 q 164 346 178 432 q 162 166 147 228 q 224 81 176 104 q 353 58 272 58 q 436 61 392 58 q 523 68 481 64 q 600 76 565 72 l 607 17 q 527 -2 576 6 q 426 -13 478 -10 q 336 -17 375 -17 q 158 22 222 -17 q 75 140 94 60 q 74 349 56 221 q 115 518 89 451 q 185 622 142 585 q 289 675 228 660 q 435 690 350 690 m 488 969 l 639 811 l 604 775 l 460 897 l 449 897 l 265 775 l 238 814 l 424 969 l 488 969 m 179 1103 l 318 949 l 283 914 l 128 1049 l 179 1103 z "},"ể":{"ha":740,"x_min":56,"x_max":757,"o":"m 435 690 q 590 668 532 690 q 669 599 647 646 q 675 476 692 553 q 635 379 664 415 q 558 325 607 343 q 432 300 508 307 l 100 267 l 108 335 l 431 368 q 513 385 482 374 q 563 419 544 396 q 589 485 581 443 q 584 572 601 544 q 526 608 567 600 q 428 615 486 615 q 322 605 365 615 q 247 567 278 594 q 197 485 217 539 q 164 346 178 432 q 162 166 147 228 q 224 81 176 104 q 353 58 272 58 q 436 61 392 58 q 523 68 481 64 q 600 76 565 72 l 607 17 q 527 -2 576 6 q 426 -13 478 -10 q 336 -17 375 -17 q 158 22 222 -17 q 75 140 94 60 q 74 349 56 221 q 115 518 89 451 q 185 622 142 585 q 289 675 228 660 q 435 690 350 690 m 492 969 l 643 811 l 608 775 l 464 897 l 453 897 l 269 775 l 242 814 l 428 969 l 492 969 m 596 943 q 674 977 650 954 q 697 1035 697 1000 q 672 1072 697 1068 q 603 1063 646 1076 l 601 1108 q 710 1117 665 1132 q 756 1049 756 1103 q 715 953 756 992 q 599 904 675 914 l 596 943 z "},"ễ":{"ha":740,"x_min":56,"x_max":692,"o":"m 435 690 q 590 668 532 690 q 669 599 647 646 q 675 476 692 553 q 635 379 664 415 q 558 325 607 343 q 432 300 508 307 l 100 267 l 108 335 l 431 368 q 513 385 482 374 q 563 419 544 396 q 589 485 581 443 q 584 572 601 544 q 526 608 567 600 q 428 615 486 615 q 322 605 365 615 q 247 567 278 594 q 197 485 217 539 q 164 346 178 432 q 162 166 147 228 q 224 81 176 104 q 353 58 272 58 q 436 61 392 58 q 523 68 481 64 q 600 76 565 72 l 607 17 q 527 -2 576 6 q 426 -13 478 -10 q 336 -17 375 -17 q 158 22 222 -17 q 75 140 94 60 q 74 349 56 221 q 115 518 89 451 q 185 622 142 585 q 289 675 228 660 q 435 690 350 690 m 493 969 l 644 811 l 610 775 l 465 897 l 454 897 l 271 775 l 243 814 l 429 969 l 493 969 m 381 1153 q 433 1138 413 1150 q 471 1112 453 1126 q 508 1087 489 1097 q 554 1074 526 1076 q 613 1088 594 1069 q 636 1149 632 1107 l 678 1144 q 644 1041 675 1075 q 565 1010 613 1007 q 508 1024 531 1013 q 467 1051 485 1036 q 431 1078 449 1067 q 390 1092 413 1090 q 332 1074 350 1094 q 308 1011 314 1054 l 267 1015 q 303 1123 271 1089 q 381 1153 335 1157 z "},"ȅ":{"ha":740,"x_min":56,"x_max":692,"o":"m 435 690 q 590 668 532 690 q 669 599 647 646 q 675 476 692 553 q 635 379 664 415 q 558 325 607 343 q 432 300 508 307 l 100 267 l 108 335 l 431 368 q 513 385 482 374 q 563 419 544 396 q 589 485 581 443 q 584 572 601 544 q 526 608 567 600 q 428 615 486 615 q 322 605 365 615 q 247 567 278 594 q 197 485 217 539 q 164 346 178 432 q 162 166 147 228 q 224 81 176 104 q 353 58 272 58 q 436 61 392 58 q 523 68 481 64 q 600 76 565 72 l 607 17 q 527 -2 576 6 q 426 -13 478 -10 q 336 -17 375 -17 q 158 22 222 -17 q 75 140 94 60 q 74 349 56 221 q 115 518 89 451 q 185 622 142 585 q 289 675 228 660 q 435 690 350 690 m 413 1018 l 604 790 l 564 760 l 357 976 l 413 1018 m 197 1018 l 386 790 l 349 760 l 140 976 l 197 1018 z "},"ë":{"ha":740,"x_min":56,"x_max":692,"o":"m 435 690 q 590 668 532 690 q 669 599 647 646 q 675 476 692 553 q 635 379 664 415 q 558 325 607 343 q 432 300 508 307 l 100 267 l 108 335 l 431 368 q 513 385 482 374 q 563 419 544 396 q 589 485 581 443 q 584 572 601 544 q 526 608 567 600 q 428 615 486 615 q 322 605 365 615 q 247 567 278 594 q 197 485 217 539 q 164 346 178 432 q 162 166 147 228 q 224 81 176 104 q 353 58 272 58 q 436 61 392 58 q 523 68 481 64 q 600 76 565 72 l 607 17 q 527 -2 576 6 q 426 -13 478 -10 q 336 -17 375 -17 q 158 22 222 -17 q 75 140 94 60 q 74 349 56 221 q 115 518 89 451 q 185 622 142 585 q 289 675 228 660 q 435 690 350 690 m 360 950 q 381 943 375 950 q 383 924 386 936 l 372 847 q 364 826 371 833 q 342 819 357 819 l 313 819 q 289 846 286 819 l 300 924 q 310 943 303 936 q 332 950 317 950 l 360 950 m 597 950 q 619 943 614 950 q 622 924 624 936 l 611 847 q 603 826 610 833 q 581 819 596 819 l 551 819 q 528 846 525 819 l 539 924 q 549 943 542 936 q 569 950 556 950 l 597 950 z "},"ė":{"ha":740,"x_min":56,"x_max":692,"o":"m 435 690 q 590 668 532 690 q 669 599 647 646 q 675 476 692 553 q 635 379 664 415 q 558 325 607 343 q 432 300 508 307 l 100 267 l 108 335 l 431 368 q 513 385 482 374 q 563 419 544 396 q 589 485 581 443 q 584 572 601 544 q 526 608 567 600 q 428 615 486 615 q 322 605 365 615 q 247 567 278 594 q 197 485 217 539 q 164 346 178 432 q 162 166 147 228 q 224 81 176 104 q 353 58 272 58 q 436 61 392 58 q 523 68 481 64 q 600 76 565 72 l 607 17 q 527 -2 576 6 q 426 -13 478 -10 q 336 -17 375 -17 q 158 22 222 -17 q 75 140 94 60 q 74 349 56 221 q 115 518 89 451 q 185 622 142 585 q 289 675 228 660 q 435 690 350 690 m 478 950 q 499 942 492 950 q 504 919 506 935 l 493 839 q 461 811 489 811 l 433 811 q 411 819 418 811 q 406 842 404 828 l 417 922 q 425 944 418 938 q 447 950 432 950 l 478 950 z "},"ẹ":{"ha":740,"x_min":56,"x_max":692,"o":"m 435 690 q 590 668 532 690 q 669 599 647 646 q 675 476 692 553 q 635 379 664 415 q 558 325 607 343 q 432 300 508 307 l 100 267 l 108 335 l 431 368 q 513 385 482 374 q 563 419 544 396 q 589 485 581 443 q 584 572 601 544 q 526 608 567 600 q 428 615 486 615 q 322 605 365 615 q 247 567 278 594 q 197 485 217 539 q 164 346 178 432 q 162 166 147 228 q 224 81 176 104 q 353 58 272 58 q 436 61 392 58 q 523 68 481 64 q 600 76 565 72 l 607 17 q 527 -2 576 6 q 426 -13 478 -10 q 336 -17 375 -17 q 158 22 222 -17 q 75 140 94 60 q 74 349 56 221 q 115 518 89 451 q 185 622 142 585 q 289 675 228 660 q 435 690 350 690 m 347 -96 q 369 -103 361 -96 q 374 -126 376 -111 l 363 -207 q 332 -235 358 -235 l 303 -235 q 281 -226 289 -235 q 275 -204 274 -218 l 286 -124 q 295 -102 289 -108 q 317 -96 301 -96 l 347 -96 z "},"è":{"ha":740,"x_min":56,"x_max":692,"o":"m 435 690 q 590 668 532 690 q 669 599 647 646 q 675 476 692 553 q 635 379 664 415 q 558 325 607 343 q 432 300 508 307 l 100 267 l 108 335 l 431 368 q 513 385 482 374 q 563 419 544 396 q 589 485 581 443 q 584 572 601 544 q 526 608 567 600 q 428 615 486 615 q 322 605 365 615 q 247 567 278 594 q 197 485 217 539 q 164 346 178 432 q 162 166 147 228 q 224 81 176 104 q 353 58 272 58 q 436 61 392 58 q 523 68 481 64 q 600 76 565 72 l 607 17 q 527 -2 576 6 q 426 -13 478 -10 q 336 -17 375 -17 q 158 22 222 -17 q 75 140 94 60 q 74 349 56 221 q 115 518 89 451 q 185 622 142 585 q 289 675 228 660 q 435 690 350 690 m 289 1010 l 506 806 l 471 765 l 239 947 l 289 1010 z "},"ẻ":{"ha":740,"x_min":56,"x_max":692,"o":"m 435 690 q 590 668 532 690 q 669 599 647 646 q 675 476 692 553 q 635 379 664 415 q 558 325 607 343 q 432 300 508 307 l 100 267 l 108 335 l 431 368 q 513 385 482 374 q 563 419 544 396 q 589 485 581 443 q 584 572 601 544 q 526 608 567 600 q 428 615 486 615 q 322 605 365 615 q 247 567 278 594 q 197 485 217 539 q 164 346 178 432 q 162 166 147 228 q 224 81 176 104 q 353 58 272 58 q 436 61 392 58 q 523 68 481 64 q 600 76 565 72 l 607 17 q 527 -2 576 6 q 426 -13 478 -10 q 336 -17 375 -17 q 158 22 222 -17 q 75 140 94 60 q 74 349 56 221 q 115 518 89 451 q 185 622 142 585 q 289 675 228 660 q 435 690 350 690 m 410 831 q 495 876 469 843 q 521 951 521 910 q 495 997 521 986 q 418 993 469 1007 l 417 1043 q 539 1044 492 1065 q 586 963 586 1024 q 540 847 586 897 q 414 786 494 797 l 410 831 z "},"ȇ":{"ha":740,"x_min":56,"x_max":692,"o":"m 435 690 q 590 668 532 690 q 669 599 647 646 q 675 476 692 553 q 635 379 664 415 q 558 325 607 343 q 432 300 508 307 l 100 267 l 108 335 l 431 368 q 513 385 482 374 q 563 419 544 396 q 589 485 581 443 q 584 572 601 544 q 526 608 567 600 q 428 615 486 615 q 322 605 365 615 q 247 567 278 594 q 197 485 217 539 q 164 346 178 432 q 162 166 147 228 q 224 81 176 104 q 353 58 272 58 q 436 61 392 58 q 523 68 481 64 q 600 76 565 72 l 607 17 q 527 -2 576 6 q 426 -13 478 -10 q 336 -17 375 -17 q 158 22 222 -17 q 75 140 94 60 q 74 349 56 221 q 115 518 89 451 q 185 622 142 585 q 289 675 228 660 q 435 690 350 690 m 289 790 l 240 801 q 276 893 247 854 q 351 953 304 932 q 460 974 399 974 q 571 952 526 974 q 634 891 615 931 q 643 799 653 851 l 594 794 q 566 877 603 849 q 461 906 529 906 q 341 875 388 906 q 289 790 294 844 z "},"ē":{"ha":740,"x_min":56,"x_max":692,"o":"m 435 690 q 590 668 532 690 q 669 599 647 646 q 675 476 692 553 q 635 379 664 415 q 558 325 607 343 q 432 300 508 307 l 100 267 l 108 335 l 431 368 q 513 385 482 374 q 563 419 544 396 q 589 485 581 443 q 584 572 601 544 q 526 608 567 600 q 428 615 486 615 q 322 605 365 615 q 247 567 278 594 q 197 485 217 539 q 164 346 178 432 q 162 166 147 228 q 224 81 176 104 q 353 58 272 58 q 436 61 392 58 q 523 68 481 64 q 600 76 565 72 l 607 17 q 527 -2 576 6 q 426 -13 478 -10 q 336 -17 375 -17 q 158 22 222 -17 q 75 140 94 60 q 74 349 56 221 q 115 518 89 451 q 185 622 142 585 q 289 675 228 660 q 435 690 350 690 m 650 917 l 642 850 l 263 850 l 271 917 l 650 917 z "},"ḗ":{"ha":740,"x_min":56,"x_max":692,"o":"m 435 690 q 590 668 532 690 q 669 599 647 646 q 675 476 692 553 q 635 379 664 415 q 558 325 607 343 q 432 300 508 307 l 100 267 l 108 335 l 431 368 q 513 385 482 374 q 563 419 544 396 q 589 485 581 443 q 584 572 601 544 q 526 608 567 600 q 428 615 486 615 q 322 605 365 615 q 247 567 278 594 q 197 485 217 539 q 164 346 178 432 q 162 166 147 228 q 224 81 176 104 q 353 58 272 58 q 436 61 392 58 q 523 68 481 64 q 600 76 565 72 l 607 17 q 527 -2 576 6 q 426 -13 478 -10 q 336 -17 375 -17 q 158 22 222 -17 q 75 140 94 60 q 74 349 56 221 q 115 518 89 451 q 185 622 142 585 q 289 675 228 660 q 435 690 350 690 m 642 875 l 633 808 l 254 808 l 264 875 l 642 875 m 546 1115 l 594 1057 l 406 918 l 372 954 l 546 1115 z "},"ḕ":{"ha":740,"x_min":56,"x_max":692,"o":"m 435 690 q 590 668 532 690 q 669 599 647 646 q 675 476 692 553 q 635 379 664 415 q 558 325 607 343 q 432 300 508 307 l 100 267 l 108 335 l 431 368 q 513 385 482 374 q 563 419 544 396 q 589 485 581 443 q 584 572 601 544 q 526 608 567 600 q 428 615 486 615 q 322 605 365 615 q 247 567 278 594 q 197 485 217 539 q 164 346 178 432 q 162 166 147 228 q 224 81 176 104 q 353 58 272 58 q 436 61 392 58 q 523 68 481 64 q 600 76 565 72 l 607 17 q 527 -2 576 6 q 426 -13 478 -10 q 336 -17 375 -17 q 158 22 222 -17 q 75 140 94 60 q 74 349 56 221 q 115 518 89 451 q 185 622 142 585 q 289 675 228 660 q 435 690 350 690 m 642 875 l 633 808 l 254 808 l 264 875 l 642 875 m 371 1108 l 510 954 l 475 921 l 319 1056 l 371 1108 z "},"ę":{"ha":740,"x_min":56,"x_max":692,"o":"m 435 690 q 590 668 532 690 q 669 599 647 646 q 675 476 692 553 q 635 379 664 415 q 558 325 607 343 q 432 300 508 307 l 100 267 l 108 335 l 431 368 q 513 385 482 374 q 563 419 544 396 q 589 485 581 443 q 584 572 601 544 q 526 608 567 600 q 428 615 486 615 q 322 605 365 615 q 247 567 278 594 q 197 485 217 539 q 164 346 178 432 q 162 166 147 228 q 224 81 176 104 q 353 58 272 58 q 436 61 392 58 q 523 68 481 64 q 600 76 565 72 l 607 17 q 527 -2 576 6 q 426 -13 478 -10 q 336 -17 375 -17 q 158 22 222 -17 q 75 140 94 60 q 74 349 56 221 q 115 518 89 451 q 185 622 142 585 q 289 675 228 660 q 435 690 350 690 m 558 22 l 603 18 q 533 -59 565 -18 q 472 -150 500 -100 q 473 -220 444 -204 q 575 -212 501 -236 l 586 -251 q 478 -278 521 -278 q 413 -260 435 -279 q 390 -211 390 -242 q 406 -144 389 -181 q 459 -68 424 -110 q 558 22 494 -26 z "},"ẽ":{"ha":740,"x_min":56,"x_max":692,"o":"m 435 690 q 590 668 532 690 q 669 599 647 646 q 675 476 692 553 q 635 379 664 415 q 558 325 607 343 q 432 300 508 307 l 100 267 l 108 335 l 431 368 q 513 385 482 374 q 563 419 544 396 q 589 485 581 443 q 584 572 601 544 q 526 608 567 600 q 428 615 486 615 q 322 605 365 615 q 247 567 278 594 q 197 485 217 539 q 164 346 178 432 q 162 166 147 228 q 224 81 176 104 q 353 58 272 58 q 436 61 392 58 q 523 68 481 64 q 600 76 565 72 l 607 17 q 527 -2 576 6 q 426 -13 478 -10 q 336 -17 375 -17 q 158 22 222 -17 q 75 140 94 60 q 74 349 56 221 q 115 518 89 451 q 185 622 142 585 q 289 675 228 660 q 435 690 350 690 m 356 965 q 412 951 389 963 q 455 924 435 939 q 496 897 475 910 q 546 882 517 885 q 609 898 589 878 q 635 960 629 918 l 678 957 q 641 848 675 885 q 557 815 607 811 q 496 831 521 818 q 450 858 471 843 q 410 885 429 872 q 365 900 390 897 q 303 883 324 904 q 278 817 283 861 l 233 821 q 273 933 238 897 q 356 965 308 969 z "},"ə":{"ha":740,"x_min":50,"x_max":685,"o":"m 307 -17 q 151 6 210 -17 q 72 75 93 28 q 65 196 50 122 q 105 294 76 258 q 183 349 133 331 q 308 374 233 368 l 642 406 l 632 339 l 310 307 q 228 290 260 301 q 178 254 196 278 q 151 189 161 231 q 156 101 139 129 q 214 66 174 74 q 313 58 254 58 q 419 68 375 58 q 493 106 463 78 q 543 188 524 135 q 576 326 563 240 q 580 508 594 446 q 517 592 565 569 q 388 615 469 615 q 305 613 349 615 q 218 606 261 610 q 140 597 175 601 l 133 657 q 214 676 165 669 q 315 687 263 683 q 404 690 367 690 q 583 652 519 690 q 665 533 646 614 q 667 324 685 453 q 625 155 651 221 q 556 51 599 89 q 451 -1 513 14 q 307 -17 390 -17 z "},"f":{"ha":511,"x_min":-171,"x_max":611,"o":"m 429 994 q 484 994 451 994 q 551 992 517 993 q 611 986 585 990 l 599 921 l 457 921 q 350 893 385 921 q 304 790 315 865 l 179 -92 q 119 -234 167 -185 q -24 -283 71 -283 q -91 -282 -51 -283 q -171 -275 -131 -281 l -158 -210 l -51 -210 q 51 -182 18 -210 q 93 -79 83 -154 l 217 803 q 281 945 231 896 q 429 994 332 994 m 515 674 l 504 601 l 68 601 l 76 667 l 206 674 l 515 674 z "},"g":{"ha":796,"x_min":24,"x_max":721,"o":"m 632 663 l 721 663 l 622 6 q 588 -117 614 -62 q 519 -210 563 -171 q 413 -272 475 -250 q 267 -297 350 -293 q 201 -299 244 -299 q 110 -294 158 -299 q 24 -282 63 -290 l 33 -222 q 101 -224 67 -224 q 176 -225 136 -225 q 264 -222 217 -225 q 442 -167 371 -215 q 533 -10 514 -118 q 555 96 544 50 q 583 174 565 142 l 560 186 l 632 663 m 414 690 q 514 687 463 690 q 617 677 565 683 q 715 663 669 671 l 676 607 q 543 613 600 610 q 443 615 486 615 q 322 605 369 615 q 247 565 275 594 q 201 480 218 536 q 169 335 183 424 q 156 171 154 231 q 185 86 158 111 q 265 61 211 61 q 367 83 314 61 q 476 148 419 106 q 589 253 532 190 l 608 207 q 505 92 564 142 q 380 13 446 42 q 247 -17 314 -17 q 127 18 171 -17 q 72 131 83 53 q 81 343 61 210 q 124 522 97 454 q 189 627 150 590 q 283 677 228 664 q 414 690 339 690 z "},"ğ":{"ha":796,"x_min":24,"x_max":721,"o":"m 632 663 l 721 663 l 622 6 q 588 -117 614 -62 q 519 -210 563 -171 q 413 -272 475 -250 q 267 -297 350 -293 q 201 -299 244 -299 q 110 -294 158 -299 q 24 -282 63 -290 l 33 -222 q 101 -224 67 -224 q 176 -225 136 -225 q 264 -222 217 -225 q 442 -167 371 -215 q 533 -10 514 -118 q 555 96 544 50 q 583 174 565 142 l 560 186 l 632 663 m 414 690 q 514 687 463 690 q 617 677 565 683 q 715 663 669 671 l 676 607 q 543 613 600 610 q 443 615 486 615 q 322 605 369 615 q 247 565 275 594 q 201 480 218 536 q 169 335 183 424 q 156 171 154 231 q 185 86 158 111 q 265 61 211 61 q 367 83 314 61 q 476 148 419 106 q 589 253 532 190 l 608 207 q 505 92 564 142 q 380 13 446 42 q 247 -17 314 -17 q 127 18 171 -17 q 72 131 83 53 q 81 343 61 210 q 124 522 97 454 q 189 627 150 590 q 283 677 228 664 q 414 690 339 690 m 646 974 l 693 963 q 659 872 688 910 q 583 812 631 833 q 474 790 536 790 q 364 813 408 790 q 300 875 319 835 q 290 967 281 915 l 339 971 q 367 888 331 917 q 474 858 404 858 q 593 890 547 858 q 646 974 639 921 z "},"ǧ":{"ha":796,"x_min":24,"x_max":721,"o":"m 632 663 l 721 663 l 622 6 q 588 -117 614 -62 q 519 -210 563 -171 q 413 -272 475 -250 q 267 -297 350 -293 q 201 -299 244 -299 q 110 -294 158 -299 q 24 -282 63 -290 l 33 -222 q 101 -224 67 -224 q 176 -225 136 -225 q 264 -222 217 -225 q 442 -167 371 -215 q 533 -10 514 -118 q 555 96 544 50 q 583 174 565 142 l 560 186 l 632 663 m 414 690 q 514 687 463 690 q 617 677 565 683 q 715 663 669 671 l 676 607 q 543 613 600 610 q 443 615 486 615 q 322 605 369 615 q 247 565 275 594 q 201 480 218 536 q 169 335 183 424 q 156 171 154 231 q 185 86 158 111 q 265 61 211 61 q 367 83 314 61 q 476 148 419 106 q 589 253 532 190 l 608 207 q 505 92 564 142 q 380 13 446 42 q 247 -17 314 -17 q 127 18 171 -17 q 72 131 83 53 q 81 343 61 210 q 124 522 97 454 q 189 627 150 590 q 283 677 228 664 q 414 690 339 690 m 683 996 l 713 957 l 503 785 l 438 785 l 274 963 l 311 996 l 469 857 l 481 857 l 683 996 z "},"ĝ":{"ha":796,"x_min":24,"x_max":721,"o":"m 632 663 l 721 663 l 622 6 q 588 -117 614 -62 q 519 -210 563 -171 q 413 -272 475 -250 q 267 -297 350 -293 q 201 -299 244 -299 q 110 -294 158 -299 q 24 -282 63 -290 l 33 -222 q 101 -224 67 -224 q 176 -225 136 -225 q 264 -222 217 -225 q 442 -167 371 -215 q 533 -10 514 -118 q 555 96 544 50 q 583 174 565 142 l 560 186 l 632 663 m 414 690 q 514 687 463 690 q 617 677 565 683 q 715 663 669 671 l 676 607 q 543 613 600 610 q 443 615 486 615 q 322 605 369 615 q 247 565 275 594 q 201 480 218 536 q 169 335 183 424 q 156 171 154 231 q 185 86 158 111 q 265 61 211 61 q 367 83 314 61 q 476 148 419 106 q 589 253 532 190 l 608 207 q 505 92 564 142 q 380 13 446 42 q 247 -17 314 -17 q 127 18 171 -17 q 72 131 83 53 q 81 343 61 210 q 124 522 97 454 q 189 627 150 590 q 283 677 228 664 q 414 690 339 690 m 525 986 l 696 808 l 661 774 l 497 914 l 486 914 l 281 774 l 253 814 l 461 986 l 525 986 z "},"ģ":{"ha":796,"x_min":24,"x_max":721,"o":"m 632 663 l 721 663 l 622 6 q 588 -117 614 -62 q 519 -210 563 -171 q 413 -272 475 -250 q 267 -297 350 -293 q 201 -299 244 -299 q 110 -294 158 -299 q 24 -282 63 -290 l 33 -222 q 101 -224 67 -224 q 176 -225 136 -225 q 264 -222 217 -225 q 442 -167 371 -215 q 533 -10 514 -118 q 555 96 544 50 q 583 174 565 142 l 560 186 l 632 663 m 414 690 q 514 687 463 690 q 617 677 565 683 q 715 663 669 671 l 676 607 q 543 613 600 610 q 443 615 486 615 q 322 605 369 615 q 247 565 275 594 q 201 480 218 536 q 169 335 183 424 q 156 171 154 231 q 185 86 158 111 q 265 61 211 61 q 367 83 314 61 q 476 148 419 106 q 589 253 532 190 l 608 207 q 505 92 564 142 q 380 13 446 42 q 247 -17 314 -17 q 127 18 171 -17 q 72 131 83 53 q 81 343 61 210 q 124 522 97 454 q 189 627 150 590 q 283 677 228 664 q 414 690 339 690 m 440 781 q 417 788 423 781 q 415 812 411 795 l 426 888 q 439 945 430 915 q 460 1003 447 974 q 488 1060 473 1032 l 530 1047 q 508 980 517 1011 q 490 906 499 949 q 510 900 504 907 q 514 881 516 893 l 504 809 q 493 787 501 794 q 466 781 485 781 l 440 781 z "},"ġ":{"ha":796,"x_min":24,"x_max":721,"o":"m 632 663 l 721 663 l 622 6 q 588 -117 614 -62 q 519 -210 563 -171 q 413 -272 475 -250 q 267 -297 350 -293 q 201 -299 244 -299 q 110 -294 158 -299 q 24 -282 63 -290 l 33 -222 q 101 -224 67 -224 q 176 -225 136 -225 q 264 -222 217 -225 q 442 -167 371 -215 q 533 -10 514 -118 q 555 96 544 50 q 583 174 565 142 l 560 186 l 632 663 m 414 690 q 514 687 463 690 q 617 677 565 683 q 715 663 669 671 l 676 607 q 543 613 600 610 q 443 615 486 615 q 322 605 369 615 q 247 565 275 594 q 201 480 218 536 q 169 335 183 424 q 156 171 154 231 q 185 86 158 111 q 265 61 211 61 q 367 83 314 61 q 476 148 419 106 q 589 253 532 190 l 608 207 q 505 92 564 142 q 380 13 446 42 q 247 -17 314 -17 q 127 18 171 -17 q 72 131 83 53 q 81 343 61 210 q 124 522 97 454 q 189 627 150 590 q 283 677 228 664 q 414 690 339 690 m 504 950 q 525 942 518 950 q 531 919 532 935 l 519 839 q 488 811 515 811 l 460 811 q 438 819 444 811 q 432 842 431 828 l 443 922 q 451 944 444 938 q 474 950 458 950 l 504 950 z "},"ḡ":{"ha":796,"x_min":24,"x_max":721,"o":"m 632 663 l 721 663 l 622 6 q 588 -117 614 -62 q 519 -210 563 -171 q 413 -272 475 -250 q 267 -297 350 -293 q 201 -299 244 -299 q 110 -294 158 -299 q 24 -282 63 -290 l 33 -222 q 101 -224 67 -224 q 176 -225 136 -225 q 264 -222 217 -225 q 442 -167 371 -215 q 533 -10 514 -118 q 555 96 544 50 q 583 174 565 142 l 560 186 l 632 663 m 414 690 q 514 687 463 690 q 617 677 565 683 q 715 663 669 671 l 676 607 q 543 613 600 610 q 443 615 486 615 q 322 605 369 615 q 247 565 275 594 q 201 480 218 536 q 169 335 183 424 q 156 171 154 231 q 185 86 158 111 q 265 61 211 61 q 367 83 314 61 q 476 148 419 106 q 589 253 532 190 l 608 207 q 505 92 564 142 q 380 13 446 42 q 247 -17 314 -17 q 127 18 171 -17 q 72 131 83 53 q 81 343 61 210 q 124 522 97 454 q 189 627 150 590 q 283 677 228 664 q 414 690 339 690 m 675 917 l 665 850 l 288 850 l 297 917 l 675 917 z "},"h":{"ha":797,"x_min":57,"x_max":714,"o":"m 543 690 q 672 643 629 690 q 701 504 714 596 l 629 0 l 542 0 l 611 485 q 598 585 619 557 q 518 614 576 614 q 375 570 449 614 q 200 444 301 526 l 201 514 q 382 644 299 599 q 543 690 465 690 m 282 972 l 243 690 q 226 588 238 640 q 206 500 215 535 l 213 479 l 144 0 l 57 0 l 194 972 l 282 972 z "},"ħ":{"ha":797,"x_min":57,"x_max":714,"o":"m 485 860 l 476 807 l 67 807 l 75 860 l 485 860 m 543 690 q 672 643 629 690 q 701 504 714 596 l 629 0 l 542 0 l 611 485 q 598 585 619 557 q 518 614 576 614 q 375 570 449 614 q 200 444 301 526 l 201 514 q 382 644 299 599 q 543 690 465 690 m 282 972 l 243 690 q 226 588 238 640 q 206 500 215 535 l 213 479 l 144 0 l 57 0 l 194 972 l 282 972 z "}}}
